<svg width="700" height="300" viewBox="0 0 700 300" fill="none" xmlns="http://www.w3.org/2000/svg">
<path d="M684 0H16C7.16344 0 0 7.16344 0 16V284C0 292.837 7.16344 300 16 300H684C692.837 300 700 292.837 700 284V16C700 7.16344 692.837 0 684 0Z" fill="white"/>
<path d="M44.938 23.586H47.864V37.314H44.938V23.586ZM31.584 24.994H43.53V27.062H31.584V24.994ZM37.546 27.524C38.5727 27.524 39.46 27.6487 40.208 27.898C40.9707 28.1327 41.5647 28.47 41.99 28.91C42.4153 29.35 42.628 29.878 42.628 30.494C42.628 31.0807 42.4153 31.6013 41.99 32.056C41.5647 32.5107 40.9707 32.8627 40.208 33.112C39.46 33.3467 38.5727 33.464 37.546 33.464C36.534 33.464 35.6467 33.3467 34.884 33.112C34.136 32.8627 33.5493 32.5107 33.124 32.056C32.7133 31.6013 32.508 31.0807 32.508 30.494C32.508 29.878 32.7133 29.35 33.124 28.91C33.5493 28.47 34.136 28.1327 34.884 27.898C35.6467 27.6487 36.534 27.524 37.546 27.524ZM37.546 29.438C36.8567 29.438 36.3067 29.526 35.896 29.702C35.4853 29.878 35.28 30.142 35.28 30.494C35.28 30.846 35.4853 31.11 35.896 31.286C36.3067 31.462 36.8567 31.55 37.546 31.55C38.25 31.55 38.8073 31.462 39.218 31.286C39.6287 31.11 39.834 30.846 39.834 30.494C39.834 30.142 39.6287 29.878 39.218 29.702C38.8073 29.526 38.25 29.438 37.546 29.438ZM36.094 23.41H39.042V26.072H36.094V23.41ZM36.094 32.518H39.042V35.356H36.094V32.518ZM31.342 36.764L31.012 34.586C32.2147 34.586 33.5347 34.5787 34.972 34.564C36.4093 34.5347 37.876 34.476 39.372 34.388C40.8827 34.3 42.3347 34.168 43.728 33.992L43.948 35.95C42.5107 36.1847 41.044 36.368 39.548 36.5C38.0667 36.6173 36.622 36.6907 35.214 36.72C33.8207 36.7493 32.53 36.764 31.342 36.764ZM41 37.512C43.2147 37.512 44.9307 37.7907 46.148 38.348C47.3653 38.8907 47.974 39.69 47.974 40.746C47.974 41.7873 47.3653 42.5793 46.148 43.122C44.9307 43.6793 43.2147 43.958 41 43.958C38.7853 43.958 37.0693 43.6793 35.852 43.122C34.6347 42.5793 34.026 41.7873 34.026 40.746C34.026 39.69 34.6347 38.8907 35.852 38.348C37.0693 37.7907 38.7853 37.512 41 37.512ZM41 39.58C39.6213 39.58 38.602 39.6753 37.942 39.866C37.2967 40.042 36.974 40.3353 36.974 40.746C36.974 41.142 37.2967 41.4353 37.942 41.626C38.602 41.802 39.6213 41.89 41 41.89C42.3933 41.89 43.4127 41.802 44.058 41.626C44.7033 41.4353 45.026 41.142 45.026 40.746C45.026 40.3353 44.7033 40.042 44.058 39.866C43.4127 39.6753 42.3933 39.58 41 39.58ZM51.1403 39.206H69.5983V41.582H51.1403V39.206ZM58.8843 34.718H61.7883V39.778H58.8843V34.718ZM53.0763 25.082H67.5743V35.092H53.0763V25.082ZM64.6923 27.392H55.9583V32.76H64.6923V27.392ZM85.9426 23.586H88.7366V38.722H85.9426V23.586ZM79.3646 29.042H82.6206V31.374H79.3646V29.042ZM81.8726 23.916H84.6006V38.128H81.8726V23.916ZM75.0086 41.252H89.2426V43.606H75.0086V41.252ZM75.0086 36.94H77.9566V42.638H75.0086V36.94ZM72.0826 25.544H80.1346V35.158H72.0826V25.544ZM77.4286 27.766H74.8106V32.914H77.4286V27.766ZM93.7728 34.058H108.095V36.368H93.7728V34.058ZM91.6168 39.25H110.075V41.626H91.6168V39.25ZM93.7728 25.06H107.941V27.392H96.7428V34.696H93.7728V25.06ZM95.8408 29.548H107.479V31.814H95.8408V29.548ZM118.107 35.5859C118.107 33.6484 118.365 31.8646 118.881 30.2344C119.402 28.6042 120.196 27.0937 121.264 25.7031H124.443C124.037 26.2187 123.66 26.849 123.311 27.5937C122.962 28.3333 122.657 29.1458 122.396 30.0312C122.136 30.9167 121.933 31.8333 121.787 32.7812C121.641 33.724 121.568 34.6589 121.568 35.5859C121.568 36.8203 121.693 38.0677 121.943 39.3281C122.199 40.5833 122.542 41.75 122.975 42.8281C123.412 43.9063 123.902 44.7891 124.443 45.4766H121.264C120.196 44.0859 119.402 42.5755 118.881 40.9453C118.365 39.3151 118.107 37.5286 118.107 35.5859ZM129.391 38.5469L129.398 34.5547H129.883L133.727 30H137.547L132.383 36.0313H131.594L129.391 38.5469ZM126.375 42V26H129.703V42H126.375ZM133.875 42L130.344 36.7734L132.563 34.4219L137.773 42H133.875ZM152.625 26V42H149.703L142.742 31.9297H142.625V42H139.242V26H142.211L149.117 36.0625H149.258V26H152.625ZM157.303 36.8672C156.787 36.8672 156.344 36.6849 155.975 36.3203C155.61 35.9505 155.428 35.5078 155.428 34.9922C155.428 34.4818 155.61 34.0443 155.975 33.6797C156.344 33.3151 156.787 33.1328 157.303 33.1328C157.803 33.1328 158.24 33.3151 158.615 33.6797C158.99 34.0443 159.178 34.4818 159.178 34.9922C159.178 35.3359 159.089 35.651 158.912 35.9375C158.74 36.2187 158.514 36.4453 158.232 36.6172C157.951 36.7839 157.641 36.8672 157.303 36.8672ZM161.91 42V30H165.082V32.1172H165.223C165.473 31.4141 165.889 30.8594 166.473 30.4531C167.056 30.0469 167.754 29.8438 168.566 29.8438C169.389 29.8438 170.09 30.0495 170.668 30.4609C171.246 30.8672 171.632 31.4193 171.824 32.1172H171.949C172.194 31.4297 172.637 30.8802 173.277 30.4687C173.923 30.0521 174.686 29.8438 175.566 29.8438C176.686 29.8438 177.595 30.2005 178.293 30.9141C178.996 31.6224 179.348 32.6276 179.348 33.9297V42H176.027V34.5859C176.027 33.9193 175.85 33.4193 175.496 33.0859C175.142 32.7526 174.699 32.5859 174.168 32.5859C173.564 32.5859 173.092 32.7786 172.754 33.1641C172.415 33.5443 172.246 34.0469 172.246 34.6719V42H169.02V34.5156C169.02 33.9271 168.85 33.4583 168.512 33.1094C168.178 32.7604 167.738 32.5859 167.191 32.5859C166.822 32.5859 166.488 32.6797 166.191 32.8672C165.9 33.0495 165.668 33.3073 165.496 33.6406C165.324 33.9687 165.238 34.3542 165.238 34.7969V42H161.91ZM187.586 35.5859C187.586 37.5286 187.326 39.3151 186.805 40.9453C186.289 42.5755 185.497 44.0859 184.43 45.4766H181.25C181.656 44.9609 182.034 44.3307 182.383 43.5859C182.732 42.8411 183.036 42.0286 183.297 41.1484C183.557 40.263 183.76 39.3464 183.906 38.3984C184.052 37.4505 184.125 36.513 184.125 35.5859C184.125 34.3516 183.997 33.1068 183.742 31.8516C183.492 30.5911 183.148 29.4245 182.711 28.3516C182.279 27.2734 181.792 26.3906 181.25 25.7031H184.43C185.497 27.0937 186.289 28.6042 186.805 30.2344C187.326 31.8646 187.586 33.6484 187.586 35.5859Z" fill="#111827"/>
<path d="M638 70H82C75.3726 70 70 75.3726 70 82V238C70 244.627 75.3726 250 82 250H638C644.627 250 650 244.627 650 238V82C650 75.3726 644.627 70 638 70Z" fill="url(#paint0_linear_34_58)"/>
<path d="M100 80V240" stroke="#9CA3AF" stroke-width="2"/>
<path d="M100 240H640" stroke="#9CA3AF" stroke-width="2"/>
<path d="M100 200H640" stroke="#E5E7EB"/>
<path d="M100 160H640" stroke="#E5E7EB"/>
<path d="M100 120H640" stroke="#E5E7EB"/>
<path d="M190 80V240" stroke="#E5E7EB"/>
<path d="M280 80V240" stroke="#E5E7EB"/>
<path d="M370 80V240" stroke="#E5E7EB"/>
<path d="M460 80V240" stroke="#E5E7EB"/>
<path d="M550 80V240" stroke="#E5E7EB"/>
<path d="M36.5213 239.916V241.357H32.5412V239.916H36.5213ZM37.919 243.466V242.013L41.5625 236.273H42.8153V238.284H42.0739L39.777 241.919V241.987H44.9545V243.466H37.919ZM42.108 245V243.023L42.142 242.379V236.273H43.8722V245H42.108ZM49.6058 245.192C48.8729 245.189 48.2422 245.009 47.7138 244.651C47.1882 244.293 46.7834 243.774 46.4993 243.095C46.218 242.416 46.0788 241.599 46.0817 240.645C46.0817 239.693 46.2223 238.882 46.5036 238.212C46.7876 237.541 47.1925 237.031 47.718 236.682C48.2464 236.33 48.8757 236.153 49.6058 236.153C50.3359 236.153 50.9638 236.33 51.4893 236.682C52.0178 237.034 52.424 237.545 52.7081 238.216C52.9922 238.884 53.1328 239.693 53.13 240.645C53.13 241.602 52.9879 242.42 52.7038 243.099C52.4226 243.778 52.0192 244.297 51.4936 244.655C50.968 245.013 50.3388 245.192 49.6058 245.192ZM49.6058 243.662C50.1058 243.662 50.505 243.411 50.8033 242.908C51.1016 242.405 51.2493 241.651 51.2464 240.645C51.2464 239.983 51.1783 239.432 51.0419 238.991C50.9084 238.551 50.718 238.22 50.4709 237.999C50.2266 237.777 49.9382 237.666 49.6058 237.666C49.1087 237.666 48.7109 237.915 48.4126 238.412C48.1143 238.909 47.9638 239.653 47.9609 240.645C47.9609 241.315 48.0277 241.875 48.1612 242.324C48.2976 242.77 48.4893 243.105 48.7365 243.33C48.9837 243.551 49.2734 243.662 49.6058 243.662ZM57.8675 245.192C57.1346 245.189 56.5039 245.009 55.9755 244.651C55.4499 244.293 55.0451 243.774 54.761 243.095C54.4798 242.416 54.3406 241.599 54.3434 240.645C54.3434 239.693 54.484 238.882 54.7653 238.212C55.0494 237.541 55.4542 237.031 55.9798 236.682C56.5082 236.33 57.1374 236.153 57.8675 236.153C58.5977 236.153 59.2255 236.33 59.7511 236.682C60.2795 237.034 60.6857 237.545 60.9698 238.216C61.2539 238.884 61.3945 239.693 61.3917 240.645C61.3917 241.602 61.2496 242.42 60.9656 243.099C60.6843 243.778 60.2809 244.297 59.7553 244.655C59.2298 245.013 58.6005 245.192 57.8675 245.192ZM57.8675 243.662C58.3675 243.662 58.7667 243.411 59.065 242.908C59.3633 242.405 59.511 241.651 59.5082 240.645C59.5082 239.983 59.44 239.432 59.3036 238.991C59.1701 238.551 58.9798 238.22 58.7326 237.999C58.4883 237.777 58.1999 237.666 57.8675 237.666C57.3704 237.666 56.9727 237.915 56.6744 238.412C56.3761 238.909 56.2255 239.653 56.2227 240.645C56.2227 241.315 56.2894 241.875 56.4229 242.324C56.5593 242.77 56.7511 243.105 56.9982 243.33C57.2454 243.551 57.5352 243.662 57.8675 243.662Z" fill="#6B7280"/>
<path d="M37.3416 199.916V201.357H33.3615V199.916H37.3416ZM38.6254 205V203.67L41.7319 200.794C41.9961 200.538 42.2177 200.308 42.3967 200.104C42.5785 199.899 42.7163 199.699 42.81 199.503C42.9038 199.304 42.9506 199.089 42.9506 198.859C42.9506 198.604 42.8924 198.384 42.7759 198.199C42.6594 198.011 42.5004 197.868 42.2987 197.768C42.0969 197.666 41.8683 197.615 41.6126 197.615C41.3455 197.615 41.1126 197.669 40.9137 197.777C40.7148 197.885 40.5614 198.04 40.4535 198.241C40.3455 198.443 40.2915 198.683 40.2915 198.962H38.5401C38.5401 198.391 38.6694 197.895 38.9279 197.474C39.1864 197.054 39.5487 196.729 40.0146 196.499C40.4805 196.268 41.0174 196.153 41.6254 196.153C42.2504 196.153 42.7944 196.264 43.2575 196.486C43.7234 196.705 44.0856 197.009 44.3441 197.398C44.6026 197.787 44.7319 198.233 44.7319 198.736C44.7319 199.065 44.6665 199.391 44.5359 199.712C44.408 200.033 44.1793 200.389 43.8498 200.781C43.5202 201.17 43.0558 201.638 42.4563 202.183L41.1822 203.432V203.491H44.8469V205H38.6254ZM49.6058 205.192C48.8729 205.189 48.2422 205.009 47.7138 204.651C47.1882 204.293 46.7834 203.774 46.4993 203.095C46.218 202.416 46.0788 201.599 46.0817 200.645C46.0817 199.693 46.2223 198.882 46.5036 198.212C46.7876 197.541 47.1925 197.031 47.718 196.682C48.2464 196.33 48.8757 196.153 49.6058 196.153C50.3359 196.153 50.9638 196.33 51.4893 196.682C52.0178 197.034 52.424 197.545 52.7081 198.216C52.9922 198.884 53.1328 199.693 53.13 200.645C53.13 201.602 52.9879 202.42 52.7038 203.099C52.4226 203.778 52.0192 204.297 51.4936 204.655C50.968 205.013 50.3388 205.192 49.6058 205.192ZM49.6058 203.662C50.1058 203.662 50.505 203.411 50.8033 202.908C51.1016 202.405 51.2493 201.651 51.2464 200.645C51.2464 199.983 51.1783 199.432 51.0419 198.991C50.9084 198.551 50.718 198.22 50.4709 197.999C50.2266 197.777 49.9382 197.666 49.6058 197.666C49.1087 197.666 48.7109 197.915 48.4126 198.412C48.1143 198.909 47.9638 199.653 47.9609 200.645C47.9609 201.315 48.0277 201.875 48.1612 202.324C48.2976 202.77 48.4893 203.105 48.7365 203.33C48.9837 203.551 49.2734 203.662 49.6058 203.662ZM57.8675 205.192C57.1346 205.189 56.5039 205.009 55.9755 204.651C55.4499 204.293 55.0451 203.774 54.761 203.095C54.4798 202.416 54.3406 201.599 54.3434 200.645C54.3434 199.693 54.484 198.882 54.7653 198.212C55.0494 197.541 55.4542 197.031 55.9798 196.682C56.5082 196.33 57.1374 196.153 57.8675 196.153C58.5977 196.153 59.2255 196.33 59.7511 196.682C60.2795 197.034 60.6857 197.545 60.9698 198.216C61.2539 198.884 61.3945 199.693 61.3917 200.645C61.3917 201.602 61.2496 202.42 60.9656 203.099C60.6843 203.778 60.2809 204.297 59.7553 204.655C59.2298 205.013 58.6005 205.192 57.8675 205.192ZM57.8675 203.662C58.3675 203.662 58.7667 203.411 59.065 202.908C59.3633 202.405 59.511 201.651 59.5082 200.645C59.5082 199.983 59.44 199.432 59.3036 198.991C59.1701 198.551 58.9798 198.22 58.7326 197.999C58.4883 197.777 58.1999 197.666 57.8675 197.666C57.3704 197.666 56.9727 197.915 56.6744 198.412C56.3761 198.909 56.2255 199.653 56.2227 200.645C56.2227 201.315 56.2894 201.875 56.4229 202.324C56.5593 202.77 56.7511 203.105 56.9982 203.33C57.2454 203.551 57.5352 203.662 57.8675 203.662Z" fill="#6B7280"/>
<path d="M57.8675 165.192C57.1346 165.189 56.5039 165.009 55.9755 164.651C55.4499 164.293 55.0451 163.774 54.761 163.095C54.4798 162.416 54.3406 161.599 54.3434 160.645C54.3434 159.693 54.484 158.882 54.7653 158.212C55.0494 157.541 55.4542 157.031 55.9798 156.682C56.5082 156.33 57.1374 156.153 57.8675 156.153C58.5977 156.153 59.2255 156.33 59.7511 156.682C60.2795 157.034 60.6857 157.545 60.9698 158.216C61.2539 158.884 61.3945 159.693 61.3917 160.645C61.3917 161.602 61.2496 162.42 60.9656 163.099C60.6843 163.778 60.2809 164.297 59.7553 164.655C59.2298 165.013 58.6005 165.192 57.8675 165.192ZM57.8675 163.662C58.3675 163.662 58.7667 163.411 59.065 162.908C59.3633 162.405 59.511 161.651 59.5082 160.645C59.5082 159.983 59.44 159.432 59.3036 158.991C59.1701 158.551 58.9798 158.22 58.7326 157.999C58.4883 157.777 58.1999 157.666 57.8675 157.666C57.3704 157.666 56.9727 157.915 56.6744 158.412C56.3761 158.909 56.2255 159.653 56.2227 160.645C56.2227 161.315 56.2894 161.875 56.4229 162.324C56.5593 162.77 56.7511 163.105 56.9982 163.33C57.2454 163.551 57.5352 163.662 57.8675 163.662Z" fill="#6B7280"/>
<path d="M38.6254 125V123.67L41.7319 120.794C41.9961 120.538 42.2177 120.308 42.3967 120.104C42.5785 119.899 42.7163 119.699 42.81 119.503C42.9038 119.304 42.9506 119.089 42.9506 118.859C42.9506 118.604 42.8924 118.384 42.7759 118.199C42.6594 118.011 42.5004 117.868 42.2987 117.768C42.0969 117.666 41.8683 117.615 41.6126 117.615C41.3455 117.615 41.1126 117.669 40.9137 117.777C40.7148 117.885 40.5614 118.04 40.4535 118.241C40.3455 118.443 40.2915 118.683 40.2915 118.962H38.5401C38.5401 118.391 38.6694 117.895 38.9279 117.474C39.1864 117.054 39.5487 116.729 40.0146 116.499C40.4805 116.268 41.0174 116.153 41.6254 116.153C42.2504 116.153 42.7944 116.264 43.2575 116.486C43.7234 116.705 44.0856 117.009 44.3441 117.398C44.6026 117.787 44.7319 118.233 44.7319 118.736C44.7319 119.065 44.6665 119.391 44.5359 119.712C44.408 120.033 44.1793 120.389 43.8498 120.781C43.5202 121.17 43.0558 121.638 42.4563 122.183L41.1822 123.432V123.491H44.8469V125H38.6254ZM49.6058 125.192C48.8729 125.189 48.2422 125.009 47.7138 124.651C47.1882 124.293 46.7834 123.774 46.4993 123.095C46.218 122.416 46.0788 121.599 46.0817 120.645C46.0817 119.693 46.2223 118.882 46.5036 118.212C46.7876 117.541 47.1925 117.031 47.718 116.682C48.2464 116.33 48.8757 116.153 49.6058 116.153C50.3359 116.153 50.9638 116.33 51.4893 116.682C52.0178 117.034 52.424 117.545 52.7081 118.216C52.9922 118.884 53.1328 119.693 53.13 120.645C53.13 121.602 52.9879 122.42 52.7038 123.099C52.4226 123.778 52.0192 124.297 51.4936 124.655C50.968 125.013 50.3388 125.192 49.6058 125.192ZM49.6058 123.662C50.1058 123.662 50.505 123.411 50.8033 122.908C51.1016 122.405 51.2493 121.651 51.2464 120.645C51.2464 119.983 51.1783 119.432 51.0419 118.991C50.9084 118.551 50.718 118.22 50.4709 117.999C50.2266 117.777 49.9382 117.666 49.6058 117.666C49.1087 117.666 48.7109 117.915 48.4126 118.412C48.1143 118.909 47.9638 119.653 47.9609 120.645C47.9609 121.315 48.0277 121.875 48.1612 122.324C48.2976 122.77 48.4893 123.105 48.7365 123.33C48.9837 123.551 49.2734 123.662 49.6058 123.662ZM57.8675 125.192C57.1346 125.189 56.5039 125.009 55.9755 124.651C55.4499 124.293 55.0451 123.774 54.761 123.095C54.4798 122.416 54.3406 121.599 54.3434 120.645C54.3434 119.693 54.484 118.882 54.7653 118.212C55.0494 117.541 55.4542 117.031 55.9798 116.682C56.5082 116.33 57.1374 116.153 57.8675 116.153C58.5977 116.153 59.2255 116.33 59.7511 116.682C60.2795 117.034 60.6857 117.545 60.9698 118.216C61.2539 118.884 61.3945 119.693 61.3917 120.645C61.3917 121.602 61.2496 122.42 60.9656 123.099C60.6843 123.778 60.2809 124.297 59.7553 124.655C59.2298 125.013 58.6005 125.192 57.8675 125.192ZM57.8675 123.662C58.3675 123.662 58.7667 123.411 59.065 122.908C59.3633 122.405 59.511 121.651 59.5082 120.645C59.5082 119.983 59.44 119.432 59.3036 118.991C59.1701 118.551 58.9798 118.22 58.7326 117.999C58.4883 117.777 58.1999 117.666 57.8675 117.666C57.3704 117.666 56.9727 117.915 56.6744 118.412C56.3761 118.909 56.2255 119.653 56.2227 120.645C56.2227 121.315 56.2894 121.875 56.4229 122.324C56.5593 122.77 56.7511 123.105 56.9982 123.33C57.2454 123.551 57.5352 123.662 57.8675 123.662Z" fill="#6B7280"/>
<path d="M41.4996 85.1193C40.8633 85.1193 40.2965 85.0099 39.7994 84.7912C39.305 84.5696 38.9144 84.2656 38.6275 83.8793C38.3434 83.4901 38.1971 83.0412 38.1886 82.5327H40.0465C40.0579 82.7457 40.1275 82.9332 40.2553 83.0952C40.386 83.2543 40.5593 83.3778 40.7752 83.4659C40.9911 83.554 41.234 83.598 41.5039 83.598C41.7852 83.598 42.0337 83.5483 42.2496 83.4489C42.4656 83.3494 42.6346 83.2116 42.7567 83.0355C42.8789 82.8594 42.94 82.6562 42.94 82.4261C42.94 82.1932 42.8746 81.9872 42.744 81.8082C42.6161 81.6264 42.4315 81.4844 42.19 81.3821C41.9513 81.2798 41.6673 81.2287 41.3377 81.2287H40.5238V79.8736H41.3377C41.6161 79.8736 41.8619 79.8253 42.0749 79.7287C42.2908 79.6321 42.4585 79.4986 42.5778 79.3281C42.6971 79.1548 42.7567 78.9531 42.7567 78.723C42.7567 78.5043 42.7042 78.3125 42.5991 78.1477C42.4968 77.9801 42.3519 77.8494 42.1644 77.7557C41.9798 77.6619 41.7638 77.6151 41.5167 77.6151C41.2667 77.6151 41.038 77.6605 40.8306 77.7514C40.6232 77.8395 40.457 77.9659 40.332 78.1307C40.207 78.2955 40.1403 78.4886 40.1317 78.7102H38.3633C38.3718 78.2074 38.5153 77.7642 38.7937 77.3807C39.0721 76.9972 39.4471 76.6974 39.9187 76.4815C40.3931 76.2628 40.9286 76.1534 41.5252 76.1534C42.1275 76.1534 42.6545 76.2628 43.1062 76.4815C43.5579 76.7003 43.9087 76.9957 44.1587 77.3679C44.4116 77.7372 44.5366 78.152 44.5337 78.6122C44.5366 79.1009 44.3846 79.5085 44.0778 79.8352C43.7738 80.1619 43.3775 80.3693 42.8888 80.4574V80.5256C43.5309 80.608 44.0195 80.831 44.3548 81.1946C44.6928 81.5554 44.8604 82.0071 44.8576 82.5497C44.8604 83.0469 44.717 83.4886 44.4272 83.875C44.1403 84.2614 43.744 84.5653 43.2383 84.7869C42.7326 85.0085 42.1531 85.1193 41.4996 85.1193ZM49.6058 85.1918C48.8729 85.1889 48.2422 85.0085 47.7138 84.6506C47.1882 84.2926 46.7834 83.7741 46.4993 83.0952C46.218 82.4162 46.0788 81.5994 46.0817 80.6449C46.0817 79.6932 46.2223 78.8821 46.5036 78.2116C46.7876 77.5412 47.1925 77.0312 47.718 76.6818C48.2464 76.3295 48.8757 76.1534 49.6058 76.1534C50.3359 76.1534 50.9638 76.3295 51.4893 76.6818C52.0178 77.0341 52.424 77.5455 52.7081 78.2159C52.9922 78.8835 53.1328 79.6932 53.13 80.6449C53.13 81.6023 52.9879 82.4205 52.7038 83.0994C52.4226 83.7784 52.0192 84.2969 51.4936 84.6548C50.968 85.0128 50.3388 85.1918 49.6058 85.1918ZM49.6058 83.6619C50.1058 83.6619 50.505 83.4105 50.8033 82.9077C51.1016 82.4048 51.2493 81.6506 51.2464 80.6449C51.2464 79.983 51.1783 79.4318 51.0419 78.9915C50.9084 78.5511 50.718 78.2202 50.4709 77.9986C50.2266 77.777 49.9382 77.6662 49.6058 77.6662C49.1087 77.6662 48.7109 77.9148 48.4126 78.4119C48.1143 78.9091 47.9638 79.6534 47.9609 80.6449C47.9609 81.3153 48.0277 81.875 48.1612 82.3239C48.2976 82.7699 48.4893 83.1051 48.7365 83.3295C48.9837 83.5511 49.2734 83.6619 49.6058 83.6619ZM57.8675 85.1918C57.1346 85.1889 56.5039 85.0085 55.9755 84.6506C55.4499 84.2926 55.0451 83.7741 54.761 83.0952C54.4798 82.4162 54.3406 81.5994 54.3434 80.6449C54.3434 79.6932 54.484 78.8821 54.7653 78.2116C55.0494 77.5412 55.4542 77.0312 55.9798 76.6818C56.5082 76.3295 57.1374 76.1534 57.8675 76.1534C58.5977 76.1534 59.2255 76.3295 59.7511 76.6818C60.2795 77.0341 60.6857 77.5455 60.9698 78.2159C61.2539 78.8835 61.3945 79.6932 61.3917 80.6449C61.3917 81.6023 61.2496 82.4205 60.9656 83.0994C60.6843 83.7784 60.2809 84.2969 59.7553 84.6548C59.2298 85.0128 58.6005 85.1918 57.8675 85.1918ZM57.8675 83.6619C58.3675 83.6619 58.7667 83.4105 59.065 82.9077C59.3633 82.4048 59.511 81.6506 59.5082 80.6449C59.5082 79.983 59.44 79.4318 59.3036 78.9915C59.1701 78.5511 58.9798 78.2202 58.7326 77.9986C58.4883 77.777 58.1999 77.6662 57.8675 77.6662C57.3704 77.6662 56.9727 77.9148 56.6744 78.4119C56.3761 78.9091 56.2255 79.6534 56.2227 80.6449C56.2227 81.3153 56.2894 81.875 56.4229 82.3239C56.5593 82.7699 56.7511 83.1051 56.9982 83.3295C57.2454 83.5511 57.5352 83.6619 57.8675 83.6619Z" fill="#6B7280"/>
<path d="M99.9984 265.192C99.2654 265.189 98.6348 265.009 98.1064 264.651C97.5808 264.293 97.176 263.774 96.8919 263.095C96.6106 262.416 96.4714 261.599 96.4743 260.645C96.4743 259.693 96.6149 258.882 96.8961 258.212C97.1802 257.541 97.585 257.031 98.1106 256.682C98.639 256.33 99.2683 256.153 99.9984 256.153C100.729 256.153 101.356 256.33 101.882 256.682C102.41 257.034 102.817 257.545 103.101 258.216C103.385 258.884 103.525 259.693 103.523 260.645C103.523 261.602 103.381 262.42 103.096 263.099C102.815 263.778 102.412 264.297 101.886 264.655C101.361 265.013 100.731 265.192 99.9984 265.192ZM99.9984 263.662C100.498 263.662 100.898 263.411 101.196 262.908C101.494 262.405 101.642 261.651 101.639 260.645C101.639 259.983 101.571 259.432 101.434 258.991C101.301 258.551 101.111 258.22 100.863 257.999C100.619 257.777 100.331 257.666 99.9984 257.666C99.5012 257.666 99.1035 257.915 98.8052 258.412C98.5069 258.909 98.3564 259.653 98.3535 260.645C98.3535 261.315 98.4203 261.875 98.5538 262.324C98.6902 262.77 98.8819 263.105 99.1291 263.33C99.3762 263.551 99.666 263.662 99.9984 263.662Z" fill="#6B7280"/>
<path d="M186.928 265V263.67L190.035 260.794C190.299 260.538 190.52 260.308 190.699 260.104C190.881 259.899 191.019 259.699 191.113 259.503C191.206 259.304 191.253 259.089 191.253 258.859C191.253 258.604 191.195 258.384 191.079 258.199C190.962 258.011 190.803 257.868 190.601 257.768C190.4 257.666 190.171 257.615 189.915 257.615C189.648 257.615 189.415 257.669 189.216 257.777C189.018 257.885 188.864 258.04 188.756 258.241C188.648 258.443 188.594 258.683 188.594 258.962H186.843C186.843 258.391 186.972 257.895 187.231 257.474C187.489 257.054 187.851 256.729 188.317 256.499C188.783 256.268 189.32 256.153 189.928 256.153C190.553 256.153 191.097 256.264 191.56 256.486C192.026 256.705 192.388 257.009 192.647 257.398C192.905 257.787 193.035 258.233 193.035 258.736C193.035 259.065 192.969 259.391 192.839 259.712C192.711 260.033 192.482 260.389 192.153 260.781C191.823 261.17 191.358 261.638 190.759 262.183L189.485 263.432V263.491H193.15V265H186.928Z" fill="#6B7280"/>
<path d="M280.096 265.119C279.647 265.116 279.214 265.041 278.796 264.893C278.381 264.746 278.009 264.506 277.68 264.173C277.35 263.841 277.089 263.401 276.896 262.852C276.705 262.304 276.61 261.631 276.61 260.832C276.613 260.099 276.697 259.445 276.862 258.868C277.029 258.288 277.268 257.797 277.577 257.393C277.89 256.99 278.263 256.683 278.698 256.473C279.133 256.26 279.62 256.153 280.16 256.153C280.742 256.153 281.256 256.267 281.702 256.494C282.148 256.719 282.506 257.024 282.776 257.411C283.049 257.797 283.214 258.23 283.271 258.71H281.451C281.38 258.406 281.231 258.168 281.004 257.994C280.776 257.821 280.495 257.734 280.16 257.734C279.592 257.734 279.16 257.982 278.864 258.476C278.572 258.97 278.423 259.642 278.417 260.491H278.477C278.607 260.233 278.783 260.013 279.005 259.831C279.229 259.646 279.484 259.506 279.768 259.409C280.055 259.31 280.357 259.26 280.675 259.26C281.192 259.26 281.653 259.382 282.056 259.626C282.46 259.868 282.778 260.2 283.011 260.624C283.244 261.047 283.36 261.531 283.36 262.077C283.36 262.668 283.222 263.193 282.947 263.653C282.674 264.114 282.292 264.474 281.8 264.736C281.312 264.994 280.744 265.122 280.096 265.119ZM280.087 263.67C280.371 263.67 280.626 263.602 280.85 263.466C281.075 263.33 281.251 263.145 281.379 262.912C281.506 262.679 281.57 262.418 281.57 262.128C281.57 261.838 281.506 261.578 281.379 261.348C281.254 261.118 281.08 260.935 280.859 260.798C280.637 260.662 280.384 260.594 280.1 260.594C279.887 260.594 279.69 260.634 279.508 260.713C279.329 260.793 279.171 260.903 279.035 261.045C278.901 261.187 278.796 261.352 278.719 261.54C278.643 261.724 278.604 261.922 278.604 262.132C278.604 262.413 278.668 262.67 278.796 262.903C278.927 263.136 279.103 263.322 279.325 263.462C279.549 263.601 279.803 263.67 280.087 263.67Z" fill="#6B7280"/>
<path d="M367.438 256.273V265H365.593V258.024H365.542L363.543 259.277V257.641L365.703 256.273H367.438ZM372.934 265.192C372.201 265.189 371.57 265.009 371.042 264.651C370.516 264.293 370.112 263.774 369.827 263.095C369.546 262.416 369.407 261.599 369.41 260.645C369.41 259.693 369.55 258.882 369.832 258.212C370.116 257.541 370.521 257.031 371.046 256.682C371.575 256.33 372.204 256.153 372.934 256.153C373.664 256.153 374.292 256.33 374.817 256.682C375.346 257.034 375.752 257.545 376.036 258.216C376.32 258.884 376.461 259.693 376.458 260.645C376.458 261.602 376.316 262.42 376.032 263.099C375.751 263.778 375.347 264.297 374.822 264.655C374.296 265.013 373.667 265.192 372.934 265.192ZM372.934 263.662C373.434 263.662 373.833 263.411 374.131 262.908C374.43 262.405 374.577 261.651 374.575 260.645C374.575 259.983 374.506 259.432 374.37 258.991C374.237 258.551 374.046 258.22 373.799 257.999C373.555 257.777 373.266 257.666 372.934 257.666C372.437 257.666 372.039 257.915 371.741 258.412C371.442 258.909 371.292 259.653 371.289 260.645C371.289 261.315 371.356 261.875 371.489 262.324C371.626 262.77 371.817 263.105 372.065 263.33C372.312 263.551 372.602 263.662 372.934 263.662Z" fill="#6B7280"/>
<path d="M457.502 256.273V265H455.657V258.024H455.606L453.607 259.277V257.641L455.768 256.273H457.502ZM459.444 263.466V262.013L463.088 256.273H464.341V258.284H463.599L461.302 261.919V261.987H466.48V263.466H459.444ZM463.633 265V263.023L463.667 262.379V256.273H465.398V265H463.633Z" fill="#6B7280"/>
<path d="M547.602 256.273V265H545.757V258.024H545.706L543.707 259.277V257.641L545.868 256.273H547.602ZM552.932 265.119C552.276 265.119 551.692 265.013 551.18 264.8C550.672 264.584 550.273 264.29 549.983 263.918C549.693 263.545 549.548 263.124 549.548 262.652C549.548 262.288 549.631 261.955 549.795 261.651C549.963 261.344 550.19 261.089 550.477 260.888C550.764 260.683 551.085 260.553 551.44 260.496V260.436C550.974 260.342 550.597 260.116 550.307 259.759C550.017 259.398 549.872 258.979 549.872 258.501C549.872 258.05 550.004 257.648 550.268 257.295C550.533 256.94 550.895 256.662 551.355 256.46C551.818 256.256 552.344 256.153 552.932 256.153C553.52 256.153 554.044 256.256 554.504 256.46C554.967 256.665 555.331 256.945 555.595 257.3C555.859 257.652 555.993 258.053 555.996 258.501C555.993 258.982 555.845 259.401 555.553 259.759C555.26 260.116 554.885 260.342 554.428 260.436V260.496C554.777 260.553 555.094 260.683 555.378 260.888C555.665 261.089 555.892 261.344 556.06 261.651C556.23 261.955 556.317 262.288 556.32 262.652C556.317 263.124 556.17 263.545 555.881 263.918C555.591 264.29 555.19 264.584 554.679 264.8C554.17 265.013 553.588 265.119 552.932 265.119ZM552.932 263.764C553.224 263.764 553.48 263.712 553.699 263.607C553.918 263.499 554.088 263.351 554.21 263.163C554.335 262.973 554.398 262.754 554.398 262.507C554.398 262.254 554.334 262.031 554.206 261.838C554.078 261.642 553.905 261.489 553.686 261.378C553.467 261.264 553.216 261.207 552.932 261.207C552.651 261.207 552.399 261.264 552.178 261.378C551.956 261.489 551.781 261.642 551.653 261.838C551.528 262.031 551.466 262.254 551.466 262.507C551.466 262.754 551.527 262.973 551.649 263.163C551.771 263.351 551.943 263.499 552.165 263.607C552.386 263.712 552.642 263.764 552.932 263.764ZM552.932 259.865C553.176 259.865 553.393 259.815 553.584 259.716C553.774 259.616 553.923 259.479 554.031 259.303C554.139 259.126 554.193 258.923 554.193 258.693C554.193 258.466 554.139 258.267 554.031 258.097C553.923 257.923 553.776 257.788 553.588 257.692C553.401 257.592 553.182 257.543 552.932 257.543C552.685 257.543 552.466 257.592 552.276 257.692C552.085 257.788 551.936 257.923 551.828 258.097C551.723 258.267 551.67 258.466 551.67 258.693C551.67 258.923 551.724 259.126 551.832 259.303C551.94 259.479 552.089 259.616 552.28 259.716C552.47 259.815 552.688 259.865 552.932 259.865Z" fill="#6B7280"/>
<path d="M632.797 265V263.67L635.904 260.794C636.168 260.538 636.39 260.308 636.569 260.104C636.75 259.899 636.888 259.699 636.982 259.503C637.076 259.304 637.123 259.089 637.123 258.859C637.123 258.604 637.064 258.384 636.948 258.199C636.831 258.011 636.672 257.868 636.471 257.768C636.269 257.666 636.04 257.615 635.784 257.615C635.517 257.615 635.284 257.669 635.086 257.777C634.887 257.885 634.733 258.04 634.625 258.241C634.517 258.443 634.463 258.683 634.463 258.962H632.712C632.712 258.391 632.841 257.895 633.1 257.474C633.358 257.054 633.721 256.729 634.186 256.499C634.652 256.268 635.189 256.153 635.797 256.153C636.422 256.153 636.966 256.264 637.429 256.486C637.895 256.705 638.257 257.009 638.516 257.398C638.775 257.787 638.904 258.233 638.904 258.736C638.904 259.065 638.838 259.391 638.708 259.712C638.58 260.033 638.351 260.389 638.022 260.781C637.692 261.17 637.228 261.638 636.628 262.183L635.354 263.432V263.491H639.019V265H632.797ZM643.778 265.192C643.045 265.189 642.414 265.009 641.886 264.651C641.36 264.293 640.955 263.774 640.671 263.095C640.39 262.416 640.251 261.599 640.254 260.645C640.254 259.693 640.394 258.882 640.675 258.212C640.96 257.541 641.364 257.031 641.89 256.682C642.418 256.33 643.048 256.153 643.778 256.153C644.508 256.153 645.136 256.33 645.661 256.682C646.19 257.034 646.596 257.545 646.88 258.216C647.164 258.884 647.305 259.693 647.302 260.645C647.302 261.602 647.16 262.42 646.876 263.099C646.594 263.778 646.191 264.297 645.665 264.655C645.14 265.013 644.511 265.192 643.778 265.192ZM643.778 263.662C644.278 263.662 644.677 263.411 644.975 262.908C645.273 262.405 645.421 261.651 645.418 260.645C645.418 259.983 645.35 259.432 645.214 258.991C645.08 258.551 644.89 258.22 644.643 257.999C644.398 257.777 644.11 257.666 643.778 257.666C643.281 257.666 642.883 257.915 642.585 258.412C642.286 258.909 642.136 259.653 642.133 260.645C642.133 261.315 642.2 261.875 642.333 262.324C642.469 262.77 642.661 263.105 642.908 263.33C643.156 263.551 643.445 263.662 643.778 263.662Z" fill="#6B7280"/>
<path d="M350.002 283.886H351.835C351.835 284.943 351.614 285.875 351.172 286.681C350.73 287.478 350.088 288.146 349.248 288.683C348.416 289.22 347.406 289.623 346.219 289.892L345.543 288.54C346.548 288.323 347.38 288.029 348.039 287.656C348.697 287.283 349.187 286.854 349.508 286.369C349.837 285.884 350.002 285.372 350.002 284.835V283.886ZM346.167 283.886H351.055V285.264H346.167V283.886ZM353.564 283.106H355.306V289.58H353.564V283.106ZM347.233 290.126H355.423V291.478H347.233V290.126ZM347.116 293.61H355.553V294.975H347.116V293.61ZM348.637 290.737H350.34V294.351H348.637V290.737ZM352.316 290.737H354.032V294.351H352.316V290.737ZM365.536 283.093H367.265V295.17H365.536V283.093ZM360.778 283.938C361.393 283.938 361.939 284.116 362.416 284.471C362.892 284.818 363.265 285.316 363.534 285.966C363.811 286.607 363.95 287.366 363.95 288.241C363.95 289.125 363.811 289.892 363.534 290.542C363.265 291.183 362.892 291.682 362.416 292.037C361.939 292.384 361.393 292.557 360.778 292.557C360.171 292.557 359.629 292.384 359.153 292.037C358.676 291.682 358.299 291.183 358.022 290.542C357.753 289.892 357.619 289.125 357.619 288.241C357.619 287.366 357.753 286.607 358.022 285.966C358.299 285.316 358.676 284.818 359.153 284.471C359.629 284.116 360.171 283.938 360.778 283.938ZM360.778 285.511C360.483 285.511 360.223 285.615 359.998 285.823C359.772 286.031 359.595 286.339 359.465 286.746C359.343 287.145 359.283 287.643 359.283 288.241C359.283 288.83 359.343 289.333 359.465 289.749C359.595 290.156 359.772 290.464 359.998 290.672C360.223 290.88 360.483 290.984 360.778 290.984C361.081 290.984 361.345 290.88 361.571 290.672C361.796 290.464 361.969 290.156 362.091 289.749C362.221 289.333 362.286 288.83 362.286 288.241C362.286 287.643 362.221 287.145 362.091 286.746C361.969 286.339 361.796 286.031 361.571 285.823C361.345 285.615 361.081 285.511 360.778 285.511ZM372.934 290.21C372.934 289.065 373.086 288.011 373.391 287.048C373.699 286.084 374.168 285.192 374.799 284.37H376.678C376.438 284.675 376.215 285.047 376.009 285.487C375.802 285.924 375.622 286.404 375.469 286.928C375.315 287.451 375.195 287.992 375.108 288.553C375.022 289.11 374.979 289.662 374.979 290.21C374.979 290.939 375.053 291.676 375.201 292.421C375.352 293.163 375.555 293.852 375.81 294.489C376.069 295.126 376.358 295.648 376.678 296.054H374.799C374.168 295.233 373.699 294.34 373.391 293.377C373.086 292.413 372.934 291.358 372.934 290.21ZM377.819 294V286.909H379.694V288.16H379.777C379.925 287.745 380.171 287.417 380.515 287.177C380.86 286.937 381.273 286.817 381.753 286.817C382.239 286.817 382.653 286.938 382.995 287.181C383.336 287.422 383.564 287.748 383.678 288.16H383.752C383.896 287.754 384.158 287.429 384.536 287.186C384.918 286.94 385.369 286.817 385.889 286.817C386.551 286.817 387.088 287.028 387.5 287.449C387.916 287.868 388.123 288.462 388.123 289.231V294H386.161V289.619C386.161 289.225 386.057 288.93 385.848 288.733C385.638 288.536 385.377 288.437 385.063 288.437C384.706 288.437 384.427 288.551 384.227 288.779C384.027 289.003 383.927 289.3 383.927 289.67V294H382.02V289.577C382.02 289.23 381.92 288.953 381.72 288.746C381.523 288.54 381.263 288.437 380.94 288.437C380.722 288.437 380.525 288.493 380.349 288.603C380.177 288.711 380.04 288.863 379.938 289.06C379.837 289.254 379.786 289.482 379.786 289.744V294H377.819ZM392.992 290.21C392.992 291.358 392.838 292.413 392.53 293.377C392.225 294.34 391.757 295.233 391.126 296.054H389.248C389.488 295.75 389.711 295.377 389.917 294.937C390.123 294.497 390.303 294.017 390.457 293.497C390.611 292.974 390.731 292.432 390.817 291.872C390.903 291.312 390.946 290.758 390.946 290.21C390.946 289.48 390.871 288.745 390.72 288.003C390.572 287.258 390.369 286.569 390.111 285.935C389.855 285.298 389.568 284.776 389.248 284.37H391.126C391.757 285.192 392.225 286.084 392.53 287.048C392.838 288.011 392.992 289.065 392.992 290.21Z" fill="#374151"/>
<path d="M19.121 189.705V186.637H20.499V189.705H19.121ZM21.708 189.705V186.598H23.086V189.705H21.708ZM17.119 187.274V185.532H25.998V187.274H17.119ZM27.558 193.501V185.272H28.949V193.501H27.558ZM25.127 193.501V191.772H28.351V193.501H25.127ZM17.912 195.113V193.397H19.732V191.109H17.912V189.406H24.126V195.113H17.912ZM21.058 193.397H22.748V191.109H21.058V193.397ZM17.587 179.748C17.587 179.141 17.6997 178.6 17.925 178.123C18.1417 177.646 18.445 177.274 18.835 177.005C19.2163 176.728 19.6583 176.589 20.161 176.589C20.6637 176.589 21.11 176.728 21.5 177.005C21.8813 177.274 22.1847 177.646 22.41 178.123C22.6267 178.6 22.735 179.141 22.735 179.748C22.735 180.355 22.6267 180.896 22.41 181.373C22.1847 181.85 21.8813 182.227 21.5 182.504C21.11 182.773 20.6637 182.907 20.161 182.907C19.6583 182.907 19.2163 182.773 18.835 182.504C18.445 182.227 18.1417 181.85 17.925 181.373C17.6997 180.896 17.587 180.355 17.587 179.748ZM18.991 179.748C18.991 180.034 19.0387 180.29 19.134 180.515C19.2207 180.74 19.3507 180.918 19.524 181.048C19.6973 181.178 19.9097 181.243 20.161 181.243C20.4123 181.243 20.6247 181.178 20.798 181.048C20.9627 180.918 21.0927 180.74 21.188 180.515C21.2747 180.29 21.318 180.034 21.318 179.748C21.318 179.453 21.2747 179.193 21.188 178.968C21.0927 178.743 20.9627 178.565 20.798 178.435C20.6247 178.305 20.4123 178.24 20.161 178.24C19.9097 178.24 19.6973 178.305 19.524 178.435C19.3507 178.565 19.2207 178.743 19.134 178.968C19.0387 179.193 18.991 179.453 18.991 179.748ZM23.944 180.567V178.825H28.78V180.567H23.944ZM17.106 175.302V173.573H29.144V175.302H17.106ZM24.854 183.414L23.45 183.609C23.45 182.916 23.4457 182.14 23.437 181.282C23.4197 180.415 23.3807 179.527 23.32 178.617C23.2593 177.707 23.164 176.827 23.034 175.978L24.295 175.874C24.4683 176.741 24.594 177.62 24.672 178.513C24.75 179.406 24.7977 180.272 24.815 181.113C24.8323 181.954 24.8453 182.721 24.854 183.414ZM24.2099 167.995C23.065 167.995 22.0109 167.842 21.0476 167.538C20.0843 167.23 19.1918 166.76 18.37 166.13V164.251C18.6747 164.491 19.0471 164.714 19.4872 164.92C19.9242 165.126 20.4044 165.306 20.9276 165.46C21.4508 165.614 21.9924 165.734 22.5526 165.82C23.1096 165.906 23.6621 165.95 24.2099 165.95C24.9393 165.95 25.6764 165.876 26.4212 165.728C27.1629 165.577 27.8523 165.374 28.4893 165.119C29.1264 164.86 29.6481 164.571 30.0543 164.251V166.13C29.2326 166.76 28.3401 167.23 27.3768 167.538C26.4135 167.842 25.3578 167.995 24.2099 167.995ZM28 163.109H20.9091V161.235H22.1602V161.152C21.7447 161.004 21.4169 160.758 21.1768 160.413C20.9368 160.069 20.8168 159.656 20.8168 159.176C20.8168 158.69 20.9383 158.276 21.1815 157.934C21.4215 157.593 21.7478 157.365 22.1602 157.251V157.177C21.7539 157.032 21.4292 156.771 21.1861 156.392C20.9399 156.011 20.8168 155.56 20.8168 155.04C20.8168 154.378 21.0276 153.841 21.4492 153.428C21.8678 153.013 22.4618 152.805 23.2312 152.805H28L28 154.767H23.619C23.225 154.767 22.9296 154.872 22.7326 155.081C22.5356 155.29 22.4371 155.552 22.4371 155.866C22.4371 156.223 22.551 156.502 22.7788 156.702C23.0034 156.902 23.3004 157.002 23.6697 157.002H28V158.908H23.5774C23.2296 158.908 22.9527 159.008 22.7464 159.208C22.5402 159.405 22.4371 159.665 22.4371 159.989C22.4371 160.207 22.4925 160.404 22.6033 160.579C22.7111 160.752 22.8634 160.889 23.0604 160.99C23.2543 161.092 23.482 161.143 23.7436 161.143H28V163.109ZM28 151.252H20.9091V149.378H22.1602V149.294C21.7447 149.147 21.4169 148.9 21.1768 148.556C20.9368 148.211 20.8168 147.799 20.8168 147.319C20.8168 146.832 20.9383 146.418 21.1815 146.077C21.4215 145.735 21.7478 145.507 22.1602 145.394V145.32C21.7539 145.175 21.4292 144.913 21.1861 144.535C20.9399 144.153 20.8168 143.702 20.8168 143.182C20.8168 142.521 21.0276 141.983 21.4492 141.571C21.8678 141.156 22.4618 140.948 23.2312 140.948H28V142.91H23.619C23.225 142.91 22.9296 143.014 22.7326 143.224C22.5356 143.433 22.4371 143.695 22.4371 144.009C22.4371 144.366 22.551 144.644 22.7788 144.844C23.0034 145.044 23.3004 145.144 23.6697 145.144H28V147.051H23.5774C23.2296 147.051 22.9527 147.151 22.7464 147.351C22.5402 147.548 22.4371 147.808 22.4371 148.131C22.4371 148.35 22.4925 148.547 22.6033 148.722C22.7111 148.894 22.8634 149.031 23.0604 149.133C23.2543 149.234 23.482 149.285 23.7436 149.285H28V151.252ZM24.2099 136.08C25.3578 136.08 26.4135 136.234 27.3768 136.541C28.3401 136.846 29.2326 137.314 30.0543 137.945V139.824C29.7496 139.584 29.3772 139.361 28.9371 139.154C28.497 138.948 28.0169 138.768 27.4968 138.614C26.9736 138.46 26.4319 138.34 25.8718 138.254C25.3117 138.168 24.7577 138.125 24.2099 138.125C23.4805 138.125 22.7449 138.2 22.0032 138.351C21.2584 138.499 20.569 138.702 19.935 138.96C19.2979 139.216 18.7763 139.504 18.37 139.824V137.945C19.1918 137.314 20.0843 136.846 21.0476 136.541C22.0109 136.234 23.065 136.08 24.2099 136.08Z" fill="#374151"/>
<path d="M100 165C140 155 170 145 190 160C220 185 250 200 280 180C310 160 340 140 370 150C400 165 430 195 460 185C500 170 530 155 550 165C580 175 615 185 640 178" stroke="#F59E0B" stroke-width="4" stroke-linecap="round" stroke-linejoin="round"/>
<path d="M100 165C150 140 180 130 190 145C220 185 250 215 280 195C320 170 340 155 370 145C410 135 435 165 460 175C505 195 535 210 550 195C580 175 610 160 640 165" stroke="#EF4444" stroke-width="4" stroke-linecap="round" stroke-linejoin="round"/>
<path d="M476 24H462C460.895 24 460 24.8954 460 26C460 27.1046 460.895 28 462 28H476C477.105 28 478 27.1046 478 26C478 24.8954 477.105 24 476 24Z" fill="#F59E0B"/>
<path d="M484.825 31V29.4489L488.45 26.093C488.758 25.7947 489.016 25.5263 489.225 25.2876C489.437 25.049 489.598 24.8153 489.707 24.5866C489.817 24.3546 489.871 24.1044 489.871 23.8359C489.871 23.5376 489.804 23.2808 489.668 23.0653C489.532 22.8466 489.346 22.6792 489.111 22.5632C488.875 22.4439 488.609 22.3842 488.31 22.3842C487.999 22.3842 487.727 22.4472 487.495 22.5732C487.263 22.6991 487.084 22.8797 486.958 23.1151C486.832 23.3504 486.769 23.6304 486.769 23.9553H484.726C484.726 23.2891 484.877 22.7107 485.178 22.2202C485.48 21.7296 485.902 21.3501 486.446 21.0817C486.99 20.8132 487.616 20.679 488.325 20.679C489.054 20.679 489.689 20.8082 490.229 21.0668C490.773 21.322 491.196 21.6766 491.497 22.1307C491.799 22.5848 491.95 23.1051 491.95 23.6918C491.95 24.0762 491.873 24.4557 491.721 24.8303C491.572 25.2048 491.305 25.6207 490.92 26.0781C490.536 26.5322 489.994 27.0774 489.295 27.7138L487.808 29.1705V29.2401H492.084V31H484.825ZM497.636 31.2237C496.781 31.2204 496.045 31.0099 495.428 30.5923C494.815 30.1747 494.343 29.5698 494.012 28.7777C493.683 27.9856 493.521 27.0327 493.524 25.919C493.524 24.8087 493.688 23.8625 494.017 23.0803C494.348 22.2981 494.82 21.7031 495.433 21.2955C496.05 20.8845 496.784 20.679 497.636 20.679C498.488 20.679 499.22 20.8845 499.833 21.2955C500.45 21.7064 500.924 22.303 501.255 23.0852C501.587 23.8641 501.751 24.8087 501.747 25.919C501.747 27.036 501.582 27.9905 501.25 28.7827C500.922 29.5748 500.451 30.1797 499.838 30.5973C499.225 31.0149 498.491 31.2237 497.636 31.2237ZM497.636 29.4389C498.219 29.4389 498.685 29.1456 499.033 28.5589C499.381 27.9723 499.553 27.0923 499.55 25.919C499.55 25.1468 499.47 24.5038 499.311 23.9901C499.155 23.4763 498.933 23.0902 498.645 22.8317C498.36 22.5732 498.024 22.4439 497.636 22.4439C497.056 22.4439 496.592 22.7339 496.244 23.3139C495.896 23.8939 495.72 24.7623 495.717 25.919C495.717 26.7012 495.795 27.3542 495.95 27.8778C496.11 28.3982 496.333 28.7893 496.622 29.0511C496.91 29.3097 497.248 29.4389 497.636 29.4389ZM503.282 31V29.4489L506.907 26.093C507.215 25.7947 507.473 25.5263 507.682 25.2876C507.894 25.049 508.055 24.8153 508.164 24.5866C508.274 24.3546 508.328 24.1044 508.328 23.8359C508.328 23.5376 508.261 23.2808 508.125 23.0653C507.989 22.8466 507.803 22.6792 507.568 22.5632C507.333 22.4439 507.066 22.3842 506.767 22.3842C506.456 22.3842 506.184 22.4472 505.952 22.5732C505.72 22.6991 505.541 22.8797 505.415 23.1151C505.289 23.3504 505.226 23.6304 505.226 23.9553H503.183C503.183 23.2891 503.334 22.7107 503.635 22.2202C503.937 21.7296 504.359 21.3501 504.903 21.0817C505.447 20.8132 506.073 20.679 506.782 20.679C507.511 20.679 508.146 20.8082 508.686 21.0668C509.23 21.322 509.653 21.6766 509.954 22.1307C510.256 22.5848 510.407 23.1051 510.407 23.6918C510.407 24.0762 510.33 24.4557 510.178 24.8303C510.029 25.2048 509.762 25.6207 509.377 26.0781C508.993 26.5322 508.451 27.0774 507.752 27.7138L506.265 29.1705V29.2401H510.541V31H503.282ZM511.728 29.2102V27.5149L515.979 20.8182H517.44V23.1648H516.575L513.895 27.4055V27.4851H519.936V29.2102H511.728ZM516.615 31V28.6932L516.655 27.9425V20.8182H518.673V31H516.615ZM525.663 20.8182V31H523.51V22.8615H523.451L521.119 24.3232V22.4141L523.64 20.8182H525.663ZM532.075 31.2237C531.22 31.2204 530.484 31.0099 529.868 30.5923C529.255 30.1747 528.782 29.5698 528.451 28.7777C528.123 27.9856 527.96 27.0327 527.964 25.919C527.964 24.8087 528.128 23.8625 528.456 23.0803C528.787 22.2981 529.26 21.7031 529.873 21.2955C530.489 20.8845 531.223 20.679 532.075 20.679C532.927 20.679 533.66 20.8845 534.273 21.2955C534.889 21.7064 535.363 22.303 535.695 23.0852C536.026 23.8641 536.19 24.8087 536.187 25.919C536.187 27.036 536.021 27.9905 535.69 28.7827C535.362 29.5748 534.891 30.1797 534.278 30.5973C533.665 31.0149 532.93 31.2237 532.075 31.2237ZM532.075 29.4389C532.659 29.4389 533.124 29.1456 533.472 28.5589C533.82 27.9723 533.993 27.0923 533.989 25.919C533.989 25.1468 533.91 24.5038 533.751 23.9901C533.595 23.4763 533.373 23.0902 533.085 22.8317C532.799 22.5732 532.463 22.4439 532.075 22.4439C531.495 22.4439 531.031 22.7339 530.683 23.3139C530.335 23.8939 530.16 24.7623 530.156 25.919C530.156 26.7012 530.234 27.3542 530.39 27.8778C530.549 28.3982 530.773 28.7893 531.061 29.0511C531.349 29.3097 531.688 29.4389 532.075 29.4389ZM537.722 31V29.4489L541.346 26.093C541.654 25.7947 541.913 25.5263 542.122 25.2876C542.334 25.049 542.494 24.8153 542.604 24.5866C542.713 24.3546 542.768 24.1044 542.768 23.8359C542.768 23.5376 542.7 23.2808 542.564 23.0653C542.428 22.8466 542.243 22.6792 542.007 22.5632C541.772 22.4439 541.505 22.3842 541.207 22.3842C540.895 22.3842 540.624 22.4472 540.392 22.5732C540.16 22.6991 539.981 22.8797 539.855 23.1151C539.729 23.3504 539.666 23.6304 539.666 23.9553H537.622C537.622 23.2891 537.773 22.7107 538.075 22.2202C538.376 21.7296 538.799 21.3501 539.343 21.0817C539.886 20.8132 540.512 20.679 541.222 20.679C541.951 20.679 542.586 20.8082 543.126 21.0668C543.669 21.322 544.092 21.6766 544.394 22.1307C544.695 22.5848 544.846 23.1051 544.846 23.6918C544.846 24.0762 544.77 24.4557 544.617 24.8303C544.468 25.2048 544.201 25.6207 543.817 26.0781C543.432 26.5322 542.891 27.0774 542.191 27.7138L540.705 29.1705V29.2401H544.98V31H537.722ZM550.304 31.1392C549.561 31.1392 548.9 31.0116 548.32 30.7564C547.743 30.4979 547.288 30.1432 546.953 29.6925C546.621 29.2384 546.451 28.7147 546.441 28.1214H548.608C548.622 28.37 548.703 28.5888 548.852 28.7777C549.004 28.9633 549.207 29.1075 549.458 29.2102C549.71 29.313 549.994 29.3643 550.309 29.3643C550.637 29.3643 550.927 29.3063 551.179 29.1903C551.431 29.0743 551.628 28.9136 551.77 28.7081C551.913 28.5026 551.984 28.2656 551.984 27.9972C551.984 27.7254 551.908 27.4851 551.755 27.2763C551.606 27.0642 551.391 26.8984 551.109 26.7791C550.831 26.6598 550.499 26.6001 550.115 26.6001H549.165V25.0192H550.115C550.44 25.0192 550.726 24.9628 550.975 24.8501C551.227 24.7375 551.422 24.5817 551.561 24.3828C551.701 24.1806 551.77 23.9453 551.77 23.6768C551.77 23.4216 551.709 23.1979 551.586 23.0057C551.467 22.8101 551.298 22.6577 551.079 22.5483C550.864 22.4389 550.612 22.3842 550.324 22.3842C550.032 22.3842 549.765 22.4373 549.523 22.5433C549.281 22.6461 549.087 22.7936 548.941 22.9858C548.796 23.178 548.718 23.4034 548.708 23.6619H546.645C546.654 23.0753 546.822 22.5582 547.147 22.1108C547.471 21.6634 547.909 21.3137 548.459 21.0618C549.013 20.8066 549.637 20.679 550.333 20.679C551.036 20.679 551.651 20.8066 552.178 21.0618C552.705 21.317 553.114 21.6617 553.406 22.0959C553.701 22.5268 553.847 23.0107 553.843 23.5476C553.847 24.1177 553.669 24.5933 553.311 24.9744C552.957 25.3556 552.494 25.5975 551.924 25.7003V25.7798C552.673 25.8759 553.243 26.1361 553.635 26.5604C554.029 26.9813 554.225 27.5083 554.221 28.1413C554.225 28.7214 554.057 29.2367 553.719 29.6875C553.384 30.1383 552.922 30.4929 552.332 30.7514C551.742 31.0099 551.066 31.1392 550.304 31.1392Z" fill="#374151"/>
<path d="M592 24H578C576.895 24 576 24.8954 576 26C576 27.1046 576.895 28 578 28H592C593.105 28 594 27.1046 594 26C594 24.8954 593.105 24 592 24Z" fill="#EF4444"/>
<path d="M601.825 31V29.4489L605.45 26.093C605.758 25.7947 606.016 25.5263 606.225 25.2876C606.437 25.049 606.598 24.8153 606.707 24.5866C606.817 24.3546 606.871 24.1044 606.871 23.8359C606.871 23.5376 606.804 23.2808 606.668 23.0653C606.532 22.8466 606.346 22.6792 606.111 22.5632C605.875 22.4439 605.609 22.3842 605.31 22.3842C604.999 22.3842 604.727 22.4472 604.495 22.5732C604.263 22.6991 604.084 22.8797 603.958 23.1151C603.832 23.3504 603.769 23.6304 603.769 23.9553H601.726C601.726 23.2891 601.877 22.7107 602.178 22.2202C602.48 21.7296 602.902 21.3501 603.446 21.0817C603.99 20.8132 604.616 20.679 605.325 20.679C606.054 20.679 606.689 20.8082 607.229 21.0668C607.773 21.322 608.196 21.6766 608.497 22.1307C608.799 22.5848 608.95 23.1051 608.95 23.6918C608.95 24.0762 608.873 24.4557 608.721 24.8303C608.572 25.2048 608.305 25.6207 607.92 26.0781C607.536 26.5322 606.994 27.0774 606.295 27.7138L604.808 29.1705V29.2401H609.084V31H601.825ZM614.636 31.2237C613.781 31.2204 613.045 31.0099 612.428 30.5923C611.815 30.1747 611.343 29.5698 611.012 28.7777C610.683 27.9856 610.521 27.0327 610.524 25.919C610.524 24.8087 610.688 23.8625 611.017 23.0803C611.348 22.2981 611.82 21.7031 612.433 21.2955C613.05 20.8845 613.784 20.679 614.636 20.679C615.488 20.679 616.22 20.8845 616.833 21.2955C617.45 21.7064 617.924 22.303 618.255 23.0852C618.587 23.8641 618.751 24.8087 618.747 25.919C618.747 27.036 618.582 27.9905 618.25 28.7827C617.922 29.5748 617.451 30.1797 616.838 30.5973C616.225 31.0149 615.491 31.2237 614.636 31.2237ZM614.636 29.4389C615.219 29.4389 615.685 29.1456 616.033 28.5589C616.381 27.9723 616.553 27.0923 616.55 25.919C616.55 25.1468 616.47 24.5038 616.311 23.9901C616.155 23.4763 615.933 23.0902 615.645 22.8317C615.36 22.5732 615.024 22.4439 614.636 22.4439C614.056 22.4439 613.592 22.7339 613.244 23.3139C612.896 23.8939 612.72 24.7623 612.717 25.919C612.717 26.7012 612.795 27.3542 612.95 27.8778C613.11 28.3982 613.333 28.7893 613.622 29.0511C613.91 29.3097 614.248 29.4389 614.636 29.4389ZM620.282 31V29.4489L623.907 26.093C624.215 25.7947 624.473 25.5263 624.682 25.2876C624.894 25.049 625.055 24.8153 625.164 24.5866C625.274 24.3546 625.328 24.1044 625.328 23.8359C625.328 23.5376 625.261 23.2808 625.125 23.0653C624.989 22.8466 624.803 22.6792 624.568 22.5632C624.333 22.4439 624.066 22.3842 623.767 22.3842C623.456 22.3842 623.184 22.4472 622.952 22.5732C622.72 22.6991 622.541 22.8797 622.415 23.1151C622.289 23.3504 622.226 23.6304 622.226 23.9553H620.183C620.183 23.2891 620.334 22.7107 620.635 22.2202C620.937 21.7296 621.359 21.3501 621.903 21.0817C622.447 20.8132 623.073 20.679 623.782 20.679C624.511 20.679 625.146 20.8082 625.686 21.0668C626.23 21.322 626.653 21.6766 626.954 22.1307C627.256 22.5848 627.407 23.1051 627.407 23.6918C627.407 24.0762 627.33 24.4557 627.178 24.8303C627.029 25.2048 626.762 25.6207 626.377 26.0781C625.993 26.5322 625.451 27.0774 624.752 27.7138L623.265 29.1705V29.2401H627.541V31H620.282ZM628.728 29.2102V27.5149L632.979 20.8182H634.44V23.1648H633.575L630.895 27.4055V27.4851H636.936V29.2102H628.728ZM633.615 31V28.6932L633.655 27.9425V20.8182H635.673V31H633.615ZM642.362 31.2237C641.507 31.2204 640.771 31.0099 640.155 30.5923C639.542 30.1747 639.07 29.5698 638.738 28.7777C638.41 27.9856 638.248 27.0327 638.251 25.919C638.251 24.8087 638.415 23.8625 638.743 23.0803C639.075 22.2981 639.547 21.7031 640.16 21.2955C640.776 20.8845 641.511 20.679 642.362 20.679C643.214 20.679 643.947 20.8845 644.56 21.2955C645.176 21.7064 645.65 22.303 645.982 23.0852C646.313 23.8641 646.477 24.8087 646.474 25.919C646.474 27.036 646.308 27.9905 645.977 28.7827C645.649 29.5748 645.178 30.1797 644.565 30.5973C643.952 31.0149 643.218 31.2237 642.362 31.2237ZM642.362 29.4389C642.946 29.4389 643.411 29.1456 643.759 28.5589C644.107 27.9723 644.28 27.0923 644.276 25.919C644.276 25.1468 644.197 24.5038 644.038 23.9901C643.882 23.4763 643.66 23.0902 643.372 22.8317C643.087 22.5732 642.75 22.4439 642.362 22.4439C641.782 22.4439 641.318 22.7339 640.97 23.3139C640.622 23.8939 640.447 24.7623 640.443 25.919C640.443 26.7012 640.521 27.3542 640.677 27.8778C640.836 28.3982 641.06 28.7893 641.348 29.0511C641.637 29.3097 641.975 29.4389 642.362 29.4389ZM651.693 20.679C652.217 20.679 652.72 20.7668 653.204 20.9425C653.691 21.1181 654.126 21.3982 654.507 21.7827C654.891 22.1671 655.194 22.6776 655.417 23.3139C655.642 23.947 655.756 24.7242 655.76 25.6456C655.76 26.5107 655.662 27.2829 655.466 27.9624C655.274 28.6385 654.997 29.2135 654.636 29.6875C654.275 30.1615 653.839 30.5227 653.328 30.7713C652.818 31.0166 652.248 31.1392 651.618 31.1392C650.939 31.1392 650.339 31.0083 649.819 30.7464C649.298 30.4813 648.879 30.1217 648.561 29.6676C648.246 29.2102 648.055 28.6965 647.989 28.1264H650.112C650.195 28.4976 650.369 28.786 650.634 28.9915C650.899 29.1937 651.227 29.2947 651.618 29.2947C652.281 29.2947 652.785 29.0064 653.13 28.4297C653.474 27.8497 653.648 27.0559 653.652 26.0483H653.582C653.43 26.3466 653.224 26.6035 652.966 26.8189C652.707 27.031 652.41 27.1951 652.076 27.3111C651.744 27.4271 651.391 27.4851 651.017 27.4851C650.417 27.4851 649.882 27.3442 649.411 27.0625C648.94 26.7808 648.569 26.393 648.297 25.8991C648.025 25.4053 647.89 24.8419 647.89 24.2088C647.886 23.526 648.044 22.9179 648.362 22.3842C648.68 21.8506 649.124 21.433 649.694 21.1314C650.268 20.8265 650.934 20.6757 651.693 20.679ZM651.708 22.3693C651.373 22.3693 651.075 22.4489 650.813 22.608C650.554 22.767 650.349 22.9808 650.196 23.2493C650.047 23.5178 649.974 23.8177 649.978 24.1491C649.978 24.4839 650.051 24.7855 650.196 25.054C650.346 25.3191 650.548 25.5312 650.803 25.6903C651.061 25.8461 651.356 25.924 651.688 25.924C651.936 25.924 652.167 25.8776 652.379 25.7848C652.591 25.692 652.775 25.5644 652.931 25.402C653.09 25.2363 653.214 25.0457 653.304 24.8303C653.393 24.6148 653.438 24.3861 653.438 24.1442C653.435 23.8227 653.358 23.5277 653.209 23.2592C653.06 22.9908 652.855 22.7753 652.593 22.6129C652.331 22.4505 652.036 22.3693 651.708 22.3693ZM661.243 31.2237C660.388 31.2204 659.652 31.0099 659.036 30.5923C658.423 30.1747 657.95 29.5698 657.619 28.7777C657.291 27.9856 657.128 27.0327 657.132 25.919C657.132 24.8087 657.296 23.8625 657.624 23.0803C657.955 22.2981 658.428 21.7031 659.041 21.2955C659.657 20.8845 660.391 20.679 661.243 20.679C662.095 20.679 662.828 20.8845 663.441 21.2955C664.057 21.7064 664.531 22.303 664.863 23.0852C665.194 23.8641 665.358 24.8087 665.355 25.919C665.355 27.036 665.189 27.9905 664.858 28.7827C664.529 29.5748 664.059 30.1797 663.446 30.5973C662.833 31.0149 662.098 31.2237 661.243 31.2237ZM661.243 29.4389C661.827 29.4389 662.292 29.1456 662.64 28.5589C662.988 27.9723 663.161 27.0923 663.157 25.919C663.157 25.1468 663.078 24.5038 662.919 23.9901C662.763 23.4763 662.541 23.0902 662.252 22.8317C661.967 22.5732 661.631 22.4439 661.243 22.4439C660.663 22.4439 660.199 22.7339 659.851 23.3139C659.503 23.8939 659.328 24.7623 659.324 25.919C659.324 26.7012 659.402 27.3542 659.558 27.8778C659.717 28.3982 659.941 28.7893 660.229 29.0511C660.517 29.3097 660.855 29.4389 661.243 29.4389ZM670.688 31.1392C669.922 31.1392 669.241 31.0149 668.645 30.7663C668.051 30.5144 667.586 30.1714 667.248 29.7372C666.91 29.303 666.741 28.8108 666.741 28.2607C666.741 27.8364 666.837 27.447 667.029 27.0923C667.224 26.7344 667.49 26.4377 667.824 26.2024C668.159 25.9638 668.534 25.8113 668.948 25.745V25.6754C668.404 25.5661 667.964 25.3026 667.626 24.8849C667.287 24.464 667.118 23.9751 667.118 23.4183C667.118 22.8913 667.273 22.4223 667.581 22.0114C667.889 21.5971 668.312 21.2723 668.849 21.0369C669.389 20.7983 670.002 20.679 670.688 20.679C671.374 20.679 671.986 20.7983 672.523 21.0369C673.063 21.2756 673.487 21.602 673.795 22.0163C674.104 22.4273 674.259 22.8946 674.263 23.4183C674.259 23.9785 674.087 24.4673 673.746 24.8849C673.404 25.3026 672.967 25.5661 672.433 25.6754V25.745C672.841 25.8113 673.21 25.9638 673.542 26.2024C673.876 26.4377 674.142 26.7344 674.337 27.0923C674.536 27.447 674.637 27.8364 674.64 28.2607C674.637 28.8108 674.466 29.303 674.128 29.7372C673.79 30.1714 673.323 30.5144 672.726 30.7663C672.133 31.0149 671.454 31.1392 670.688 31.1392ZM670.688 29.5582C671.029 29.5582 671.328 29.4969 671.583 29.3743C671.838 29.2483 672.037 29.076 672.18 28.8572C672.325 28.6352 672.398 28.38 672.398 28.0916C672.398 27.7966 672.324 27.5365 672.175 27.3111C672.025 27.0824 671.823 26.9034 671.568 26.7741C671.313 26.6416 671.019 26.5753 670.688 26.5753C670.36 26.5753 670.067 26.6416 669.808 26.7741C669.55 26.9034 669.346 27.0824 669.197 27.3111C669.051 27.5365 668.978 27.7966 668.978 28.0916C668.978 28.38 669.049 28.6352 669.192 28.8572C669.334 29.076 669.535 29.2483 669.793 29.3743C670.052 29.4969 670.35 29.5582 670.688 29.5582ZM670.688 25.0092C670.973 25.0092 671.227 24.9512 671.449 24.8352C671.671 24.7192 671.845 24.5585 671.971 24.353C672.097 24.1475 672.16 23.9105 672.16 23.642C672.16 23.3769 672.097 23.1449 671.971 22.946C671.845 22.7438 671.672 22.5864 671.454 22.4737C671.235 22.3577 670.98 22.2997 670.688 22.2997C670.4 22.2997 670.144 22.3577 669.922 22.4737C669.7 22.5864 669.526 22.7438 669.4 22.946C669.278 23.1449 669.216 23.3769 669.216 23.642C669.216 23.9105 669.279 24.1475 669.405 24.353C669.531 24.5585 669.705 24.7192 669.927 24.8352C670.149 24.9512 670.403 25.0092 670.688 25.0092Z" fill="#374151"/>
<defs>
<linearGradient id="paint0_linear_34_58" x1="70" y1="70" x2="70" y2="250" gradientUnits="userSpaceOnUse">
<stop stop-color="#F9FAFB"/>
<stop offset="1" stop-color="#F3F4F6"/>
</linearGradient>
</defs>
</svg>
