<svg width="800" height="800" viewBox="0 0 800 800" fill="none" xmlns="http://www.w3.org/2000/svg">
<path d="M400 387.575C433.427 387.575 465.485 374.296 489.122 350.659C512.759 327.023 526.038 294.965 526.038 261.538C526.038 228.11 512.759 196.052 489.122 172.416C465.485 148.779 433.427 135.5 400 135.5C366.573 135.5 334.515 148.779 310.878 172.416C287.241 196.052 273.962 228.11 273.962 261.538C273.962 294.965 287.241 327.023 310.878 350.659C334.515 374.296 366.573 387.575 400 387.575ZM400 442.95C232.425 442.95 125 535.425 125 580.45V664.525H675V580.45C675 526 573.3 442.95 400 442.95Z" fill="white"/>
</svg>
