<svg width="326" height="97" viewBox="0 0 326 97" fill="none" xmlns="http://www.w3.org/2000/svg">
<g clip-path="url(#clip0_68_135)">
<path d="M318.778 1H8.22222C4.2335 1 1 3.68629 1 7V91C1 94.3137 4.2335 97 8.22222 97H318.778C322.767 97 326 94.3137 326 91V7C326 3.68629 322.767 1 318.778 1Z" fill="white" stroke="#D9E2EF"/>
<path d="M21.632 11.956H23.228V20.032H21.632V11.956ZM22.784 15.124H24.704V16.444H22.784V15.124ZM16.064 21.592H23.624V22.876H16.064V21.592ZM16.064 19.192H17.672V22.168H16.064V19.192ZM17.576 12.664C18.144 12.664 18.656 12.784 19.112 13.024C19.568 13.264 19.928 13.596 20.192 14.02C20.464 14.444 20.6 14.932 20.6 15.484C20.6 16.028 20.464 16.516 20.192 16.948C19.928 17.372 19.568 17.708 19.112 17.956C18.656 18.196 18.144 18.316 17.576 18.316C17.008 18.316 16.496 18.196 16.04 17.956C15.584 17.708 15.224 17.372 14.96 16.948C14.696 16.516 14.564 16.028 14.564 15.484C14.564 14.932 14.696 14.444 14.96 14.02C15.224 13.596 15.584 13.264 16.04 13.024C16.496 12.784 17.008 12.664 17.576 12.664ZM17.576 14.044C17.304 14.044 17.056 14.104 16.832 14.224C16.616 14.336 16.444 14.5 16.316 14.716C16.188 14.924 16.124 15.18 16.124 15.484C16.124 15.788 16.188 16.048 16.316 16.264C16.444 16.472 16.616 16.636 16.832 16.756C17.056 16.868 17.304 16.924 17.576 16.924C17.856 16.924 18.104 16.868 18.32 16.756C18.544 16.636 18.72 16.472 18.848 16.264C18.976 16.048 19.04 15.788 19.04 15.484C19.04 15.18 18.976 14.924 18.848 14.716C18.72 14.5 18.544 14.336 18.32 14.224C18.104 14.104 17.856 14.044 17.576 14.044ZM31.4831 14.824H34.0631V16.108H31.4831V14.824ZM33.2231 11.956H34.8311V20.056H33.2231V11.956ZM27.4871 21.592H35.0831V22.876H27.4871V21.592ZM27.4871 19.372H29.0831V22.348H27.4871V19.372ZM28.0991 13.408H29.3951V14.104C29.3951 14.808 29.2831 15.476 29.0591 16.108C28.8351 16.74 28.4911 17.296 28.0271 17.776C27.5711 18.248 26.9831 18.604 26.2631 18.844L25.4711 17.572C25.9271 17.42 26.3191 17.224 26.6471 16.984C26.9831 16.736 27.2551 16.456 27.4631 16.144C27.6791 15.832 27.8391 15.504 27.9431 15.16C28.0471 14.816 28.0991 14.464 28.0991 14.104V13.408ZM28.4351 13.408H29.7071V14.104C29.7071 14.536 29.7951 14.968 29.9711 15.4C30.1471 15.824 30.4191 16.212 30.7871 16.564C31.1631 16.908 31.6431 17.18 32.2271 17.38L31.4471 18.616C30.7591 18.384 30.1911 18.044 29.7431 17.596C29.3031 17.14 28.9751 16.612 28.7591 16.012C28.5431 15.404 28.4351 14.768 28.4351 14.104V13.408ZM25.9031 12.7H31.8791V13.972H25.9031V12.7ZM39.0061 12.544H40.3141V13.54C40.3141 14.268 40.2021 14.96 39.9781 15.616C39.7621 16.264 39.4261 16.832 38.9701 17.32C38.5141 17.808 37.9341 18.172 37.2301 18.412L36.3901 17.164C37.0141 16.948 37.5181 16.656 37.9021 16.288C38.2861 15.912 38.5661 15.484 38.7421 15.004C38.9181 14.524 39.0061 14.036 39.0061 13.54V12.544ZM39.3301 12.544H40.6141V13.684C40.6141 14.02 40.6621 14.348 40.7581 14.668C40.8621 14.988 41.0141 15.288 41.2141 15.568C41.4141 15.848 41.6701 16.1 41.9821 16.324C42.2941 16.54 42.6701 16.716 43.1101 16.852L42.2821 18.1C41.6101 17.876 41.0541 17.544 40.6141 17.104C40.1821 16.664 39.8581 16.152 39.6421 15.568C39.4341 14.984 39.3301 14.356 39.3301 13.684V12.544ZM43.7101 11.956H45.3061V18.52H43.7101V11.956ZM44.8741 14.524H46.7821V15.844H44.8741V14.524ZM41.6821 18.772C42.4581 18.772 43.1261 18.86 43.6861 19.036C44.2461 19.204 44.6781 19.448 44.9821 19.768C45.2861 20.08 45.4381 20.464 45.4381 20.92C45.4381 21.368 45.2861 21.752 44.9821 22.072C44.6781 22.392 44.2461 22.636 43.6861 22.804C43.1261 22.98 42.4581 23.068 41.6821 23.068C40.9141 23.068 40.2461 22.98 39.6781 22.804C39.1181 22.636 38.6821 22.392 38.3701 22.072C38.0661 21.752 37.9141 21.368 37.9141 20.92C37.9141 20.464 38.0661 20.08 38.3701 19.768C38.6821 19.448 39.1181 19.204 39.6781 19.036C40.2461 18.86 40.9141 18.772 41.6821 18.772ZM41.6821 20.008C41.2101 20.008 40.8141 20.044 40.4941 20.116C40.1741 20.18 39.9301 20.28 39.7621 20.416C39.5941 20.544 39.5101 20.712 39.5101 20.92C39.5101 21.12 39.5941 21.288 39.7621 21.424C39.9301 21.56 40.1741 21.664 40.4941 21.736C40.8141 21.8 41.2101 21.832 41.6821 21.832C42.1541 21.832 42.5501 21.8 42.8701 21.736C43.1981 21.664 43.4421 21.56 43.6021 21.424C43.7701 21.288 43.8541 21.12 43.8541 20.92C43.8541 20.712 43.7701 20.544 43.6021 20.416C43.4421 20.28 43.1981 20.18 42.8701 20.116C42.5501 20.044 42.1541 20.008 41.6821 20.008ZM47.9692 19.216H48.7492C49.2932 19.216 49.7772 19.212 50.2012 19.204C50.6332 19.188 51.0452 19.168 51.4372 19.144C51.8372 19.112 52.2412 19.064 52.6492 19L52.7812 20.284C52.3652 20.356 51.9532 20.412 51.5452 20.452C51.1372 20.484 50.7092 20.504 50.2612 20.512C49.8132 20.52 49.3092 20.524 48.7492 20.524H47.9692V19.216ZM47.9692 13.096H52.4572V14.368H49.4932V19.744H47.9692V13.096ZM49.0492 16.012H52.2412V17.236H49.0492V16.012ZM55.6252 11.944H57.1492V23.056H55.6252V11.944ZM54.2932 16.252H56.1412V17.536H54.2932V16.252ZM53.2372 12.124H54.7252V22.564H53.2372V12.124Z" fill="black"/>
<path d="M14.4354 28H311.565" stroke="#D1D5DB"/>
<path d="M304.347 40H21.6531C17.6669 40 14.4354 42.6863 14.4354 46V56C14.4354 59.3137 17.6669 62 21.6531 62H304.347C308.333 62 311.565 59.3137 311.565 56V46C311.565 42.6863 308.333 40 304.347 40Z" fill="#F3F4F6"/>
<mask id="mask0_68_135" style="mask-type:luminance" maskUnits="userSpaceOnUse" x="14" y="40" width="303" height="22">
<path d="M309.65 40H21.7852C17.726 40 14.4354 42.6863 14.4354 46V56C14.4354 59.3137 17.726 62 21.7852 62H309.65C313.709 62 317 59.3137 317 56V46C317 42.6863 313.709 40 309.65 40Z" fill="white"/>
</mask>
<g mask="url(#mask0_68_135)">
<path d="M165.718 40H14.4354V62H165.718V40Z" fill="#4F63FF"/>
<path d="M317 40H165.718V62H317V40Z" fill="#EF4444"/>
</g>
<path d="M163 40V62" stroke="white" stroke-opacity="0.35"/>
<path d="M89.9003 46.2727V55H88.8435V47.3807H88.7923L86.6616 48.7955V47.7216L88.8435 46.2727H89.9003Z" fill="black"/>
<path d="M238.465 46.2727V55H237.408V47.3807H237.357L235.226 48.7955V47.7216L237.408 46.2727H238.465Z" fill="black"/>
<path d="M26.2177 70H21.4059C20.0772 70 19 70.8954 19 72V76C19 77.1046 20.0772 78 21.4059 78H26.2177C27.5465 78 28.6236 77.1046 28.6236 76V72C28.6236 70.8954 27.5465 70 26.2177 70Z" fill="#4F63FF"/>
<path d="M37.6447 68.557H38.3917V74.551H37.6447V68.557ZM38.1577 71.032H39.5887V71.653H38.1577V71.032ZM33.3247 75.91H38.7517V76.522H33.3247V75.91ZM33.3247 73.939H34.0627V76.153H33.3247V73.939ZM34.3417 69.133C34.7497 69.133 35.1127 69.22 35.4307 69.394C35.7487 69.562 36.0007 69.796 36.1867 70.096C36.3727 70.396 36.4657 70.744 36.4657 71.14C36.4657 71.524 36.3727 71.869 36.1867 72.175C36.0007 72.481 35.7487 72.721 35.4307 72.895C35.1127 73.063 34.7497 73.147 34.3417 73.147C33.9397 73.147 33.5767 73.063 33.2527 72.895C32.9347 72.721 32.6827 72.481 32.4967 72.175C32.3107 71.869 32.2177 71.524 32.2177 71.14C32.2177 70.744 32.3107 70.396 32.4967 70.096C32.6827 69.796 32.9347 69.562 33.2527 69.394C33.5767 69.22 33.9397 69.133 34.3417 69.133ZM34.3417 69.781C34.0777 69.781 33.8407 69.838 33.6307 69.952C33.4207 70.066 33.2527 70.225 33.1267 70.429C33.0067 70.633 32.9467 70.87 32.9467 71.14C32.9467 71.404 33.0067 71.638 33.1267 71.842C33.2527 72.046 33.4207 72.205 33.6307 72.319C33.8407 72.433 34.0777 72.49 34.3417 72.49C34.6057 72.49 34.8427 72.433 35.0527 72.319C35.2687 72.205 35.4367 72.046 35.5567 71.842C35.6827 71.638 35.7457 71.404 35.7457 71.14C35.7457 70.87 35.6827 70.633 35.5567 70.429C35.4367 70.225 35.2687 70.066 35.0527 69.952C34.8427 69.838 34.6057 69.781 34.3417 69.781ZM44.664 70.807H46.725V71.419H44.664V70.807ZM46.302 68.566H47.049V74.533H46.302V68.566ZM41.856 75.91H47.274V76.522H41.856V75.91ZM41.856 74.002H42.594V76.216H41.856V74.002ZM42.423 69.574H43.035V70.231C43.035 70.723 42.939 71.188 42.747 71.626C42.561 72.058 42.297 72.436 41.955 72.76C41.613 73.078 41.217 73.324 40.767 73.498L40.38 72.895C40.68 72.787 40.953 72.643 41.199 72.463C41.451 72.283 41.67 72.076 41.856 71.842C42.042 71.608 42.183 71.353 42.279 71.077C42.375 70.801 42.423 70.519 42.423 70.231V69.574ZM42.567 69.574H43.179V70.231C43.179 70.579 43.26 70.918 43.422 71.248C43.584 71.578 43.815 71.872 44.115 72.13C44.415 72.382 44.76 72.577 45.15 72.715L44.772 73.309C44.328 73.147 43.941 72.913 43.611 72.607C43.281 72.295 43.023 71.935 42.837 71.527C42.657 71.119 42.567 70.687 42.567 70.231V69.574ZM40.614 69.223H44.961V69.835H40.614V69.223Z" fill="black"/>
<path d="M69.5092 70H64.6974C63.3687 70 62.2915 70.8954 62.2915 72V76C62.2915 77.1046 63.3687 78 64.6974 78H69.5092C70.838 78 71.9151 77.1046 71.9151 76V72C71.9151 70.8954 70.838 70 69.5092 70Z" fill="#10B981"/>
<path d="M77.8939 69.4545V76H77.1012V70.2855H77.0629L75.4649 71.3466V70.5412L77.1012 69.4545H77.8939ZM81.5288 70.492H82.1228V71.194C82.1228 71.62 82.0658 72.037 81.9518 72.445C81.8438 72.847 81.6878 73.222 81.4838 73.57C81.2858 73.918 81.0518 74.227 80.7818 74.497C80.5118 74.761 80.2148 74.971 79.8908 75.127L79.4678 74.551C79.7678 74.407 80.0438 74.218 80.2958 73.984C80.5478 73.75 80.7638 73.483 80.9438 73.183C81.1298 72.883 81.2738 72.565 81.3758 72.229C81.4778 71.887 81.5288 71.542 81.5288 71.194V70.492ZM81.6728 70.492H82.2578V71.194C82.2578 71.518 82.3058 71.842 82.4018 72.166C82.5038 72.484 82.6418 72.787 82.8158 73.075C82.9898 73.357 83.1968 73.615 83.4368 73.849C83.6828 74.077 83.9528 74.263 84.2468 74.407L83.8238 74.974C83.5058 74.818 83.2148 74.611 82.9508 74.353C82.6928 74.089 82.4678 73.792 82.2758 73.462C82.0838 73.126 81.9338 72.766 81.8258 72.382C81.7238 71.992 81.6728 71.596 81.6728 71.194V70.492ZM79.6928 69.97H84.0668V70.573H79.6928V69.97ZM81.5198 68.71H82.2668V70.303H81.5198V68.71ZM85.0568 68.557H85.8038V76.702H85.0568V68.557ZM85.6328 71.896H87.1358V72.526H85.6328V71.896ZM96.2903 68.557H97.0373V76.702H96.2903V68.557ZM93.9053 69.439H94.6433C94.6433 70.027 94.5713 70.594 94.4273 71.14C94.2893 71.686 94.0703 72.205 93.7703 72.697C93.4703 73.183 93.0803 73.636 92.6003 74.056C92.1203 74.476 91.5383 74.851 90.8543 75.181L90.4583 74.578C91.2443 74.2 91.8923 73.759 92.4023 73.255C92.9123 72.751 93.2903 72.19 93.5363 71.572C93.7823 70.948 93.9053 70.276 93.9053 69.556V69.439ZM90.8363 69.439H94.2203V70.042H90.8363V69.439ZM101.834 69.331H102.491V69.574C102.491 69.916 102.407 70.231 102.239 70.519C102.071 70.807 101.84 71.065 101.546 71.293C101.258 71.515 100.925 71.701 100.547 71.851C100.175 71.995 99.7786 72.097 99.3586 72.157L99.0796 71.563C99.3676 71.521 99.6466 71.458 99.9166 71.374C100.193 71.29 100.445 71.188 100.673 71.068C100.901 70.942 101.102 70.801 101.276 70.645C101.45 70.489 101.585 70.321 101.681 70.141C101.783 69.961 101.834 69.772 101.834 69.574V69.331ZM102.14 69.331H102.797V69.574C102.797 69.766 102.845 69.952 102.941 70.132C103.043 70.312 103.181 70.483 103.355 70.645C103.529 70.801 103.73 70.942 103.958 71.068C104.192 71.188 104.444 71.29 104.714 71.374C104.984 71.458 105.263 71.521 105.551 71.563L105.272 72.157C104.858 72.097 104.462 71.995 104.084 71.851C103.706 71.701 103.373 71.515 103.085 71.293C102.797 71.065 102.566 70.807 102.392 70.519C102.224 70.231 102.14 69.916 102.14 69.574V69.331ZM99.3136 68.962H105.326V69.565H99.3136V68.962ZM98.6296 72.742H106.01V73.354H98.6296V72.742ZM101.996 73.129H102.743V75.001H101.996V73.129ZM99.5656 75.91H105.191V76.522H99.5656V75.91ZM99.5656 74.209H100.313V76.135H99.5656V74.209ZM106.918 75.055H114.298V75.676H106.918V75.055ZM110.23 73.21H110.968V75.388H110.23V73.21ZM110.221 70.267H110.887V70.447C110.887 70.861 110.8 71.239 110.626 71.581C110.452 71.917 110.212 72.217 109.906 72.481C109.6 72.739 109.252 72.955 108.862 73.129C108.472 73.297 108.055 73.417 107.611 73.489L107.323 72.904C107.719 72.838 108.091 72.733 108.439 72.589C108.793 72.445 109.102 72.265 109.366 72.049C109.636 71.833 109.846 71.59 109.996 71.32C110.146 71.05 110.221 70.759 110.221 70.447V70.267ZM110.32 70.267H110.977V70.447C110.977 70.759 111.052 71.05 111.202 71.32C111.352 71.59 111.559 71.833 111.823 72.049C112.093 72.265 112.402 72.445 112.75 72.589C113.104 72.733 113.479 72.838 113.875 72.904L113.587 73.489C113.149 73.417 112.732 73.297 112.336 73.129C111.946 72.955 111.598 72.739 111.292 72.481C110.992 72.217 110.755 71.917 110.581 71.581C110.407 71.239 110.32 70.861 110.32 70.447V70.267ZM107.602 69.844H113.596V70.456H107.602V69.844ZM110.23 68.728H110.968V70.069H110.23V68.728ZM115.566 69.448H119.238V70.06H115.566V69.448ZM116.835 71.779H117.573V74.533H116.835V71.779ZM118.932 69.448H119.67V69.889C119.67 70.219 119.658 70.651 119.634 71.185C119.616 71.719 119.55 72.364 119.436 73.12L118.698 73.057C118.818 72.319 118.887 71.689 118.905 71.167C118.923 70.645 118.932 70.219 118.932 69.889V69.448ZM120.687 68.557H121.434V76.702H120.687V68.557ZM121.227 71.959H122.73V72.598H121.227V71.959ZM115.206 74.92L115.116 74.299C115.602 74.293 116.133 74.287 116.709 74.281C117.291 74.269 117.879 74.245 118.473 74.209C119.073 74.173 119.646 74.122 120.192 74.056L120.237 74.614C119.673 74.704 119.094 74.77 118.5 74.812C117.912 74.854 117.336 74.884 116.772 74.902C116.208 74.914 115.686 74.92 115.206 74.92Z" fill="black"/>
<path d="M163.325 70H158.513C157.184 70 156.107 70.8954 156.107 72V76C156.107 77.1046 157.184 78 158.513 78H163.325C164.654 78 165.731 77.1046 165.731 76V72C165.731 70.8954 164.654 70 163.325 70Z" fill="#F59E0B"/>
<path d="M169.408 76V75.4247L171.569 73.0597C171.822 72.7827 172.031 72.5419 172.195 72.3374C172.359 72.1307 172.481 71.9368 172.559 71.7557C172.64 71.5724 172.681 71.3807 172.681 71.1804C172.681 70.9503 172.625 70.7511 172.515 70.5827C172.406 70.4144 172.257 70.2844 172.067 70.1928C171.878 70.1012 171.665 70.0554 171.428 70.0554C171.177 70.0554 170.957 70.1076 170.77 70.212C170.584 70.3143 170.44 70.4581 170.338 70.6435C170.238 70.8288 170.188 71.0462 170.188 71.2955H169.434C169.434 70.9119 169.522 70.5753 169.699 70.2855C169.876 69.9957 170.117 69.7699 170.421 69.608C170.728 69.446 171.072 69.3651 171.454 69.3651C171.837 69.3651 172.177 69.446 172.473 69.608C172.769 69.7699 173.002 69.9883 173.17 70.2631C173.338 70.538 173.422 70.8438 173.422 71.1804C173.422 71.4212 173.379 71.6566 173.291 71.8867C173.206 72.1147 173.057 72.3693 172.844 72.6506C172.633 72.9297 172.34 73.2706 171.965 73.6733L170.495 75.2457V75.2969H173.537V76H169.408ZM176.61 70.492H177.204V71.194C177.204 71.62 177.147 72.037 177.033 72.445C176.925 72.847 176.769 73.222 176.565 73.57C176.367 73.918 176.133 74.227 175.863 74.497C175.593 74.761 175.296 74.971 174.972 75.127L174.549 74.551C174.849 74.407 175.125 74.218 175.377 73.984C175.629 73.75 175.845 73.483 176.025 73.183C176.211 72.883 176.355 72.565 176.457 72.229C176.559 71.887 176.61 71.542 176.61 71.194V70.492ZM176.754 70.492H177.339V71.194C177.339 71.518 177.387 71.842 177.483 72.166C177.585 72.484 177.723 72.787 177.897 73.075C178.071 73.357 178.278 73.615 178.518 73.849C178.764 74.077 179.034 74.263 179.328 74.407L178.905 74.974C178.587 74.818 178.296 74.611 178.032 74.353C177.774 74.089 177.549 73.792 177.357 73.462C177.165 73.126 177.015 72.766 176.907 72.382C176.805 71.992 176.754 71.596 176.754 71.194V70.492ZM174.774 69.97H179.148V70.573H174.774V69.97ZM176.601 68.71H177.348V70.303H176.601V68.71ZM180.138 68.557H180.885V76.702H180.138V68.557ZM180.714 71.896H182.217V72.526H180.714V71.896ZM191.371 68.557H192.118V76.702H191.371V68.557ZM188.986 69.439H189.724C189.724 70.027 189.652 70.594 189.508 71.14C189.37 71.686 189.151 72.205 188.851 72.697C188.551 73.183 188.161 73.636 187.681 74.056C187.201 74.476 186.619 74.851 185.935 75.181L185.539 74.578C186.325 74.2 186.973 73.759 187.483 73.255C187.993 72.751 188.371 72.19 188.617 71.572C188.863 70.948 188.986 70.276 188.986 69.556V69.439ZM185.917 69.439H189.301V70.042H185.917V69.439ZM196.915 69.331H197.572V69.574C197.572 69.916 197.488 70.231 197.32 70.519C197.152 70.807 196.921 71.065 196.627 71.293C196.339 71.515 196.006 71.701 195.628 71.851C195.256 71.995 194.86 72.097 194.44 72.157L194.161 71.563C194.449 71.521 194.728 71.458 194.998 71.374C195.274 71.29 195.526 71.188 195.754 71.068C195.982 70.942 196.183 70.801 196.357 70.645C196.531 70.489 196.666 70.321 196.762 70.141C196.864 69.961 196.915 69.772 196.915 69.574V69.331ZM197.221 69.331H197.878V69.574C197.878 69.766 197.926 69.952 198.022 70.132C198.124 70.312 198.262 70.483 198.436 70.645C198.61 70.801 198.811 70.942 199.039 71.068C199.273 71.188 199.525 71.29 199.795 71.374C200.065 71.458 200.344 71.521 200.632 71.563L200.353 72.157C199.939 72.097 199.543 71.995 199.165 71.851C198.787 71.701 198.454 71.515 198.166 71.293C197.878 71.065 197.647 70.807 197.473 70.519C197.305 70.231 197.221 69.916 197.221 69.574V69.331ZM194.395 68.962H200.407V69.565H194.395V68.962ZM193.711 72.742H201.091V73.354H193.711V72.742ZM197.077 73.129H197.824V75.001H197.077V73.129ZM194.647 75.91H200.272V76.522H194.647V75.91ZM194.647 74.209H195.394V76.135H194.647V74.209ZM201.999 75.055H209.379V75.676H201.999V75.055ZM205.311 73.21H206.049V75.388H205.311V73.21ZM205.302 70.267H205.968V70.447C205.968 70.861 205.881 71.239 205.707 71.581C205.533 71.917 205.293 72.217 204.987 72.481C204.681 72.739 204.333 72.955 203.943 73.129C203.553 73.297 203.136 73.417 202.692 73.489L202.404 72.904C202.8 72.838 203.172 72.733 203.52 72.589C203.874 72.445 204.183 72.265 204.447 72.049C204.717 71.833 204.927 71.59 205.077 71.32C205.227 71.05 205.302 70.759 205.302 70.447V70.267ZM205.401 70.267H206.058V70.447C206.058 70.759 206.133 71.05 206.283 71.32C206.433 71.59 206.64 71.833 206.904 72.049C207.174 72.265 207.483 72.445 207.831 72.589C208.185 72.733 208.56 72.838 208.956 72.904L208.668 73.489C208.23 73.417 207.813 73.297 207.417 73.129C207.027 72.955 206.679 72.739 206.373 72.481C206.073 72.217 205.836 71.917 205.662 71.581C205.488 71.239 205.401 70.861 205.401 70.447V70.267ZM202.683 69.844H208.677V70.456H202.683V69.844ZM205.311 68.728H206.049V70.069H205.311V68.728ZM210.647 69.448H214.319V70.06H210.647V69.448ZM211.916 71.779H212.654V74.533H211.916V71.779ZM214.013 69.448H214.751V69.889C214.751 70.219 214.739 70.651 214.715 71.185C214.697 71.719 214.631 72.364 214.517 73.12L213.779 73.057C213.899 72.319 213.968 71.689 213.986 71.167C214.004 70.645 214.013 70.219 214.013 69.889V69.448ZM215.768 68.557H216.515V76.702H215.768V68.557ZM216.308 71.959H217.811V72.598H216.308V71.959ZM210.287 74.92L210.197 74.299C210.683 74.293 211.214 74.287 211.79 74.281C212.372 74.269 212.96 74.245 213.554 74.209C214.154 74.173 214.727 74.122 215.273 74.056L215.318 74.614C214.754 74.704 214.175 74.77 213.581 74.812C212.993 74.854 212.417 74.884 211.853 74.902C211.289 74.914 210.767 74.92 210.287 74.92Z" fill="black"/>
<path d="M258.343 70H253.531C252.203 70 251.125 70.8954 251.125 72V76C251.125 77.1046 252.203 78 253.531 78H258.343C259.672 78 260.749 77.1046 260.749 76V72C260.749 70.8954 259.672 70 258.343 70Z" fill="#EF4444"/>
<path d="M266.638 76.0895C266.216 76.0895 265.84 76.017 265.51 75.8722C265.182 75.7273 264.921 75.5259 264.727 75.2681C264.535 75.0082 264.431 74.7067 264.414 74.3636H265.219C265.236 74.5746 265.309 74.7567 265.437 74.9102C265.564 75.0614 265.732 75.1786 265.938 75.2617C266.145 75.3448 266.374 75.3864 266.626 75.3864C266.907 75.3864 267.156 75.3374 267.373 75.2393C267.591 75.1413 267.761 75.005 267.885 74.8303C268.008 74.6555 268.07 74.4531 268.07 74.223C268.07 73.9822 268.01 73.7702 267.891 73.587C267.772 73.4016 267.597 73.2567 267.367 73.1523C267.137 73.0479 266.856 72.9957 266.523 72.9957H265.999V72.2926H266.523C266.783 72.2926 267.011 72.2457 267.207 72.152C267.405 72.0582 267.56 71.9261 267.671 71.7557C267.784 71.5852 267.84 71.3849 267.84 71.1548C267.84 70.9332 267.791 70.7404 267.693 70.5763C267.595 70.4123 267.456 70.2844 267.277 70.1928C267.101 70.1012 266.892 70.0554 266.651 70.0554C266.425 70.0554 266.212 70.0969 266.012 70.18C265.814 70.261 265.652 70.3793 265.526 70.5348C265.4 70.6882 265.332 70.8736 265.322 71.0909H264.554C264.567 70.7479 264.671 70.4474 264.864 70.1896C265.058 69.9297 265.312 69.7273 265.625 69.5824C265.94 69.4375 266.287 69.3651 266.664 69.3651C267.069 69.3651 267.416 69.4471 267.706 69.6112C267.996 69.7731 268.218 69.9872 268.374 70.2536C268.529 70.5199 268.607 70.8075 268.607 71.1165C268.607 71.4851 268.51 71.7994 268.316 72.0593C268.124 72.3192 267.863 72.4993 267.533 72.5994V72.6506C267.947 72.7187 268.269 72.8945 268.502 73.1779C268.734 73.4592 268.85 73.8075 268.85 74.223C268.85 74.5788 268.753 74.8984 268.559 75.1818C268.367 75.4631 268.105 75.6847 267.773 75.8466C267.44 76.0085 267.062 76.0895 266.638 76.0895ZM271.91 70.492H272.504V71.194C272.504 71.62 272.447 72.037 272.333 72.445C272.225 72.847 272.069 73.222 271.865 73.57C271.667 73.918 271.433 74.227 271.163 74.497C270.893 74.761 270.596 74.971 270.272 75.127L269.849 74.551C270.149 74.407 270.425 74.218 270.677 73.984C270.929 73.75 271.145 73.483 271.325 73.183C271.511 72.883 271.655 72.565 271.757 72.229C271.859 71.887 271.91 71.542 271.91 71.194V70.492ZM272.054 70.492H272.639V71.194C272.639 71.518 272.687 71.842 272.783 72.166C272.885 72.484 273.023 72.787 273.197 73.075C273.371 73.357 273.578 73.615 273.818 73.849C274.064 74.077 274.334 74.263 274.628 74.407L274.205 74.974C273.887 74.818 273.596 74.611 273.332 74.353C273.074 74.089 272.849 73.792 272.657 73.462C272.465 73.126 272.315 72.766 272.207 72.382C272.105 71.992 272.054 71.596 272.054 71.194V70.492ZM270.074 69.97H274.448V70.573H270.074V69.97ZM271.901 68.71H272.648V70.303H271.901V68.71ZM275.438 68.557H276.185V76.702H275.438V68.557ZM276.014 71.896H277.517V72.526H276.014V71.896ZM286.671 68.557H287.418V76.702H286.671V68.557ZM284.286 69.439H285.024C285.024 70.027 284.952 70.594 284.808 71.14C284.67 71.686 284.451 72.205 284.151 72.697C283.851 73.183 283.461 73.636 282.981 74.056C282.501 74.476 281.919 74.851 281.235 75.181L280.839 74.578C281.625 74.2 282.273 73.759 282.783 73.255C283.293 72.751 283.671 72.19 283.917 71.572C284.163 70.948 284.286 70.276 284.286 69.556V69.439ZM281.217 69.439H284.601V70.042H281.217V69.439ZM292.214 69.331H292.871V69.574C292.871 69.916 292.787 70.231 292.619 70.519C292.451 70.807 292.22 71.065 291.926 71.293C291.638 71.515 291.305 71.701 290.927 71.851C290.555 71.995 290.159 72.097 289.739 72.157L289.46 71.563C289.748 71.521 290.027 71.458 290.297 71.374C290.573 71.29 290.825 71.188 291.053 71.068C291.281 70.942 291.482 70.801 291.656 70.645C291.83 70.489 291.965 70.321 292.061 70.141C292.163 69.961 292.214 69.772 292.214 69.574V69.331ZM292.52 69.331H293.177V69.574C293.177 69.766 293.225 69.952 293.321 70.132C293.423 70.312 293.561 70.483 293.735 70.645C293.909 70.801 294.11 70.942 294.338 71.068C294.572 71.188 294.824 71.29 295.094 71.374C295.364 71.458 295.643 71.521 295.931 71.563L295.652 72.157C295.238 72.097 294.842 71.995 294.464 71.851C294.086 71.701 293.753 71.515 293.465 71.293C293.177 71.065 292.946 70.807 292.772 70.519C292.604 70.231 292.52 69.916 292.52 69.574V69.331ZM289.694 68.962H295.706V69.565H289.694V68.962ZM289.01 72.742H296.39V73.354H289.01V72.742ZM292.376 73.129H293.123V75.001H292.376V73.129ZM289.946 75.91H295.571V76.522H289.946V75.91ZM289.946 74.209H290.693V76.135H289.946V74.209ZM297.299 75.055H304.679V75.676H297.299V75.055ZM300.611 73.21H301.349V75.388H300.611V73.21ZM300.602 70.267H301.268V70.447C301.268 70.861 301.181 71.239 301.007 71.581C300.833 71.917 300.593 72.217 300.287 72.481C299.981 72.739 299.633 72.955 299.243 73.129C298.853 73.297 298.436 73.417 297.992 73.489L297.704 72.904C298.1 72.838 298.472 72.733 298.82 72.589C299.174 72.445 299.483 72.265 299.747 72.049C300.017 71.833 300.227 71.59 300.377 71.32C300.527 71.05 300.602 70.759 300.602 70.447V70.267ZM300.701 70.267H301.358V70.447C301.358 70.759 301.433 71.05 301.583 71.32C301.733 71.59 301.94 71.833 302.204 72.049C302.474 72.265 302.783 72.445 303.131 72.589C303.485 72.733 303.86 72.838 304.256 72.904L303.968 73.489C303.53 73.417 303.113 73.297 302.717 73.129C302.327 72.955 301.979 72.739 301.673 72.481C301.373 72.217 301.136 71.917 300.962 71.581C300.788 71.239 300.701 70.861 300.701 70.447V70.267ZM297.983 69.844H303.977V70.456H297.983V69.844ZM300.611 68.728H301.349V70.069H300.611V68.728ZM305.947 69.448H309.619V70.06H305.947V69.448ZM307.216 71.779H307.954V74.533H307.216V71.779ZM309.313 69.448H310.051V69.889C310.051 70.219 310.039 70.651 310.015 71.185C309.997 71.719 309.931 72.364 309.817 73.12L309.079 73.057C309.199 72.319 309.268 71.689 309.286 71.167C309.304 70.645 309.313 70.219 309.313 69.889V69.448ZM311.068 68.557H311.815V76.702H311.068V68.557ZM311.608 71.959H313.111V72.598H311.608V71.959ZM305.587 74.92L305.497 74.299C305.983 74.293 306.514 74.287 307.09 74.281C307.672 74.269 308.26 74.245 308.854 74.209C309.454 74.173 310.027 74.122 310.573 74.056L310.618 74.614C310.054 74.704 309.475 74.77 308.881 74.812C308.293 74.854 307.717 74.884 307.153 74.902C306.589 74.914 306.067 74.92 305.587 74.92Z" fill="black"/>
</g>
<defs>
<clipPath id="clip0_68_135">
<rect width="326" height="97" fill="white"/>
</clipPath>
</defs>
</svg>
