<svg width="869" height="372" viewBox="0 0 869 372" fill="none" xmlns="http://www.w3.org/2000/svg">
<path d="M869 0H0V372H869V0Z" fill="#F5F6F8"/>
<path d="M46.497 38.342H51.315V41.873H46.497V38.342ZM56.199 31.379H60.39V54.215H56.199V31.379ZM50.127 31.874H54.219V53.324H50.127V31.874ZM39.798 57.878H61.149V61.409H39.798V57.878ZM39.798 51.575H44.22V60.089H39.798V51.575ZM39.732 33.392H43.164V37.319C43.164 39.123 42.922 40.872 42.438 42.566C41.976 44.26 41.239 45.789 40.227 47.153C39.237 48.495 37.928 49.551 36.3 50.321L33.924 46.955C35.332 46.273 36.454 45.415 37.29 44.381C38.148 43.347 38.764 42.214 39.138 40.982C39.534 39.75 39.732 38.529 39.732 37.319V33.392ZM40.59 33.392H43.956V37.319C43.956 38.507 44.132 39.662 44.484 40.784C44.836 41.906 45.397 42.94 46.167 43.886C46.959 44.81 47.982 45.591 49.236 46.229L46.86 49.562C45.364 48.836 44.154 47.846 43.23 46.592C42.306 45.338 41.635 43.919 41.217 42.335C40.799 40.729 40.59 39.057 40.59 37.319V33.392ZM80.1214 40.916H88.1734V44.447H80.1214V40.916ZM71.8054 33.689H75.3364V38.144C75.3364 40.058 75.1714 41.917 74.8414 43.721C74.5114 45.525 74.0054 47.208 73.3234 48.77C72.6414 50.332 71.7724 51.707 70.7164 52.895C69.6824 54.083 68.4504 55.04 67.0204 55.766L64.2814 52.268C65.5794 51.652 66.6904 50.849 67.6144 49.859C68.5604 48.869 69.3414 47.747 69.9574 46.493C70.5954 45.217 71.0574 43.875 71.3434 42.467C71.6514 41.037 71.8054 39.596 71.8054 38.144V33.689ZM72.6964 33.689H76.1944V38.144C76.1944 39.574 76.3374 40.993 76.6234 42.401C76.9094 43.787 77.3384 45.085 77.9104 46.295C78.5044 47.505 79.2634 48.583 80.1874 49.529C81.1114 50.453 82.2114 51.201 83.4874 51.773L80.8474 55.271C79.4174 54.567 78.1854 53.643 77.1514 52.499C76.1174 51.333 75.2704 50.002 74.6104 48.506C73.9724 47.01 73.4884 45.382 73.1584 43.622C72.8504 41.862 72.6964 40.036 72.6964 38.144V33.689ZM85.9624 31.313H90.3514V61.97H85.9624V31.313ZM116.221 31.379H120.643V54.644H116.221V31.379ZM112.261 38.969H117.871V42.467H112.261V38.969ZM112.261 45.503H117.871V49.001H112.261V45.503ZM95.1338 34.58H111.931V38.012H95.1338V34.58ZM103.714 39.101C105.122 39.101 106.365 39.354 107.443 39.86C108.521 40.366 109.368 41.07 109.984 41.972C110.6 42.874 110.908 43.919 110.908 45.107C110.908 46.273 110.6 47.307 109.984 48.209C109.368 49.111 108.521 49.826 107.443 50.354C106.365 50.86 105.122 51.113 103.714 51.113C102.35 51.113 101.118 50.86 100.018 50.354C98.9398 49.826 98.0928 49.111 97.4768 48.209C96.8608 47.307 96.5528 46.273 96.5528 45.107C96.5528 43.919 96.8608 42.874 97.4768 41.972C98.0928 41.07 98.9398 40.366 100.018 39.86C101.118 39.354 102.35 39.101 103.714 39.101ZM103.747 42.467C102.845 42.467 102.108 42.698 101.536 43.16C100.986 43.6 100.711 44.249 100.711 45.107C100.711 45.943 100.986 46.592 101.536 47.054C102.108 47.516 102.845 47.747 103.747 47.747C104.627 47.747 105.353 47.516 105.925 47.054C106.497 46.592 106.783 45.943 106.783 45.107C106.783 44.249 106.497 43.6 105.925 43.16C105.353 42.698 104.627 42.467 103.747 42.467ZM101.536 31.28H105.958V36.692H101.536V31.28ZM100.414 57.878H121.303V61.409H100.414V57.878ZM100.414 52.73H104.803V59.528H100.414V52.73ZM145.258 31.379H149.647V52.004H145.258V31.379ZM148.129 40.025H153.508V43.622H148.129V40.025ZM139.417 52.301C142.717 52.301 145.28 52.719 147.106 53.555C148.932 54.369 149.845 55.557 149.845 57.119C149.845 58.703 148.932 59.902 147.106 60.716C145.28 61.552 142.717 61.97 139.417 61.97C136.139 61.97 133.587 61.552 131.761 60.716C129.935 59.902 129.022 58.714 129.022 57.152C129.022 55.568 129.935 54.369 131.761 53.555C133.587 52.719 136.139 52.301 139.417 52.301ZM139.417 55.469C137.371 55.469 135.864 55.601 134.896 55.865C133.928 56.129 133.444 56.547 133.444 57.119C133.444 57.713 133.928 58.142 134.896 58.406C135.864 58.67 137.371 58.802 139.417 58.802C141.485 58.802 143.003 58.67 143.971 58.406C144.939 58.142 145.423 57.713 145.423 57.119C145.423 56.547 144.939 56.129 143.971 55.865C143.003 55.601 141.485 55.469 139.417 55.469ZM132.322 44.843H136.711V49.298H132.322V44.843ZM125.557 51.212L125.062 47.912C126.888 47.912 128.857 47.901 130.969 47.879C133.103 47.835 135.281 47.758 137.503 47.648C139.725 47.516 141.87 47.318 143.938 47.054L144.235 49.991C142.101 50.365 139.934 50.64 137.734 50.816C135.534 50.992 133.389 51.102 131.299 51.146C129.231 51.19 127.317 51.212 125.557 51.212ZM125.821 33.557H143.179V36.692H125.821V33.557ZM134.5 37.451C136.766 37.451 138.57 37.847 139.912 38.639C141.276 39.409 141.958 40.476 141.958 41.84C141.958 43.182 141.276 44.249 139.912 45.041C138.57 45.811 136.777 46.196 134.533 46.196C132.267 46.196 130.452 45.811 129.088 45.041C127.746 44.249 127.075 43.182 127.075 41.84C127.075 40.476 127.746 39.409 129.088 38.639C130.452 37.847 132.256 37.451 134.5 37.451ZM134.5 40.289C133.466 40.289 132.663 40.421 132.091 40.685C131.519 40.949 131.233 41.334 131.233 41.84C131.233 42.346 131.519 42.731 132.091 42.995C132.663 43.237 133.466 43.358 134.5 43.358C135.556 43.358 136.37 43.237 136.942 42.995C137.514 42.731 137.8 42.346 137.8 41.84C137.8 41.334 137.514 40.949 136.942 40.685C136.37 40.421 135.556 40.289 134.5 40.289ZM132.322 31.148H136.711V34.91H132.322V31.148Z" fill="black"/>
<path d="M474 43H464C462.343 43 461 44.3431 461 46V56C461 57.6569 462.343 59 464 59H474C475.657 59 477 57.6569 477 56V46C477 44.3431 475.657 43 474 43Z" fill="#4C5BD4"/>
<path d="M509.666 47.164H513.122V48.712H509.666V47.164ZM512.564 43.042H514.454V52.834H512.564V43.042ZM508.982 53.266C510.134 53.266 511.118 53.392 511.934 53.644C512.762 53.884 513.398 54.238 513.842 54.706C514.298 55.162 514.526 55.72 514.526 56.38C514.526 57.364 514.028 58.126 513.032 58.666C512.048 59.206 510.698 59.476 508.982 59.476C507.266 59.476 505.91 59.206 504.914 58.666C503.918 58.126 503.42 57.364 503.42 56.38C503.42 55.72 503.642 55.162 504.086 54.706C504.542 54.238 505.184 53.884 506.012 53.644C506.852 53.392 507.842 53.266 508.982 53.266ZM508.982 54.706C508.202 54.706 507.536 54.772 506.984 54.904C506.444 55.036 506.03 55.222 505.742 55.462C505.454 55.702 505.31 56.008 505.31 56.38C505.31 56.728 505.454 57.028 505.742 57.28C506.03 57.532 506.444 57.724 506.984 57.856C507.536 57.976 508.202 58.036 508.982 58.036C509.762 58.036 510.422 57.976 510.962 57.856C511.502 57.724 511.916 57.532 512.204 57.28C512.504 57.028 512.654 56.728 512.654 56.38C512.654 56.008 512.504 55.702 512.204 55.462C511.916 55.222 511.502 55.036 510.962 54.904C510.422 54.772 509.762 54.706 508.982 54.706ZM504.842 44.698H506.39V45.886C506.39 46.918 506.204 47.89 505.832 48.802C505.472 49.702 504.95 50.5 504.266 51.196C503.582 51.88 502.754 52.396 501.782 52.744L500.828 51.25C501.464 51.022 502.028 50.722 502.52 50.35C503.024 49.978 503.45 49.552 503.798 49.072C504.146 48.592 504.404 48.082 504.572 47.542C504.752 47.002 504.842 46.45 504.842 45.886V44.698ZM505.22 44.698H506.75V45.886C506.75 46.558 506.9 47.218 507.2 47.866C507.5 48.514 507.938 49.096 508.514 49.612C509.09 50.116 509.792 50.518 510.62 50.818L509.684 52.294C508.736 51.958 507.926 51.472 507.254 50.836C506.594 50.188 506.09 49.438 505.742 48.586C505.394 47.722 505.22 46.822 505.22 45.886V44.698ZM501.368 44.14H510.17V45.67H501.368V44.14ZM521.203 43.906H522.769V45.49C522.769 46.558 522.589 47.56 522.229 48.496C521.881 49.42 521.365 50.23 520.681 50.926C520.009 51.622 519.193 52.144 518.233 52.492L517.225 50.998C518.089 50.698 518.815 50.266 519.403 49.702C520.003 49.138 520.453 48.496 520.753 47.776C521.053 47.044 521.203 46.282 521.203 45.49V43.906ZM521.581 43.906H523.111V45.652C523.111 46.18 523.195 46.696 523.363 47.2C523.531 47.692 523.777 48.16 524.101 48.604C524.437 49.036 524.845 49.42 525.325 49.756C525.805 50.092 526.351 50.362 526.963 50.566L525.973 52.042C525.049 51.706 524.257 51.22 523.597 50.584C522.949 49.948 522.451 49.21 522.103 48.37C521.755 47.518 521.581 46.612 521.581 45.652V43.906ZM528.349 43.042H530.221V52.906H528.349V43.042ZM529.717 47.092H532.543V48.658H529.717V47.092ZM524.929 53.32C526.069 53.32 527.041 53.44 527.845 53.68C528.661 53.92 529.291 54.274 529.735 54.742C530.179 55.198 530.401 55.75 530.401 56.398C530.401 57.034 530.179 57.58 529.735 58.036C529.291 58.504 528.661 58.858 527.845 59.098C527.041 59.338 526.069 59.458 524.929 59.458C523.801 59.458 522.823 59.338 521.995 59.098C521.179 58.858 520.549 58.504 520.105 58.036C519.673 57.58 519.457 57.034 519.457 56.398C519.457 55.75 519.673 55.198 520.105 54.742C520.549 54.274 521.179 53.92 521.995 53.68C522.823 53.44 523.801 53.32 524.929 53.32ZM524.929 54.796C524.173 54.796 523.525 54.856 522.985 54.976C522.445 55.096 522.031 55.276 521.743 55.516C521.455 55.756 521.311 56.05 521.311 56.398C521.311 56.734 521.455 57.022 521.743 57.262C522.031 57.502 522.445 57.688 522.985 57.82C523.525 57.94 524.173 58 524.929 58C525.697 58 526.345 57.94 526.873 57.82C527.413 57.688 527.827 57.502 528.115 57.262C528.403 57.022 528.547 56.734 528.547 56.398C528.547 56.05 528.403 55.756 528.115 55.516C527.827 55.276 527.413 55.096 526.873 54.976C526.345 54.856 525.697 54.796 524.929 54.796Z" fill="black"/>
<path d="M570 43H560C558.343 43 557 44.3431 557 46V56C557 57.6569 558.343 59 560 59H570C571.657 59 573 57.6569 573 56V46C573 44.3431 571.657 43 570 43Z" fill="#2CA87F"/>
<path d="M603.2 44.752H604.838V45.346C604.838 45.934 604.73 46.492 604.514 47.02C604.31 47.536 604.01 48.022 603.614 48.478C603.218 48.922 602.75 49.318 602.21 49.666C601.682 50.014 601.088 50.308 600.428 50.548C599.78 50.788 599.084 50.968 598.34 51.088L597.638 49.594C598.286 49.51 598.886 49.372 599.438 49.18C600.002 48.988 600.512 48.754 600.968 48.478C601.436 48.202 601.832 47.896 602.156 47.56C602.492 47.224 602.75 46.87 602.93 46.498C603.11 46.126 603.2 45.742 603.2 45.346V44.752ZM603.704 44.752H605.342V45.346C605.342 45.742 605.426 46.126 605.594 46.498C605.774 46.87 606.032 47.224 606.368 47.56C606.704 47.896 607.1 48.202 607.556 48.478C608.012 48.754 608.522 48.988 609.086 49.18C609.65 49.372 610.256 49.51 610.904 49.594L610.202 51.088C609.458 50.968 608.756 50.788 608.096 50.548C607.448 50.308 606.854 50.014 606.314 49.666C605.774 49.318 605.306 48.922 604.91 48.478C604.526 48.022 604.226 47.536 604.01 47.02C603.806 46.492 603.704 45.934 603.704 45.346V44.752ZM603.29 53.32H605.162V59.476H603.29V53.32ZM596.828 52.276H611.696V53.806H596.828V52.276ZM598.196 43.978H610.31V45.472H598.196V43.978ZM618.697 44.176C619.561 44.176 620.329 44.344 621.001 44.68C621.673 45.016 622.201 45.484 622.585 46.084C622.969 46.672 623.161 47.356 623.161 48.136C623.161 48.904 622.969 49.588 622.585 50.188C622.201 50.788 621.673 51.256 621.001 51.592C620.329 51.928 619.561 52.096 618.697 52.096C617.845 52.096 617.083 51.928 616.411 51.592C615.739 51.256 615.205 50.788 614.809 50.188C614.425 49.588 614.233 48.904 614.233 48.136C614.233 47.356 614.425 46.672 614.809 46.084C615.205 45.484 615.739 45.016 616.411 44.68C617.083 44.344 617.845 44.176 618.697 44.176ZM618.697 45.814C618.205 45.814 617.755 45.91 617.347 46.102C616.951 46.282 616.639 46.546 616.411 46.894C616.183 47.242 616.069 47.656 616.069 48.136C616.069 48.604 616.183 49.018 616.411 49.378C616.639 49.726 616.951 49.996 617.347 50.188C617.755 50.38 618.205 50.476 618.697 50.476C619.201 50.476 619.645 50.38 620.029 50.188C620.425 49.996 620.737 49.726 620.965 49.378C621.193 49.018 621.307 48.604 621.307 48.136C621.307 47.656 621.193 47.242 620.965 46.894C620.737 46.546 620.425 46.282 620.029 46.102C619.645 45.91 619.201 45.814 618.697 45.814ZM625.033 43.024H626.923V59.512H625.033V43.024ZM613.711 56.02L613.459 54.472C614.455 54.472 615.547 54.466 616.735 54.454C617.923 54.43 619.141 54.382 620.389 54.31C621.649 54.226 622.867 54.094 624.043 53.914L624.187 55.3C622.975 55.528 621.745 55.696 620.497 55.804C619.261 55.9 618.061 55.96 616.897 55.984C615.733 56.008 614.671 56.02 613.711 56.02Z" fill="black"/>
<path d="M666 43H656C654.343 43 653 44.3431 653 46V56C653 57.6569 654.343 59 656 59H666C667.657 59 669 57.6569 669 56V46C669 44.3431 667.657 43 666 43Z" fill="#F39C12"/>
<path d="M700.73 45.868H704.888V47.38H700.73V45.868ZM700.586 49.288H704.762V50.818H700.586V49.288ZM704.564 43.042H706.454V52.708H704.564V43.042ZM699.326 44.212H701.342C701.342 45.652 701.048 46.942 700.46 48.082C699.872 49.21 699.008 50.176 697.868 50.98C696.74 51.784 695.366 52.42 693.746 52.888L693.008 51.394C694.4 50.998 695.564 50.494 696.5 49.882C697.448 49.258 698.156 48.544 698.624 47.74C699.092 46.924 699.326 46.042 699.326 45.094V44.212ZM693.872 44.212H700.64V45.742H693.872V44.212ZM701.072 52.906C702.188 52.906 703.154 53.038 703.97 53.302C704.786 53.566 705.416 53.938 705.86 54.418C706.316 54.898 706.544 55.474 706.544 56.146C706.544 56.818 706.316 57.4 705.86 57.892C705.416 58.372 704.786 58.744 703.97 59.008C703.154 59.272 702.188 59.404 701.072 59.404C699.968 59.404 699.002 59.272 698.174 59.008C697.346 58.744 696.704 58.372 696.248 57.892C695.792 57.4 695.564 56.818 695.564 56.146C695.564 55.474 695.792 54.898 696.248 54.418C696.704 53.938 697.346 53.566 698.174 53.302C699.002 53.038 699.968 52.906 701.072 52.906ZM701.072 54.382C700.328 54.382 699.68 54.454 699.128 54.598C698.588 54.73 698.168 54.928 697.868 55.192C697.58 55.456 697.436 55.774 697.436 56.146C697.436 56.53 697.58 56.854 697.868 57.118C698.168 57.382 698.588 57.586 699.128 57.73C699.68 57.862 700.328 57.928 701.072 57.928C701.816 57.928 702.458 57.862 702.998 57.73C703.538 57.586 703.952 57.382 704.24 57.118C704.54 56.854 704.69 56.53 704.69 56.146C704.69 55.774 704.54 55.456 704.24 55.192C703.952 54.928 703.538 54.73 702.998 54.598C702.458 54.454 701.816 54.382 701.072 54.382ZM710.935 44.572H721.447V46.102H710.935V44.572ZM709.387 55.786H724.255V57.334H709.387V55.786ZM714.931 50.008H716.821V56.542H714.931V50.008ZM720.763 44.572H722.635V46.174C722.635 46.858 722.629 47.578 722.617 48.334C722.605 49.09 722.557 49.924 722.473 50.836C722.389 51.748 722.239 52.774 722.023 53.914L720.133 53.698C720.445 52.09 720.625 50.68 720.673 49.468C720.733 48.256 720.763 47.158 720.763 46.174V44.572Z" fill="black"/>
<path d="M762 43H752C750.343 43 749 44.3431 749 46V56C749 57.6569 750.343 59 752 59H762C763.657 59 765 57.6569 765 56V46C765 44.3431 763.657 43 762 43Z" fill="#E74C3C"/>
<path d="M794.174 43.744C795.002 43.744 795.734 43.894 796.37 44.194C797.018 44.482 797.522 44.884 797.882 45.4C798.254 45.916 798.44 46.516 798.44 47.2C798.44 47.872 798.254 48.466 797.882 48.982C797.522 49.498 797.018 49.906 796.37 50.206C795.734 50.494 795.002 50.638 794.174 50.638C793.358 50.638 792.632 50.494 791.996 50.206C791.36 49.906 790.856 49.498 790.484 48.982C790.124 48.466 789.944 47.872 789.944 47.2C789.944 46.516 790.124 45.916 790.484 45.4C790.856 44.884 791.36 44.482 791.996 44.194C792.632 43.894 793.358 43.744 794.174 43.744ZM794.174 45.292C793.706 45.292 793.286 45.37 792.914 45.526C792.554 45.682 792.266 45.904 792.05 46.192C791.846 46.468 791.744 46.804 791.744 47.2C791.744 47.584 791.846 47.92 792.05 48.208C792.266 48.484 792.554 48.7 792.914 48.856C793.286 49.012 793.706 49.09 794.174 49.09C794.654 49.09 795.074 49.012 795.434 48.856C795.806 48.7 796.094 48.484 796.298 48.208C796.514 47.92 796.622 47.584 796.622 47.2C796.622 46.804 796.514 46.468 796.298 46.192C796.094 45.904 795.806 45.682 795.434 45.526C795.074 45.37 794.654 45.292 794.174 45.292ZM793.31 52.384H795.218V58.972H793.31V52.384ZM800.564 43.042H802.436V59.494H800.564V43.042ZM789.062 53.392L788.828 51.844C789.824 51.844 790.922 51.832 792.122 51.808C793.322 51.784 794.552 51.73 795.812 51.646C797.084 51.562 798.308 51.43 799.484 51.25L799.61 52.654C798.41 52.882 797.18 53.05 795.92 53.158C794.672 53.266 793.46 53.332 792.284 53.356C791.12 53.38 790.046 53.392 789.062 53.392ZM817.123 43.042H819.013V52.978H817.123V43.042ZM814.693 47.938H817.933V49.486H814.693V47.938ZM808.213 53.77H819.013V59.278H808.213V53.77ZM817.177 55.282H810.067V57.784H817.177V55.282ZM805.423 44.626H814.981V46.12H805.423V44.626ZM810.193 46.84C810.949 46.84 811.615 46.966 812.191 47.218C812.779 47.458 813.235 47.8 813.559 48.244C813.895 48.688 814.063 49.198 814.063 49.774C814.063 50.362 813.895 50.878 813.559 51.322C813.235 51.754 812.779 52.096 812.191 52.348C811.615 52.588 810.949 52.708 810.193 52.708C809.449 52.708 808.783 52.588 808.195 52.348C807.619 52.096 807.163 51.754 806.827 51.322C806.503 50.878 806.341 50.362 806.341 49.774C806.341 49.198 806.503 48.688 806.827 48.244C807.163 47.8 807.619 47.458 808.195 47.218C808.783 46.966 809.449 46.84 810.193 46.84ZM810.211 48.244C809.803 48.244 809.443 48.31 809.131 48.442C808.819 48.562 808.573 48.736 808.393 48.964C808.225 49.192 808.141 49.462 808.141 49.774C808.141 50.086 808.225 50.362 808.393 50.602C808.573 50.83 808.819 51.004 809.131 51.124C809.443 51.244 809.797 51.304 810.193 51.304C810.601 51.304 810.961 51.244 811.273 51.124C811.585 51.004 811.825 50.83 811.993 50.602C812.173 50.362 812.263 50.086 812.263 49.774C812.263 49.462 812.173 49.192 811.993 48.964C811.825 48.736 811.585 48.562 811.273 48.442C810.961 48.31 810.607 48.244 810.211 48.244ZM809.257 42.88H811.147V45.688H809.257V42.88Z" fill="black"/>
<path d="M31 80H831" stroke="#DCDDE1" stroke-width="2"/>
<path d="M53.88 125.608H59.544V128.152H53.88V125.608ZM53.88 130.384H59.616V132.928H53.88V130.384ZM58.368 121.912H61.584V138.304H58.368V121.912ZM46.872 141.184H62.064V143.752H46.872V141.184ZM46.872 136.696H50.064V142.648H46.872V136.696ZM43.896 123.376H47.064V126.736H51.288V123.376H54.432V134.848H43.896V123.376ZM47.064 129.184V132.304H51.288V129.184H47.064ZM77.6141 126.784H81.6701V129.328H77.6141V126.784ZM77.5661 131.224H81.6221V133.744H77.5661V131.224ZM65.1101 123.88H77.3261V126.4H65.1101V123.88ZM71.3501 127.168C72.3741 127.168 73.2781 127.344 74.0621 127.696C74.8461 128.048 75.4621 128.536 75.9101 129.16C76.3581 129.784 76.5821 130.504 76.5821 131.32C76.5821 132.136 76.3581 132.864 75.9101 133.504C75.4621 134.128 74.8461 134.616 74.0621 134.968C73.2781 135.32 72.3741 135.496 71.3501 135.496C70.3421 135.496 69.4461 135.32 68.6621 134.968C67.8781 134.616 67.2621 134.128 66.8141 133.504C66.3661 132.864 66.1421 132.136 66.1421 131.32C66.1421 130.504 66.3661 129.784 66.8141 129.16C67.2621 128.536 67.8781 128.048 68.6621 127.696C69.4461 127.344 70.3421 127.168 71.3501 127.168ZM71.3501 129.544C70.6781 129.544 70.1341 129.696 69.7181 130C69.3181 130.304 69.1181 130.752 69.1181 131.344C69.1181 131.92 69.3181 132.36 69.7181 132.664C70.1341 132.968 70.6781 133.12 71.3501 133.12C72.0221 133.12 72.5661 132.968 72.9821 132.664C73.3981 132.36 73.6061 131.92 73.6061 131.344C73.6061 130.752 73.3981 130.304 72.9821 130C72.5661 129.696 72.0221 129.544 71.3501 129.544ZM69.7661 121.72H72.9821V125.632H69.7661V121.72ZM80.4461 121.888H83.6621V136.072H80.4461V121.888ZM76.1261 136.336C77.6941 136.336 79.0461 136.488 80.1821 136.792C81.3181 137.096 82.1901 137.544 82.7981 138.136C83.4221 138.712 83.7341 139.408 83.7341 140.224C83.7341 141.04 83.4221 141.736 82.7981 142.312C82.1901 142.904 81.3181 143.352 80.1821 143.656C79.0461 143.976 77.6941 144.136 76.1261 144.136C74.5741 144.136 73.2301 143.976 72.0941 143.656C70.9581 143.352 70.0781 142.904 69.4541 142.312C68.8301 141.736 68.5181 141.04 68.5181 140.224C68.5181 139.408 68.8301 138.712 69.4541 138.136C70.0781 137.544 70.9581 137.096 72.0941 136.792C73.2301 136.488 74.5741 136.336 76.1261 136.336ZM76.1501 138.76C74.7741 138.76 73.7181 138.88 72.9821 139.12C72.2621 139.344 71.9021 139.712 71.9021 140.224C71.9021 140.736 72.2621 141.112 72.9821 141.352C73.7181 141.592 74.7741 141.712 76.1501 141.712C77.4941 141.712 78.5341 141.592 79.2701 141.352C80.0061 141.112 80.3741 140.736 80.3741 140.224C80.3741 139.712 80.0061 139.344 79.2701 139.12C78.5341 138.88 77.4941 138.76 76.1501 138.76ZM87.1403 131.728H107.252V134.032H87.1403V131.728ZM89.3963 135.328H104.876V140.608H92.5883V142.504H89.4203V138.592H101.732V137.488H89.3963V135.328ZM89.4203 141.832H105.5V143.992H89.4203V141.832ZM89.5883 122.248H104.804V127.48H92.7803V129.304H89.6363V125.488H101.66V124.408H89.5883V122.248ZM89.6363 128.584H105.212V130.744H89.6363V128.584ZM92.0603 132.52H95.2283V136.696H92.0603V132.52ZM99.1403 132.52H102.308V136.696H99.1403V132.52ZM117.786 127.768H122.274V130.288H117.786V127.768ZM117.666 133.312H122.202V135.856H117.666V133.312ZM125.298 121.888H128.346V144.112H125.298V121.888ZM120.738 122.368H123.714V143.128H120.738V122.368ZM115.722 124.504H118.77C118.77 126.616 118.522 128.584 118.026 130.408C117.546 132.216 116.714 133.88 115.53 135.4C114.362 136.92 112.746 138.288 110.682 139.504L108.882 137.272C110.562 136.264 111.898 135.168 112.89 133.984C113.898 132.784 114.618 131.464 115.05 130.024C115.498 128.568 115.722 126.944 115.722 125.152V124.504ZM110.154 124.504H116.778V127.072H110.154V124.504Z" fill="black"/>
<path d="M781 115H201C189.954 115 181 123.954 181 135C181 146.046 189.954 155 201 155H781C792.046 155 801 146.046 801 135C801 123.954 792.046 115 781 115Z" fill="#E1E4EA"/>
<path d="M661 115H201C189.954 115 181 123.954 181 135C181 146.046 189.954 155 201 155H661C672.046 155 681 146.046 681 135C681 123.954 672.046 115 661 115Z" fill="#4C5BD4"/>
<path d="M424.053 129.364V141H421.592V131.699H421.524L418.859 133.369V131.188L421.74 129.364H424.053ZM426.818 141V139.227L430.96 135.392C431.313 135.051 431.608 134.744 431.847 134.472C432.089 134.199 432.273 133.932 432.398 133.67C432.523 133.405 432.585 133.119 432.585 132.812C432.585 132.472 432.508 132.178 432.352 131.932C432.197 131.682 431.985 131.491 431.716 131.358C431.447 131.222 431.142 131.153 430.801 131.153C430.445 131.153 430.134 131.225 429.869 131.369C429.604 131.513 429.4 131.72 429.256 131.989C429.112 132.258 429.04 132.578 429.04 132.949H426.705C426.705 132.187 426.877 131.527 427.222 130.966C427.566 130.405 428.049 129.972 428.67 129.665C429.292 129.358 430.008 129.205 430.818 129.205C431.652 129.205 432.377 129.352 432.994 129.648C433.616 129.939 434.098 130.345 434.443 130.864C434.788 131.383 434.96 131.977 434.96 132.648C434.96 133.087 434.873 133.521 434.699 133.949C434.528 134.377 434.223 134.852 433.784 135.375C433.345 135.894 432.725 136.517 431.926 137.244L430.227 138.909V138.989H435.114V141H426.818Z" fill="white"/>
<path d="M741 115H681V155H741V115Z" fill="#2CA87F"/>
<path d="M709.592 129.364V141H707.131V131.699H707.063L704.398 133.369V131.188L707.279 129.364H709.592Z" fill="white"/>
<path d="M779 115H741V155H779V115Z" fill="#E74C3C"/>
<path d="M769.592 129.364V141H767.131V131.699H767.063L764.398 133.369V131.188L767.279 129.364H769.592Z" fill="white"/>
<path d="M48.336 207.416H50.88V209.912C50.88 211.192 50.744 212.448 50.472 213.68C50.216 214.912 49.824 216.072 49.296 217.16C48.784 218.232 48.136 219.184 47.352 220.016C46.568 220.832 45.656 221.48 44.616 221.96L42.792 219.44C43.72 219.008 44.528 218.448 45.216 217.76C45.92 217.072 46.496 216.304 46.944 215.456C47.408 214.592 47.752 213.688 47.976 212.744C48.216 211.784 48.336 210.84 48.336 209.912V207.416ZM49.032 207.416H51.552V209.912C51.552 210.792 51.664 211.688 51.888 212.6C52.128 213.496 52.472 214.352 52.92 215.168C53.368 215.968 53.936 216.688 54.624 217.328C55.312 217.968 56.128 218.48 57.072 218.864L55.32 221.408C54.264 220.944 53.344 220.32 52.56 219.536C51.776 218.752 51.12 217.848 50.592 216.824C50.064 215.8 49.672 214.704 49.416 213.536C49.16 212.352 49.032 211.144 49.032 209.912V207.416ZM43.68 206.024H56.16V208.664H43.68V206.024ZM58.224 203.912H61.416V226.136H58.224V203.912ZM79.2941 203.912H82.4861V226.136H79.2941V203.912ZM81.7661 212.576H85.6781V215.216H81.7661V212.576ZM64.9421 207.176H77.9021V209.72H64.9421V207.176ZM71.4701 210.992C72.5421 210.992 73.5021 211.224 74.3501 211.688C75.1981 212.136 75.8621 212.752 76.3421 213.536C76.8381 214.32 77.0861 215.232 77.0861 216.272C77.0861 217.312 76.8381 218.232 76.3421 219.032C75.8621 219.816 75.1981 220.44 74.3501 220.904C73.5181 221.352 72.5581 221.576 71.4701 221.576C70.3981 221.576 69.4301 221.352 68.5661 220.904C67.7181 220.44 67.0461 219.816 66.5501 219.032C66.0701 218.232 65.8301 217.312 65.8301 216.272C65.8301 215.232 66.0701 214.32 66.5501 213.536C67.0461 212.752 67.7181 212.136 68.5661 211.688C69.4301 211.224 70.3981 210.992 71.4701 210.992ZM71.4701 213.584C70.9581 213.584 70.5101 213.688 70.1261 213.896C69.7421 214.104 69.4381 214.408 69.2141 214.808C68.9901 215.208 68.8781 215.696 68.8781 216.272C68.8781 216.832 68.9901 217.32 69.2141 217.736C69.4381 218.136 69.7421 218.448 70.1261 218.672C70.5101 218.88 70.9581 218.984 71.4701 218.984C71.9661 218.984 72.4061 218.88 72.7901 218.672C73.1741 218.448 73.4781 218.136 73.7021 217.736C73.9261 217.32 74.0381 216.832 74.0381 216.272C74.0381 215.696 73.9261 215.208 73.7021 214.808C73.4781 214.408 73.1741 214.104 72.7901 213.896C72.4061 213.688 71.9661 213.584 71.4701 213.584ZM69.8381 204.272H73.0541V208.16H69.8381V204.272ZM95.5163 204.536H98.3003V205.592C98.3003 206.44 98.1643 207.264 97.8923 208.064C97.6363 208.848 97.2523 209.584 96.7403 210.272C96.2283 210.96 95.6043 211.576 94.8683 212.12C94.1323 212.664 93.2763 213.128 92.3003 213.512C91.3403 213.88 90.2843 214.16 89.1323 214.352L87.8843 211.784C88.9083 211.656 89.8203 211.44 90.6203 211.136C91.4363 210.832 92.1483 210.472 92.7563 210.056C93.3803 209.64 93.8923 209.184 94.2923 208.688C94.6923 208.192 94.9963 207.68 95.2043 207.152C95.4123 206.624 95.5163 206.104 95.5163 205.592V204.536ZM96.1163 204.536H98.9003V205.592C98.9003 206.104 99.0043 206.624 99.2123 207.152C99.4203 207.68 99.7243 208.192 100.124 208.688C100.524 209.184 101.028 209.64 101.636 210.056C102.26 210.472 102.972 210.832 103.772 211.136C104.588 211.44 105.508 211.656 106.532 211.784L105.284 214.352C104.116 214.16 103.052 213.88 102.092 213.512C101.132 213.128 100.284 212.664 99.5483 212.12C98.8123 211.56 98.1883 210.936 97.6763 210.248C97.1643 209.56 96.7723 208.824 96.5003 208.04C96.2443 207.256 96.1163 206.44 96.1163 205.592V204.536ZM95.5163 217.976H98.7083V226.136H95.5163V217.976ZM87.1403 215.96H107.252V218.552H87.1403V215.96ZM116.418 204.776C117.538 204.776 118.538 204.984 119.418 205.4C120.298 205.8 120.986 206.36 121.482 207.08C121.994 207.784 122.25 208.6 122.25 209.528C122.25 210.456 121.994 211.28 121.482 212C120.986 212.704 120.298 213.264 119.418 213.68C118.538 214.08 117.538 214.28 116.418 214.28C115.298 214.28 114.298 214.08 113.418 213.68C112.538 213.264 111.842 212.704 111.33 212C110.834 211.28 110.586 210.456 110.586 209.528C110.586 208.6 110.834 207.784 111.33 207.08C111.842 206.36 112.538 205.8 113.418 205.4C114.298 204.984 115.298 204.776 116.418 204.776ZM116.418 207.368C115.89 207.368 115.418 207.456 115.002 207.632C114.586 207.792 114.258 208.032 114.018 208.352C113.778 208.672 113.658 209.064 113.658 209.528C113.658 209.992 113.778 210.384 114.018 210.704C114.258 211.008 114.586 211.248 115.002 211.424C115.418 211.584 115.89 211.664 116.418 211.664C116.962 211.664 117.442 211.584 117.858 211.424C118.274 211.248 118.602 211.008 118.842 210.704C119.082 210.384 119.202 209.992 119.202 209.528C119.202 209.064 119.082 208.672 118.842 208.352C118.602 208.032 118.274 207.792 117.858 207.632C117.442 207.456 116.962 207.368 116.418 207.368ZM114.906 216.512H118.122V225.44H114.906V216.512ZM124.626 203.888H127.818V226.112H124.626V203.888ZM109.65 218.192L109.29 215.6C110.57 215.6 112.002 215.592 113.586 215.576C115.186 215.544 116.826 215.472 118.506 215.36C120.186 215.248 121.81 215.072 123.378 214.832L123.57 217.16C121.97 217.48 120.346 217.712 118.698 217.856C117.05 218 115.45 218.088 113.898 218.12C112.346 218.152 110.93 218.176 109.65 218.192ZM139.865 209.768H144.353V212.288H139.865V209.768ZM139.745 215.312H144.281V217.856H139.745V215.312ZM147.377 203.888H150.425V226.112H147.377V203.888ZM142.817 204.368H145.793V225.128H142.817V204.368ZM137.801 206.504H140.849C140.849 208.616 140.601 210.584 140.105 212.408C139.625 214.216 138.793 215.88 137.609 217.4C136.441 218.92 134.825 220.288 132.761 221.504L130.961 219.272C132.64 218.264 133.977 217.168 134.969 215.984C135.977 214.784 136.697 213.464 137.129 212.024C137.577 210.568 137.801 208.944 137.801 207.152V206.504ZM132.233 206.504H138.857V209.072H132.233V206.504Z" fill="black"/>
<path d="M781 195H201C189.954 195 181 203.954 181 215C181 226.046 189.954 235 201 235H781C792.046 235 801 226.046 801 215C801 203.954 792.046 195 781 195Z" fill="#E1E4EA"/>
<path d="M781 195H201C189.954 195 181 203.954 181 215C181 226.046 189.954 235 201 235H781C792.046 235 801 226.046 801 215C801 203.954 792.046 195 781 195Z" fill="#E74C3C"/>
<path d="M486.845 217.955V216.017L491.703 208.364H493.374V211.045H492.385L489.322 215.892V215.983H496.226V217.955H486.845ZM492.43 220V217.364L492.476 216.506V208.364H494.783V220H492.43Z" fill="white"/>
<path d="M57.216 285.912H60.408V308.136H57.216V285.912ZM59.688 294.576H63.6V297.216H59.688V294.576ZM42.864 289.176H55.824V291.72H42.864V289.176ZM49.392 292.992C50.464 292.992 51.424 293.224 52.272 293.688C53.12 294.136 53.784 294.752 54.264 295.536C54.76 296.32 55.008 297.232 55.008 298.272C55.008 299.312 54.76 300.232 54.264 301.032C53.784 301.816 53.12 302.44 52.272 302.904C51.44 303.352 50.48 303.576 49.392 303.576C48.32 303.576 47.352 303.352 46.488 302.904C45.64 302.44 44.968 301.816 44.472 301.032C43.992 300.232 43.752 299.312 43.752 298.272C43.752 297.232 43.992 296.32 44.472 295.536C44.968 294.752 45.64 294.136 46.488 293.688C47.352 293.224 48.32 292.992 49.392 292.992ZM49.392 295.584C48.88 295.584 48.432 295.688 48.048 295.896C47.664 296.104 47.36 296.408 47.136 296.808C46.912 297.208 46.8 297.696 46.8 298.272C46.8 298.832 46.912 299.32 47.136 299.736C47.36 300.136 47.664 300.448 48.048 300.672C48.432 300.88 48.88 300.984 49.392 300.984C49.888 300.984 50.328 300.88 50.712 300.672C51.096 300.448 51.4 300.136 51.624 299.736C51.848 299.32 51.96 298.832 51.96 298.272C51.96 297.696 51.848 297.208 51.624 296.808C51.4 296.408 51.096 296.104 50.712 295.896C50.328 295.688 49.888 295.584 49.392 295.584ZM47.76 286.272H50.976V290.16H47.76V286.272ZM73.5101 297.072H76.6781V300.984H73.5101V297.072ZM65.0381 295.992H85.1501V298.536H65.0381V295.992ZM75.0461 300.096C77.4461 300.096 79.3341 300.448 80.7101 301.152C82.0861 301.84 82.7741 302.832 82.7741 304.128C82.7741 305.392 82.0861 306.376 80.7101 307.08C79.3341 307.784 77.4461 308.136 75.0461 308.136C72.6461 308.136 70.7581 307.784 69.3821 307.08C68.0221 306.376 67.3421 305.392 67.3421 304.128C67.3421 302.832 68.0221 301.84 69.3821 301.152C70.7581 300.448 72.6461 300.096 75.0461 300.096ZM75.0461 302.52C74.0541 302.52 73.2221 302.576 72.5501 302.688C71.8941 302.8 71.3981 302.976 71.0621 303.216C70.7261 303.44 70.5581 303.744 70.5581 304.128C70.5581 304.48 70.7261 304.776 71.0621 305.016C71.3981 305.256 71.8941 305.432 72.5501 305.544C73.2221 305.656 74.0541 305.712 75.0461 305.712C76.0381 305.712 76.8621 305.656 77.5181 305.544C78.1901 305.432 78.6941 305.256 79.0301 305.016C79.3661 304.776 79.5341 304.48 79.5341 304.128C79.5341 303.744 79.3661 303.44 79.0301 303.216C78.6941 302.976 78.1901 302.8 77.5181 302.688C76.8621 302.576 76.0381 302.52 75.0461 302.52ZM72.9101 288H75.7421V288.528C75.7421 289.2 75.6221 289.84 75.3821 290.448C75.1421 291.056 74.7821 291.624 74.3021 292.152C73.8381 292.664 73.2541 293.128 72.5501 293.544C71.8461 293.96 71.0301 294.304 70.1021 294.576C69.1741 294.848 68.1421 295.04 67.0061 295.152L65.9021 292.632C66.8781 292.552 67.7421 292.416 68.4941 292.224C69.2621 292.032 69.9181 291.8 70.4621 291.528C71.0221 291.24 71.4781 290.936 71.8301 290.616C72.1981 290.28 72.4701 289.936 72.6461 289.584C72.8221 289.232 72.9101 288.88 72.9101 288.528V288ZM74.4701 288H77.2781V288.528C77.2781 288.88 77.3661 289.24 77.5421 289.608C77.7181 289.96 77.9821 290.296 78.3341 290.616C78.7021 290.936 79.1581 291.24 79.7021 291.528C80.2621 291.8 80.9181 292.032 81.6701 292.224C82.4381 292.416 83.3101 292.552 84.2861 292.632L83.1821 295.152C82.0461 295.04 81.0141 294.848 80.0861 294.576C79.1581 294.304 78.3421 293.968 77.6381 293.568C76.9501 293.152 76.3661 292.688 75.8861 292.176C75.4221 291.648 75.0701 291.08 74.8301 290.472C74.5901 289.848 74.4701 289.2 74.4701 288.528V288ZM66.8861 286.824H83.3501V289.344H66.8861V286.824ZM95.7083 291.768H100.196V294.288H95.7083V291.768ZM95.5883 297.312H100.124V299.856H95.5883V297.312ZM103.22 285.888H106.268V308.112H103.22V285.888ZM98.6603 286.368H101.636V307.128H98.6603V286.368ZM93.6443 288.504H96.6923C96.6923 290.616 96.4443 292.584 95.9483 294.408C95.4683 296.216 94.6363 297.88 93.4523 299.4C92.2843 300.92 90.6683 302.288 88.6043 303.504L86.8043 301.272C88.4842 300.264 89.8203 299.168 90.8123 297.984C91.8203 296.784 92.5403 295.464 92.9723 294.024C93.4203 292.568 93.6443 290.944 93.6443 289.152V288.504ZM88.0763 288.504H94.7003V291.072H88.0763V288.504Z" fill="black"/>
<path d="M781 275H201C189.954 275 181 283.954 181 295C181 306.046 189.954 315 201 315H781C792.046 315 801 306.046 801 295C801 283.954 792.046 275 781 275Z" fill="#E1E4EA"/>
<path d="M471 275H201C189.954 275 181 283.954 181 295C181 306.046 189.954 315 201 315H471C482.046 315 491 306.046 491 295C491 283.954 482.046 275 471 275Z" fill="#4C5BD4"/>
<path d="M332.404 300V298.227L336.546 294.392C336.898 294.051 337.194 293.744 337.433 293.472C337.675 293.199 337.859 292.932 337.984 292.67C338.109 292.405 338.171 292.119 338.171 291.812C338.171 291.472 338.094 291.178 337.938 290.932C337.783 290.682 337.571 290.491 337.302 290.358C337.033 290.222 336.728 290.153 336.387 290.153C336.031 290.153 335.72 290.225 335.455 290.369C335.19 290.513 334.986 290.72 334.842 290.989C334.698 291.258 334.626 291.578 334.626 291.949H332.29C332.29 291.187 332.463 290.527 332.808 289.966C333.152 289.405 333.635 288.972 334.256 288.665C334.878 288.358 335.594 288.205 336.404 288.205C337.237 288.205 337.963 288.352 338.58 288.648C339.201 288.939 339.684 289.345 340.029 289.864C340.374 290.383 340.546 290.977 340.546 291.648C340.546 292.087 340.459 292.521 340.285 292.949C340.114 293.377 339.809 293.852 339.37 294.375C338.931 294.894 338.311 295.517 337.512 296.244L335.813 297.909V297.989H340.7V300H332.404Z" fill="white"/>
<path d="M646 275H491V315H646V275Z" fill="#2CA87F"/>
<path d="M571.092 288.364V300H568.631V290.699H568.563L565.898 292.369V290.188L568.779 288.364H571.092Z" fill="white"/>
<path d="M783 275H646V315H783V275Z" fill="#E74C3C"/>
<path d="M726.092 288.364V300H723.631V290.699H723.563L720.898 292.369V290.188L723.779 288.364H726.092Z" fill="white"/>
<path d="M181 125C181 119.477 185.477 115 191 115H203V155H191C185.477 155 181 150.523 181 145V125Z" fill="#4C5BD4"/>
<path d="M181 285C181 279.477 185.477 275 191 275H203V315H191C185.477 315 181 310.523 181 305V285Z" fill="#4C5BD4"/>
<path d="M469 275H491V315H469V275Z" fill="#4C5BD4"/>
<path d="M783 275H795C800.523 275 805 279.477 805 285V305C805 310.523 800.523 315 795 315H783V275Z" fill="#E74C3C"/>
<path d="M801 145C801 150.523 796.523 155 791 155H779V115H791C796.523 115 801 119.477 801 125V145Z" fill="#E74C3C"/>
<path d="M801 225C801 230.523 796.523 235 791 235H779V195H791C796.523 195 801 199.477 801 205V225Z" fill="#E74C3C"/>
<path d="M181 205C181 199.477 185.477 195 191 195H203V235H191C185.477 235 181 230.523 181 225V205Z" fill="#E74C3C"/>
<path d="M683 155H661V115H683V155Z" fill="#4C5BD4"/>
</svg>
