<svg width="291" height="521" viewBox="0 0 291 521" fill="none" xmlns="http://www.w3.org/2000/svg">
<rect width="291" height="521" fill="white"/>
<path d="M103.012 31.26H105.692V43.36H103.012V31.26ZM93.0916 44.1H105.692V49.58H93.0916V44.1ZM103.072 46.06H95.7116V47.6H103.072V46.06ZM90.9516 32.5H101.652V34.4H90.9516V32.5ZM96.2916 34.84C97.665 34.84 98.765 35.0733 99.5916 35.54C100.418 36.0067 100.832 36.64 100.832 37.44C100.832 38.2667 100.418 38.9133 99.5916 39.38C98.765 39.8333 97.665 40.06 96.2916 40.06C94.9183 40.06 93.8183 39.8333 92.9916 39.38C92.1783 38.9133 91.7716 38.2667 91.7716 37.44C91.7716 36.64 92.1783 36.0067 92.9916 35.54C93.8183 35.0733 94.9183 34.84 96.2916 34.84ZM96.2916 36.62C95.665 36.62 95.1716 36.6867 94.8116 36.82C94.465 36.9533 94.2916 37.16 94.2916 37.44C94.2916 37.7333 94.465 37.9533 94.8116 38.1C95.1716 38.2333 95.665 38.3 96.2916 38.3C96.9316 38.3 97.425 38.2333 97.7716 38.1C98.1316 37.9533 98.3116 37.7333 98.3116 37.44C98.3116 37.16 98.1316 36.9533 97.7716 36.82C97.425 36.6867 96.9316 36.62 96.2916 36.62ZM94.9516 31.08H97.6316V33.46H94.9516V31.08ZM95.1116 42.06H97.7716V44.98H95.1116V42.06ZM90.5716 42.76L90.2516 40.76C91.3983 40.76 92.6316 40.7533 93.9516 40.74C95.285 40.7133 96.645 40.6667 98.0316 40.6C99.4316 40.52 100.778 40.3933 102.072 40.22L102.232 42.02C100.885 42.2467 99.5316 42.4133 98.1716 42.52C96.8116 42.6267 95.485 42.6933 94.1916 42.72C92.8983 42.7467 91.6916 42.76 90.5716 42.76ZM108.65 45.46H125.43V47.62H108.65V45.46ZM115.69 41.38H118.33V45.98H115.69V41.38ZM110.41 32.62H123.59V41.72H110.41V32.62ZM120.97 34.72H113.03V39.6H120.97V34.72ZM140.289 31.26H142.829V45.02H140.289V31.26ZM134.309 36.22H137.269V38.34H134.309V36.22ZM136.589 31.56H139.069V44.48H136.589V31.56ZM130.349 47.32H143.289V49.46H130.349V47.32ZM130.349 43.4H133.029V48.58H130.349V43.4ZM127.689 33.04H135.009V41.78H127.689V33.04ZM132.549 35.06H130.169V39.74H132.549V35.06ZM147.407 40.78H160.427V42.88H147.407V40.78ZM145.447 45.5H162.227V47.66H145.447V45.5ZM147.407 32.6H160.287V34.72H150.107V41.36H147.407V32.6ZM149.287 36.68H159.867V38.74H149.287V36.68ZM169.529 42.169C169.529 40.4077 169.764 38.786 170.232 37.304C170.706 35.822 171.428 34.4489 172.399 33.1847H175.289C174.92 33.6534 174.577 34.2263 174.259 34.9034C173.942 35.5758 173.665 36.3144 173.428 37.1193C173.192 37.9242 173.007 38.7576 172.874 39.6193C172.742 40.4763 172.676 41.3262 172.676 42.169C172.676 43.2912 172.789 44.4252 173.017 45.571C173.249 46.7121 173.561 47.7727 173.954 48.7528C174.352 49.733 174.797 50.5355 175.289 51.1605H172.399C171.428 49.8963 170.706 48.5232 170.232 47.0412C169.764 45.5592 169.529 43.9351 169.529 42.169ZM179.787 44.8608L179.794 41.2315H180.234L183.729 37.0909H187.202L182.507 42.5739H181.79L179.787 44.8608ZM177.045 48V33.4545H180.071V48H177.045ZM183.863 48L180.653 43.2486L182.67 41.1108L187.407 48H183.863ZM200.909 33.4545V48H198.253L191.925 38.8452H191.818V48H188.743V33.4545H191.442L197.72 42.6023H197.848V33.4545H200.909ZM205.161 43.3338C204.693 43.3338 204.29 43.1681 203.954 42.8366C203.623 42.5005 203.457 42.098 203.457 41.6293C203.457 41.1652 203.623 40.7675 203.954 40.4361C204.29 40.1046 204.693 39.9389 205.161 39.9389C205.616 39.9389 206.014 40.1046 206.355 40.4361C206.695 40.7675 206.866 41.1652 206.866 41.6293C206.866 41.9418 206.785 42.2282 206.624 42.4886C206.468 42.7443 206.262 42.9503 206.007 43.1065C205.751 43.258 205.469 43.3338 205.161 43.3338ZM209.35 48V37.0909H212.233V39.0156H212.361C212.589 38.3764 212.967 37.8722 213.498 37.5028C214.028 37.1335 214.662 36.9489 215.401 36.9489C216.149 36.9489 216.786 37.1359 217.312 37.5099C217.837 37.8793 218.188 38.3812 218.363 39.0156H218.476C218.699 38.3906 219.101 37.8911 219.684 37.517C220.271 37.1383 220.965 36.9489 221.765 36.9489C222.783 36.9489 223.609 37.2732 224.243 37.9219C224.883 38.5658 225.202 39.4796 225.202 40.6634V48H222.184V41.2599C222.184 40.6539 222.023 40.1993 221.701 39.8963C221.379 39.5933 220.976 39.4418 220.493 39.4418C219.944 39.4418 219.516 39.617 219.208 39.9673C218.9 40.313 218.746 40.7699 218.746 41.3381V48H215.813V41.196C215.813 40.661 215.659 40.2348 215.351 39.9176C215.048 39.6004 214.648 39.4418 214.151 39.4418C213.815 39.4418 213.512 39.527 213.242 39.6974C212.977 39.8632 212.766 40.0975 212.61 40.4006C212.454 40.6989 212.376 41.0492 212.376 41.4517V48H209.35ZM232.692 42.169C232.692 43.9351 232.455 45.5592 231.981 47.0412C231.513 48.5232 230.793 49.8963 229.822 51.1605H226.932C227.301 50.6918 227.644 50.1188 227.961 49.4418C228.279 48.7647 228.556 48.026 228.792 47.2259C229.029 46.4209 229.214 45.5876 229.346 44.7259C229.479 43.8641 229.545 43.0118 229.545 42.169C229.545 41.0469 229.429 39.9152 229.197 38.7741C228.97 37.6283 228.657 36.5677 228.26 35.5923C227.867 34.6122 227.424 33.8097 226.932 33.1847H229.822C230.793 34.4489 231.513 35.822 231.981 37.304C232.455 38.786 232.692 40.4077 232.692 42.169Z" fill="black"/>
<path d="M54 413L235 413" stroke="#CCCCCC" stroke-width="2"/>
<rect x="28" y="84" width="254" height="352" fill="#F8F8F8"/>
<path d="M46.2192 93H240.202" stroke="#EEEEEE" stroke-width="3"/>
<path d="M46.2192 173H240.202" stroke="#EEEEEE" stroke-width="3"/>
<path d="M46.2192 253H240.202" stroke="#EEEEEE" stroke-width="3"/>
<path d="M46.2192 333H240.202" stroke="#EEEEEE" stroke-width="3"/>
<path d="M46.2192 413H240.202" stroke="#EEEEEE"/>
<path d="M162 93L171 109L179.5 128L182.75 139.5L186 151L188.5 160.5V173.5V182L184 195L175.5 216.5L165.5 236.5L162.5 251.5L165.5 271.5L168 292.5L172 313V333L162 413" stroke="#888888" stroke-width="4"/>
<path d="M182 93L192.5 110L199 131.5L203.5 150V171.5L199 192L192.5 212.5L187 223L182 233.5L180.5 241L182 250L185.5 257L194.5 267L197.5 274L202 290.5V301.5V314.5L199.5 324.5L197.5 336.5L194.5 354L190.5 373.5L185.5 394.5L180.5 413" stroke="#F59E0B" stroke-width="4"/>
<path d="M131 93L125.5 101.5L121.5 111.5L118.5 122L116.5 132L115.5 141.5L114.5 152L111 173L108 192L106 202L103.5 212.5L101 221.5L98.5 231L96.5 243V253.5L98 262.5L103.5 271.5L109.5 282L114.5 292L123.5 311.5L128.5 322L131 333L135 352L136.5 363L135 371L131 379.5L125.5 393.5L117.5 413.5" stroke="#EF4444" stroke-width="4"/>
<line x1="148.5" y1="93" x2="148.5" y2="413" stroke="#CCCCCC" stroke-width="3"/>
<line x1="148.5" y1="93" x2="148.5" y2="413" stroke="#CCCCCC" stroke-width="3"/>
<path d="M257.999 99.1758C257.327 99.1732 256.749 99.0078 256.264 98.6797C255.782 98.3516 255.411 97.8763 255.151 97.2539C254.893 96.6315 254.765 95.8828 254.768 95.0078C254.768 94.1354 254.897 93.3919 255.155 92.7773C255.415 92.1628 255.786 91.6953 256.268 91.375C256.752 91.0521 257.329 90.8906 257.999 90.8906C258.668 90.8906 259.243 91.0521 259.725 91.375C260.209 91.6979 260.582 92.1667 260.842 92.7812C261.103 93.3932 261.232 94.1354 261.229 95.0078C261.229 95.8854 261.099 96.6354 260.838 97.2578C260.581 97.8802 260.211 98.3555 259.729 98.6836C259.247 99.0117 258.67 99.1758 257.999 99.1758ZM257.999 97.7734C258.457 97.7734 258.823 97.543 259.096 97.082C259.37 96.6211 259.505 95.9297 259.502 95.0078C259.502 94.401 259.44 93.8958 259.315 93.4922C259.193 93.0885 259.018 92.7852 258.792 92.582C258.568 92.3789 258.303 92.2773 257.999 92.2773C257.543 92.2773 257.178 92.5052 256.905 92.9609C256.631 93.4167 256.493 94.099 256.491 95.0078C256.491 95.6224 256.552 96.1354 256.674 96.5469C256.799 96.9557 256.975 97.263 257.202 97.4687C257.428 97.6719 257.694 97.7734 257.999 97.7734Z" fill="#6A6A6A"/>
<path d="M255.184 177V175.781L258.032 173.145C258.274 172.91 258.477 172.699 258.641 172.512C258.808 172.324 258.934 172.141 259.02 171.961C259.106 171.779 259.149 171.582 259.149 171.371C259.149 171.137 259.096 170.935 258.989 170.766C258.882 170.594 258.736 170.462 258.551 170.371C258.366 170.277 258.157 170.23 257.922 170.23C257.678 170.23 257.464 170.28 257.282 170.379C257.099 170.478 256.959 170.62 256.86 170.805C256.761 170.99 256.711 171.21 256.711 171.465H255.106C255.106 170.941 255.224 170.487 255.461 170.102C255.698 169.716 256.03 169.418 256.458 169.207C256.885 168.996 257.377 168.891 257.934 168.891C258.507 168.891 259.006 168.992 259.43 169.195C259.857 169.396 260.189 169.674 260.426 170.031C260.663 170.388 260.782 170.797 260.782 171.258C260.782 171.56 260.722 171.858 260.602 172.152C260.485 172.447 260.275 172.773 259.973 173.133C259.671 173.49 259.245 173.918 258.696 174.418L257.528 175.562V175.617H260.887V177H255.184Z" fill="#6A6A6A"/>
<path d="M254.8 254.594V253.262L258.14 248H259.288V249.844H258.608L256.503 253.176V253.238H261.249V254.594H254.8ZM258.64 256V254.187L258.671 253.598V248H260.257V256H258.64Z" fill="#6A6A6A"/>
<path d="M261.088 336.109C260.676 336.107 260.279 336.038 259.896 335.902C259.516 335.767 259.175 335.547 258.873 335.242C258.571 334.937 258.331 334.534 258.154 334.031C257.98 333.529 257.893 332.911 257.893 332.18C257.895 331.508 257.972 330.908 258.123 330.379C258.277 329.848 258.495 329.397 258.779 329.027C259.066 328.658 259.408 328.376 259.807 328.184C260.205 327.988 260.652 327.891 261.146 327.891C261.68 327.891 262.152 327.995 262.561 328.203C262.969 328.409 263.298 328.689 263.545 329.043C263.795 329.397 263.946 329.794 263.998 330.234H262.33C262.265 329.956 262.128 329.737 261.92 329.578C261.712 329.419 261.454 329.34 261.146 329.34C260.626 329.34 260.23 329.566 259.959 330.02C259.691 330.473 259.554 331.089 259.549 331.867H259.604C259.723 331.63 259.885 331.428 260.088 331.262C260.294 331.092 260.527 330.964 260.787 330.875C261.05 330.784 261.327 330.738 261.619 330.738C262.093 330.738 262.515 330.85 262.885 331.074C263.255 331.296 263.546 331.6 263.76 331.988C263.973 332.376 264.08 332.82 264.08 333.32C264.08 333.862 263.954 334.344 263.701 334.766C263.451 335.187 263.101 335.518 262.65 335.758C262.202 335.995 261.682 336.112 261.088 336.109ZM261.08 334.781C261.34 334.781 261.574 334.719 261.779 334.594C261.985 334.469 262.146 334.299 262.264 334.086C262.381 333.872 262.439 333.633 262.439 333.367C262.439 333.102 262.381 332.863 262.264 332.652C262.149 332.441 261.99 332.273 261.787 332.148C261.584 332.023 261.352 331.961 261.092 331.961C260.896 331.961 260.715 331.997 260.549 332.07C260.385 332.143 260.24 332.245 260.115 332.375C259.993 332.505 259.896 332.656 259.826 332.828C259.756 332.997 259.721 333.178 259.721 333.371C259.721 333.629 259.779 333.865 259.896 334.078C260.016 334.292 260.178 334.462 260.381 334.59C260.587 334.717 260.82 334.781 261.08 334.781Z" fill="#6A6A6A"/>
<path d="M258.651 409V417H256.96V410.605H256.913L255.081 411.754V410.254L257.062 409H258.651ZM263.689 417.176C263.018 417.173 262.439 417.008 261.955 416.68C261.473 416.352 261.102 415.876 260.842 415.254C260.584 414.632 260.456 413.883 260.459 413.008C260.459 412.135 260.588 411.392 260.846 410.777C261.106 410.163 261.477 409.695 261.959 409.375C262.443 409.052 263.02 408.891 263.689 408.891C264.359 408.891 264.934 409.052 265.416 409.375C265.9 409.698 266.273 410.167 266.533 410.781C266.794 411.393 266.923 412.135 266.92 413.008C266.92 413.885 266.79 414.635 266.529 415.258C266.271 415.88 265.902 416.355 265.42 416.684C264.938 417.012 264.361 417.176 263.689 417.176ZM263.689 415.773C264.148 415.773 264.514 415.543 264.787 415.082C265.061 414.621 265.196 413.93 265.193 413.008C265.193 412.401 265.131 411.896 265.006 411.492C264.883 411.089 264.709 410.785 264.482 410.582C264.258 410.379 263.994 410.277 263.689 410.277C263.234 410.277 262.869 410.505 262.596 410.961C262.322 411.417 262.184 412.099 262.182 413.008C262.182 413.622 262.243 414.135 262.365 414.547C262.49 414.956 262.666 415.263 262.893 415.469C263.119 415.672 263.385 415.773 263.689 415.773Z" fill="#6A6A6A"/>
<path d="M147.999 427.16C147.388 427.157 146.862 427.007 146.422 426.709C145.984 426.411 145.647 425.978 145.41 425.413C145.176 424.847 145.06 424.166 145.062 423.371C145.062 422.578 145.179 421.902 145.413 421.343C145.65 420.784 145.988 420.359 146.426 420.068C146.866 419.775 147.39 419.628 147.999 419.628C148.607 419.628 149.13 419.775 149.568 420.068C150.009 420.362 150.347 420.788 150.584 421.347C150.821 421.903 150.938 422.578 150.935 423.371C150.935 424.169 150.817 424.85 150.58 425.416C150.346 425.982 150.01 426.414 149.572 426.712C149.134 427.011 148.609 427.16 147.999 427.16ZM147.999 425.885C148.415 425.885 148.748 425.675 148.997 425.256C149.245 424.837 149.368 424.209 149.366 423.371C149.366 422.819 149.309 422.36 149.195 421.993C149.084 421.626 148.926 421.35 148.72 421.165C148.516 420.981 148.276 420.888 147.999 420.888C147.584 420.888 147.253 421.096 147.004 421.51C146.756 421.924 146.63 422.545 146.628 423.371C146.628 423.929 146.684 424.396 146.795 424.77C146.908 425.142 147.068 425.421 147.274 425.608C147.48 425.793 147.722 425.885 147.999 425.885Z" fill="#6A6A6A"/>
<path d="M55.097 427.099C54.5667 427.099 54.0944 427.008 53.6801 426.826C53.2682 426.641 52.9427 426.388 52.7036 426.066C52.4668 425.742 52.3449 425.368 52.3378 424.944H53.8861C53.8956 425.121 53.9536 425.278 54.0601 425.413C54.169 425.545 54.3134 425.648 54.4933 425.722C54.6733 425.795 54.8757 425.832 55.1006 425.832C55.335 425.832 55.5421 425.79 55.722 425.707C55.902 425.625 56.0428 425.51 56.1446 425.363C56.2464 425.216 56.2973 425.047 56.2973 424.855C56.2973 424.661 56.2429 424.489 56.134 424.34C56.0274 424.189 55.8736 424.07 55.6723 423.985C55.4735 423.9 55.2367 423.857 54.9621 423.857H54.2838V422.728H54.9621C55.1941 422.728 55.3989 422.688 55.5764 422.607C55.7564 422.527 55.896 422.415 55.9955 422.273C56.0949 422.129 56.1446 421.961 56.1446 421.769C56.1446 421.587 56.1008 421.427 56.0132 421.29C55.928 421.15 55.8073 421.041 55.651 420.963C55.4971 420.885 55.3172 420.846 55.1112 420.846C54.9029 420.846 54.7123 420.884 54.5395 420.96C54.3667 421.033 54.2282 421.138 54.124 421.276C54.0199 421.413 53.9642 421.574 53.9571 421.759H52.4834C52.4905 421.339 52.6101 420.97 52.8421 420.651C53.0741 420.331 53.3866 420.081 53.7796 419.901C54.1749 419.719 54.6212 419.628 55.1183 419.628C55.6202 419.628 56.0594 419.719 56.4358 419.901C56.8122 420.084 57.1046 420.33 57.3129 420.64C57.5236 420.948 57.6278 421.293 57.6254 421.677C57.6278 422.084 57.5012 422.424 57.2455 422.696C56.9922 422.968 56.6619 423.141 56.2547 423.214V423.271C56.7897 423.34 57.1969 423.526 57.4763 423.829C57.758 424.129 57.8977 424.506 57.8953 424.958C57.8977 425.372 57.7781 425.741 57.5367 426.062C57.2976 426.384 56.9673 426.638 56.5459 426.822C56.1245 427.007 55.6415 427.099 55.097 427.099ZM61.8522 427.16C61.2414 427.157 60.7158 427.007 60.2755 426.709C59.8375 426.411 59.5001 425.978 59.2634 425.413C59.029 424.847 58.913 424.166 58.9154 423.371C58.9154 422.578 59.0326 421.902 59.267 421.343C59.5037 420.784 59.8411 420.359 60.279 420.068C60.7194 419.775 61.2438 419.628 61.8522 419.628C62.4606 419.628 62.9838 419.775 63.4218 420.068C63.8621 420.362 64.2007 420.788 64.4374 421.347C64.6742 421.903 64.7913 422.578 64.789 423.371C64.789 424.169 64.6706 424.85 64.4339 425.416C64.1995 425.982 63.8633 426.414 63.4253 426.712C62.9874 427.011 62.463 427.16 61.8522 427.16ZM61.8522 425.885C62.2689 425.885 62.6015 425.675 62.8501 425.256C63.0986 424.837 63.2217 424.209 63.2194 423.371C63.2194 422.819 63.1626 422.36 63.0489 421.993C62.9376 421.626 62.779 421.35 62.5731 421.165C62.3695 420.981 62.1292 420.888 61.8522 420.888C61.4379 420.888 61.1064 421.096 60.8579 421.51C60.6093 421.924 60.4838 422.545 60.4814 423.371C60.4814 423.929 60.5371 424.396 60.6483 424.77C60.762 425.142 60.9218 425.421 61.1278 425.608C61.3337 425.793 61.5752 425.885 61.8522 425.885ZM68.7369 427.16C68.1262 427.157 67.6006 427.007 67.1602 426.709C66.7223 426.411 66.3849 425.978 66.1482 425.413C65.9138 424.847 65.7978 424.166 65.8002 423.371C65.8002 422.578 65.9173 421.902 66.1517 421.343C66.3885 420.784 66.7258 420.359 67.1638 420.068C67.6041 419.775 68.1285 419.628 68.7369 419.628C69.3454 419.628 69.8686 419.775 70.3066 420.068C70.7469 420.362 71.0854 420.788 71.3222 421.347C71.5589 421.903 71.6761 422.578 71.6737 423.371C71.6737 424.169 71.5554 424.85 71.3186 425.416C71.0843 425.982 70.7481 426.414 70.3101 426.712C69.8721 427.011 69.3477 427.16 68.7369 427.16ZM68.7369 425.885C69.1536 425.885 69.4862 425.675 69.7348 425.256C69.9834 424.837 70.1065 424.209 70.1041 423.371C70.1041 422.819 70.0473 422.36 69.9337 421.993C69.8224 421.626 69.6638 421.35 69.4578 421.165C69.2542 420.981 69.0139 420.888 68.7369 420.888C68.3227 420.888 67.9912 421.096 67.7426 421.51C67.4941 421.924 67.3686 422.545 67.3662 423.371C67.3662 423.929 67.4218 424.396 67.5331 424.77C67.6468 425.142 67.8066 425.421 68.0125 425.608C68.2185 425.793 68.46 425.885 68.7369 425.885Z" fill="#6A6A6A"/>
<path d="M227.097 427.099C226.567 427.099 226.094 427.008 225.68 426.826C225.268 426.641 224.943 426.388 224.704 426.066C224.467 425.742 224.345 425.368 224.338 424.944H225.886C225.896 425.121 225.954 425.278 226.06 425.413C226.169 425.545 226.313 425.648 226.493 425.722C226.673 425.795 226.876 425.832 227.101 425.832C227.335 425.832 227.542 425.79 227.722 425.707C227.902 425.625 228.043 425.51 228.145 425.363C228.246 425.216 228.297 425.047 228.297 424.855C228.297 424.661 228.243 424.489 228.134 424.34C228.027 424.189 227.874 424.07 227.672 423.985C227.473 423.9 227.237 423.857 226.962 423.857H226.284V422.728H226.962C227.194 422.728 227.399 422.688 227.576 422.607C227.756 422.527 227.896 422.415 227.995 422.273C228.095 422.129 228.145 421.961 228.145 421.769C228.145 421.587 228.101 421.427 228.013 421.29C227.928 421.15 227.807 421.041 227.651 420.963C227.497 420.885 227.317 420.846 227.111 420.846C226.903 420.846 226.712 420.884 226.54 420.96C226.367 421.033 226.228 421.138 226.124 421.276C226.02 421.413 225.964 421.574 225.957 421.759H224.483C224.491 421.339 224.61 420.97 224.842 420.651C225.074 420.331 225.387 420.081 225.78 419.901C226.175 419.719 226.621 419.628 227.118 419.628C227.62 419.628 228.059 419.719 228.436 419.901C228.812 420.084 229.105 420.33 229.313 420.64C229.524 420.948 229.628 421.293 229.625 421.677C229.628 422.084 229.501 422.424 229.245 422.696C228.992 422.968 228.662 423.141 228.255 423.214V423.271C228.79 423.34 229.197 423.526 229.476 423.829C229.758 424.129 229.898 424.506 229.895 424.958C229.898 425.372 229.778 425.741 229.537 426.062C229.298 426.384 228.967 426.638 228.546 426.822C228.124 427.007 227.642 427.099 227.097 427.099ZM233.852 427.16C233.241 427.157 232.716 427.007 232.275 426.709C231.838 426.411 231.5 425.978 231.263 425.413C231.029 424.847 230.913 424.166 230.915 423.371C230.915 422.578 231.033 421.902 231.267 421.343C231.504 420.784 231.841 420.359 232.279 420.068C232.719 419.775 233.244 419.628 233.852 419.628C234.461 419.628 234.984 419.775 235.422 420.068C235.862 420.362 236.201 420.788 236.437 421.347C236.674 421.903 236.791 422.578 236.789 423.371C236.789 424.169 236.671 424.85 236.434 425.416C236.199 425.982 235.863 426.414 235.425 426.712C234.987 427.011 234.463 427.16 233.852 427.16ZM233.852 425.885C234.269 425.885 234.601 425.675 234.85 425.256C235.099 424.837 235.222 424.209 235.219 423.371C235.219 422.819 235.163 422.36 235.049 421.993C234.938 421.626 234.779 421.35 234.573 421.165C234.369 420.981 234.129 420.888 233.852 420.888C233.438 420.888 233.106 421.096 232.858 421.51C232.609 421.924 232.484 422.545 232.481 423.371C232.481 423.929 232.537 424.396 232.648 424.77C232.762 425.142 232.922 425.421 233.128 425.608C233.334 425.793 233.575 425.885 233.852 425.885ZM240.737 427.16C240.126 427.157 239.601 427.007 239.16 426.709C238.722 426.411 238.385 425.978 238.148 425.413C237.914 424.847 237.798 424.166 237.8 423.371C237.8 422.578 237.917 421.902 238.152 421.343C238.388 420.784 238.726 420.359 239.164 420.068C239.604 419.775 240.129 419.628 240.737 419.628C241.345 419.628 241.869 419.775 242.307 420.068C242.747 420.362 243.085 420.788 243.322 421.347C243.559 421.903 243.676 422.578 243.674 423.371C243.674 424.169 243.555 424.85 243.319 425.416C243.084 425.982 242.748 426.414 242.31 426.712C241.872 427.011 241.348 427.16 240.737 427.16ZM240.737 425.885C241.154 425.885 241.486 425.675 241.735 425.256C241.983 424.837 242.107 424.209 242.104 423.371C242.104 422.819 242.047 422.36 241.934 421.993C241.822 421.626 241.664 421.35 241.458 421.165C241.254 420.981 241.014 420.888 240.737 420.888C240.323 420.888 239.991 421.096 239.743 421.51C239.494 421.924 239.369 422.545 239.366 423.371C239.366 423.929 239.422 424.396 239.533 424.77C239.647 425.142 239.807 425.421 240.013 425.608C240.218 425.793 240.46 425.885 240.737 425.885Z" fill="#6A6A6A"/>
<path d="M257.999 99.1758C257.327 99.1732 256.749 99.0078 256.264 98.6797C255.782 98.3516 255.411 97.8763 255.151 97.2539C254.893 96.6315 254.765 95.8828 254.768 95.0078C254.768 94.1354 254.897 93.3919 255.155 92.7773C255.415 92.1628 255.786 91.6953 256.268 91.375C256.752 91.0521 257.329 90.8906 257.999 90.8906C258.668 90.8906 259.243 91.0521 259.725 91.375C260.209 91.6979 260.582 92.1667 260.842 92.7812C261.103 93.3932 261.232 94.1354 261.229 95.0078C261.229 95.8854 261.099 96.6354 260.838 97.2578C260.581 97.8802 260.211 98.3555 259.729 98.6836C259.247 99.0117 258.67 99.1758 257.999 99.1758ZM257.999 97.7734C258.457 97.7734 258.823 97.543 259.096 97.082C259.37 96.6211 259.505 95.9297 259.502 95.0078C259.502 94.401 259.44 93.8958 259.315 93.4922C259.193 93.0885 259.018 92.7852 258.792 92.582C258.568 92.3789 258.303 92.2773 257.999 92.2773C257.543 92.2773 257.178 92.5052 256.905 92.9609C256.631 93.4167 256.493 94.099 256.491 95.0078C256.491 95.6224 256.552 96.1354 256.674 96.5469C256.799 96.9557 256.975 97.263 257.202 97.4687C257.428 97.6719 257.694 97.7734 257.999 97.7734Z" fill="#6A6A6A"/>
<path d="M255.184 177V175.781L258.032 173.145C258.274 172.91 258.477 172.699 258.641 172.512C258.808 172.324 258.934 172.141 259.02 171.961C259.106 171.779 259.149 171.582 259.149 171.371C259.149 171.137 259.096 170.935 258.989 170.766C258.882 170.594 258.736 170.462 258.551 170.371C258.366 170.277 258.157 170.23 257.922 170.23C257.678 170.23 257.464 170.28 257.282 170.379C257.099 170.478 256.959 170.62 256.86 170.805C256.761 170.99 256.711 171.21 256.711 171.465H255.106C255.106 170.941 255.224 170.487 255.461 170.102C255.698 169.716 256.03 169.418 256.458 169.207C256.885 168.996 257.377 168.891 257.934 168.891C258.507 168.891 259.006 168.992 259.43 169.195C259.857 169.396 260.189 169.674 260.426 170.031C260.663 170.388 260.782 170.797 260.782 171.258C260.782 171.56 260.722 171.858 260.602 172.152C260.485 172.447 260.275 172.773 259.973 173.133C259.671 173.49 259.245 173.918 258.696 174.418L257.528 175.562V175.617H260.887V177H255.184Z" fill="#6A6A6A"/>
<path d="M254.8 254.594V253.262L258.14 248H259.288V249.844H258.608L256.503 253.176V253.238H261.249V254.594H254.8ZM258.64 256V254.187L258.671 253.598V248H260.257V256H258.64Z" fill="#6A6A6A"/>
<path d="M261.088 336.109C260.676 336.107 260.279 336.038 259.896 335.902C259.516 335.767 259.175 335.547 258.873 335.242C258.571 334.937 258.331 334.534 258.154 334.031C257.98 333.529 257.893 332.911 257.893 332.18C257.895 331.508 257.972 330.908 258.123 330.379C258.277 329.848 258.495 329.397 258.779 329.027C259.066 328.658 259.408 328.376 259.807 328.184C260.205 327.988 260.652 327.891 261.146 327.891C261.68 327.891 262.152 327.995 262.561 328.203C262.969 328.409 263.298 328.689 263.545 329.043C263.795 329.397 263.946 329.794 263.998 330.234H262.33C262.265 329.956 262.128 329.737 261.92 329.578C261.712 329.419 261.454 329.34 261.146 329.34C260.626 329.34 260.23 329.566 259.959 330.02C259.691 330.473 259.554 331.089 259.549 331.867H259.604C259.723 331.63 259.885 331.428 260.088 331.262C260.294 331.092 260.527 330.964 260.787 330.875C261.05 330.784 261.327 330.738 261.619 330.738C262.093 330.738 262.515 330.85 262.885 331.074C263.255 331.296 263.546 331.6 263.76 331.988C263.973 332.376 264.08 332.82 264.08 333.32C264.08 333.862 263.954 334.344 263.701 334.766C263.451 335.187 263.101 335.518 262.65 335.758C262.202 335.995 261.682 336.112 261.088 336.109ZM261.08 334.781C261.34 334.781 261.574 334.719 261.779 334.594C261.985 334.469 262.146 334.299 262.264 334.086C262.381 333.872 262.439 333.633 262.439 333.367C262.439 333.102 262.381 332.863 262.264 332.652C262.149 332.441 261.99 332.273 261.787 332.148C261.584 332.023 261.352 331.961 261.092 331.961C260.896 331.961 260.715 331.997 260.549 332.07C260.385 332.143 260.24 332.245 260.115 332.375C259.993 332.505 259.896 332.656 259.826 332.828C259.756 332.997 259.721 333.178 259.721 333.371C259.721 333.629 259.779 333.865 259.896 334.078C260.016 334.292 260.178 334.462 260.381 334.59C260.587 334.717 260.82 334.781 261.08 334.781Z" fill="#6A6A6A"/>
<path d="M258.651 409V417H256.96V410.605H256.913L255.081 411.754V410.254L257.062 409H258.651ZM263.689 417.176C263.018 417.173 262.439 417.008 261.955 416.68C261.473 416.352 261.102 415.876 260.842 415.254C260.584 414.632 260.456 413.883 260.459 413.008C260.459 412.135 260.588 411.392 260.846 410.777C261.106 410.163 261.477 409.695 261.959 409.375C262.443 409.052 263.02 408.891 263.689 408.891C264.359 408.891 264.934 409.052 265.416 409.375C265.9 409.698 266.273 410.167 266.533 410.781C266.794 411.393 266.923 412.135 266.92 413.008C266.92 413.885 266.79 414.635 266.529 415.258C266.271 415.88 265.902 416.355 265.42 416.684C264.938 417.012 264.361 417.176 263.689 417.176ZM263.689 415.773C264.148 415.773 264.514 415.543 264.787 415.082C265.061 414.621 265.196 413.93 265.193 413.008C265.193 412.401 265.131 411.896 265.006 411.492C264.883 411.089 264.709 410.785 264.482 410.582C264.258 410.379 263.994 410.277 263.689 410.277C263.234 410.277 262.869 410.505 262.596 410.961C262.322 411.417 262.184 412.099 262.182 413.008C262.182 413.622 262.243 414.135 262.365 414.547C262.49 414.956 262.666 415.263 262.893 415.469C263.119 415.672 263.385 415.773 263.689 415.773Z" fill="#6A6A6A"/>
<path d="M147.999 427.16C147.388 427.157 146.862 427.007 146.422 426.709C145.984 426.411 145.647 425.978 145.41 425.413C145.176 424.847 145.06 424.166 145.062 423.371C145.062 422.578 145.179 421.902 145.413 421.343C145.65 420.784 145.988 420.359 146.426 420.068C146.866 419.775 147.39 419.628 147.999 419.628C148.607 419.628 149.13 419.775 149.568 420.068C150.009 420.362 150.347 420.788 150.584 421.347C150.821 421.903 150.938 422.578 150.935 423.371C150.935 424.169 150.817 424.85 150.58 425.416C150.346 425.982 150.01 426.414 149.572 426.712C149.134 427.011 148.609 427.16 147.999 427.16ZM147.999 425.885C148.415 425.885 148.748 425.675 148.997 425.256C149.245 424.837 149.368 424.209 149.366 423.371C149.366 422.819 149.309 422.36 149.195 421.993C149.084 421.626 148.926 421.35 148.72 421.165C148.516 420.981 148.276 420.888 147.999 420.888C147.584 420.888 147.253 421.096 147.004 421.51C146.756 421.924 146.63 422.545 146.628 423.371C146.628 423.929 146.684 424.396 146.795 424.77C146.908 425.142 147.068 425.421 147.274 425.608C147.48 425.793 147.722 425.885 147.999 425.885Z" fill="#6A6A6A"/>
<path d="M55.097 427.099C54.5667 427.099 54.0944 427.008 53.6801 426.826C53.2682 426.641 52.9427 426.388 52.7036 426.066C52.4668 425.742 52.3449 425.368 52.3378 424.944H53.8861C53.8956 425.121 53.9536 425.278 54.0601 425.413C54.169 425.545 54.3134 425.648 54.4933 425.722C54.6733 425.795 54.8757 425.832 55.1006 425.832C55.335 425.832 55.5421 425.79 55.722 425.707C55.902 425.625 56.0428 425.51 56.1446 425.363C56.2464 425.216 56.2973 425.047 56.2973 424.855C56.2973 424.661 56.2429 424.489 56.134 424.34C56.0274 424.189 55.8736 424.07 55.6723 423.985C55.4735 423.9 55.2367 423.857 54.9621 423.857H54.2838V422.728H54.9621C55.1941 422.728 55.3989 422.688 55.5764 422.607C55.7564 422.527 55.896 422.415 55.9955 422.273C56.0949 422.129 56.1446 421.961 56.1446 421.769C56.1446 421.587 56.1008 421.427 56.0132 421.29C55.928 421.15 55.8073 421.041 55.651 420.963C55.4971 420.885 55.3172 420.846 55.1112 420.846C54.9029 420.846 54.7123 420.884 54.5395 420.96C54.3667 421.033 54.2282 421.138 54.124 421.276C54.0199 421.413 53.9642 421.574 53.9571 421.759H52.4834C52.4905 421.339 52.6101 420.97 52.8421 420.651C53.0741 420.331 53.3866 420.081 53.7796 419.901C54.1749 419.719 54.6212 419.628 55.1183 419.628C55.6202 419.628 56.0594 419.719 56.4358 419.901C56.8122 420.084 57.1046 420.33 57.3129 420.64C57.5236 420.948 57.6278 421.293 57.6254 421.677C57.6278 422.084 57.5012 422.424 57.2455 422.696C56.9922 422.968 56.6619 423.141 56.2547 423.214V423.271C56.7897 423.34 57.1969 423.526 57.4763 423.829C57.758 424.129 57.8977 424.506 57.8953 424.958C57.8977 425.372 57.7781 425.741 57.5367 426.062C57.2976 426.384 56.9673 426.638 56.5459 426.822C56.1245 427.007 55.6415 427.099 55.097 427.099ZM61.8522 427.16C61.2414 427.157 60.7158 427.007 60.2755 426.709C59.8375 426.411 59.5001 425.978 59.2634 425.413C59.029 424.847 58.913 424.166 58.9154 423.371C58.9154 422.578 59.0326 421.902 59.267 421.343C59.5037 420.784 59.8411 420.359 60.279 420.068C60.7194 419.775 61.2438 419.628 61.8522 419.628C62.4606 419.628 62.9838 419.775 63.4218 420.068C63.8621 420.362 64.2007 420.788 64.4374 421.347C64.6742 421.903 64.7913 422.578 64.789 423.371C64.789 424.169 64.6706 424.85 64.4339 425.416C64.1995 425.982 63.8633 426.414 63.4253 426.712C62.9874 427.011 62.463 427.16 61.8522 427.16ZM61.8522 425.885C62.2689 425.885 62.6015 425.675 62.8501 425.256C63.0986 424.837 63.2217 424.209 63.2194 423.371C63.2194 422.819 63.1626 422.36 63.0489 421.993C62.9376 421.626 62.779 421.35 62.5731 421.165C62.3695 420.981 62.1292 420.888 61.8522 420.888C61.4379 420.888 61.1064 421.096 60.8579 421.51C60.6093 421.924 60.4838 422.545 60.4814 423.371C60.4814 423.929 60.5371 424.396 60.6483 424.77C60.762 425.142 60.9218 425.421 61.1278 425.608C61.3337 425.793 61.5752 425.885 61.8522 425.885ZM68.7369 427.16C68.1262 427.157 67.6006 427.007 67.1602 426.709C66.7223 426.411 66.3849 425.978 66.1482 425.413C65.9138 424.847 65.7978 424.166 65.8002 423.371C65.8002 422.578 65.9173 421.902 66.1517 421.343C66.3885 420.784 66.7258 420.359 67.1638 420.068C67.6041 419.775 68.1285 419.628 68.7369 419.628C69.3454 419.628 69.8686 419.775 70.3066 420.068C70.7469 420.362 71.0854 420.788 71.3222 421.347C71.5589 421.903 71.6761 422.578 71.6737 423.371C71.6737 424.169 71.5554 424.85 71.3186 425.416C71.0843 425.982 70.7481 426.414 70.3101 426.712C69.8721 427.011 69.3477 427.16 68.7369 427.16ZM68.7369 425.885C69.1536 425.885 69.4862 425.675 69.7348 425.256C69.9834 424.837 70.1065 424.209 70.1041 423.371C70.1041 422.819 70.0473 422.36 69.9337 421.993C69.8224 421.626 69.6638 421.35 69.4578 421.165C69.2542 420.981 69.0139 420.888 68.7369 420.888C68.3227 420.888 67.9912 421.096 67.7426 421.51C67.4941 421.924 67.3686 422.545 67.3662 423.371C67.3662 423.929 67.4218 424.396 67.5331 424.77C67.6468 425.142 67.8066 425.421 68.0125 425.608C68.2185 425.793 68.46 425.885 68.7369 425.885Z" fill="#6A6A6A"/>
<path d="M227.097 427.099C226.567 427.099 226.094 427.008 225.68 426.826C225.268 426.641 224.943 426.388 224.704 426.066C224.467 425.742 224.345 425.368 224.338 424.944H225.886C225.896 425.121 225.954 425.278 226.06 425.413C226.169 425.545 226.313 425.648 226.493 425.722C226.673 425.795 226.876 425.832 227.101 425.832C227.335 425.832 227.542 425.79 227.722 425.707C227.902 425.625 228.043 425.51 228.145 425.363C228.246 425.216 228.297 425.047 228.297 424.855C228.297 424.661 228.243 424.489 228.134 424.34C228.027 424.189 227.874 424.07 227.672 423.985C227.473 423.9 227.237 423.857 226.962 423.857H226.284V422.728H226.962C227.194 422.728 227.399 422.688 227.576 422.607C227.756 422.527 227.896 422.415 227.995 422.273C228.095 422.129 228.145 421.961 228.145 421.769C228.145 421.587 228.101 421.427 228.013 421.29C227.928 421.15 227.807 421.041 227.651 420.963C227.497 420.885 227.317 420.846 227.111 420.846C226.903 420.846 226.712 420.884 226.54 420.96C226.367 421.033 226.228 421.138 226.124 421.276C226.02 421.413 225.964 421.574 225.957 421.759H224.483C224.491 421.339 224.61 420.97 224.842 420.651C225.074 420.331 225.387 420.081 225.78 419.901C226.175 419.719 226.621 419.628 227.118 419.628C227.62 419.628 228.059 419.719 228.436 419.901C228.812 420.084 229.105 420.33 229.313 420.64C229.524 420.948 229.628 421.293 229.625 421.677C229.628 422.084 229.501 422.424 229.245 422.696C228.992 422.968 228.662 423.141 228.255 423.214V423.271C228.79 423.34 229.197 423.526 229.476 423.829C229.758 424.129 229.898 424.506 229.895 424.958C229.898 425.372 229.778 425.741 229.537 426.062C229.298 426.384 228.967 426.638 228.546 426.822C228.124 427.007 227.642 427.099 227.097 427.099ZM233.852 427.16C233.241 427.157 232.716 427.007 232.275 426.709C231.838 426.411 231.5 425.978 231.263 425.413C231.029 424.847 230.913 424.166 230.915 423.371C230.915 422.578 231.033 421.902 231.267 421.343C231.504 420.784 231.841 420.359 232.279 420.068C232.719 419.775 233.244 419.628 233.852 419.628C234.461 419.628 234.984 419.775 235.422 420.068C235.862 420.362 236.201 420.788 236.437 421.347C236.674 421.903 236.791 422.578 236.789 423.371C236.789 424.169 236.671 424.85 236.434 425.416C236.199 425.982 235.863 426.414 235.425 426.712C234.987 427.011 234.463 427.16 233.852 427.16ZM233.852 425.885C234.269 425.885 234.601 425.675 234.85 425.256C235.099 424.837 235.222 424.209 235.219 423.371C235.219 422.819 235.163 422.36 235.049 421.993C234.938 421.626 234.779 421.35 234.573 421.165C234.369 420.981 234.129 420.888 233.852 420.888C233.438 420.888 233.106 421.096 232.858 421.51C232.609 421.924 232.484 422.545 232.481 423.371C232.481 423.929 232.537 424.396 232.648 424.77C232.762 425.142 232.922 425.421 233.128 425.608C233.334 425.793 233.575 425.885 233.852 425.885ZM240.737 427.16C240.126 427.157 239.601 427.007 239.16 426.709C238.722 426.411 238.385 425.978 238.148 425.413C237.914 424.847 237.798 424.166 237.8 423.371C237.8 422.578 237.917 421.902 238.152 421.343C238.388 420.784 238.726 420.359 239.164 420.068C239.604 419.775 240.129 419.628 240.737 419.628C241.345 419.628 241.869 419.775 242.307 420.068C242.747 420.362 243.085 420.788 243.322 421.347C243.559 421.903 243.676 422.578 243.674 423.371C243.674 424.169 243.555 424.85 243.319 425.416C243.084 425.982 242.748 426.414 242.31 426.712C241.872 427.011 241.348 427.16 240.737 427.16ZM240.737 425.885C241.154 425.885 241.486 425.675 241.735 425.256C241.983 424.837 242.107 424.209 242.104 423.371C242.104 422.819 242.047 422.36 241.934 421.993C241.822 421.626 241.664 421.35 241.458 421.165C241.254 420.981 241.014 420.888 240.737 420.888C240.323 420.888 239.991 421.096 239.743 421.51C239.494 421.924 239.369 422.545 239.366 423.371C239.366 423.929 239.422 424.396 239.533 424.77C239.647 425.142 239.807 425.421 240.013 425.608C240.218 425.793 240.46 425.885 240.737 425.885Z" fill="#6A6A6A"/>
<path d="M130.502 63.552H132.758C132.758 64.8533 132.486 66 131.942 66.992C131.398 67.9733 130.609 68.7947 129.574 69.456C128.55 70.1173 127.307 70.6133 125.846 70.944L125.014 69.28C126.251 69.0133 127.275 68.6507 128.086 68.192C128.897 67.7333 129.499 67.2053 129.894 66.608C130.299 66.0107 130.502 65.3813 130.502 64.72V63.552ZM125.782 63.552H131.798V65.248H125.782V63.552ZM134.886 62.592H137.03V70.56H134.886V62.592ZM127.094 71.232H137.174V72.896H127.094V71.232ZM126.95 75.52H137.334V77.2H126.95V75.52ZM128.822 71.984H130.918V76.432H128.822V71.984ZM133.35 71.984H135.462V76.432H133.35V71.984ZM149.621 62.576H151.749V77.44H149.621V62.576ZM143.765 63.616C144.522 63.616 145.194 63.8347 145.781 64.272C146.367 64.6987 146.826 65.312 147.157 66.112C147.498 66.9013 147.669 67.8347 147.669 68.912C147.669 70 147.498 70.944 147.157 71.744C146.826 72.5333 146.367 73.1467 145.781 73.584C145.194 74.0107 144.522 74.224 143.765 74.224C143.018 74.224 142.351 74.0107 141.765 73.584C141.178 73.1467 140.714 72.5333 140.373 71.744C140.042 70.944 139.877 70 139.877 68.912C139.877 67.8347 140.042 66.9013 140.373 66.112C140.714 65.312 141.178 64.6987 141.765 64.272C142.351 63.8347 143.018 63.616 143.765 63.616ZM143.765 65.552C143.402 65.552 143.082 65.68 142.805 65.936C142.527 66.192 142.309 66.5707 142.149 67.072C141.999 67.5627 141.925 68.176 141.925 68.912C141.925 69.6373 141.999 70.256 142.149 70.768C142.309 71.2693 142.527 71.648 142.805 71.904C143.082 72.16 143.402 72.288 143.765 72.288C144.138 72.288 144.463 72.16 144.741 71.904C145.018 71.648 145.231 71.2693 145.381 70.768C145.541 70.256 145.621 69.6373 145.621 68.912C145.621 68.176 145.541 67.5627 145.381 67.072C145.231 66.5707 145.018 66.192 144.741 65.936C144.463 65.68 144.138 65.552 143.765 65.552ZM158.727 71.3352C158.727 69.9261 158.914 68.6288 159.289 67.4432C159.668 66.2576 160.246 65.1591 161.022 64.1477H163.335C163.039 64.5227 162.764 64.9811 162.511 65.5227C162.257 66.0606 162.035 66.6515 161.846 67.2955C161.656 67.9394 161.509 68.6061 161.403 69.2955C161.297 69.9811 161.244 70.661 161.244 71.3352C161.244 72.233 161.335 73.1402 161.516 74.0568C161.702 74.9697 161.952 75.8182 162.266 76.6023C162.585 77.3864 162.941 78.0284 163.335 78.5284H161.022C160.246 77.517 159.668 76.4186 159.289 75.233C158.914 74.0473 158.727 72.7481 158.727 71.3352ZM164.739 76V67.2727H167.046V68.8125H167.148C167.33 68.3011 167.633 67.8977 168.058 67.6023C168.482 67.3068 168.989 67.1591 169.58 67.1591C170.179 67.1591 170.688 67.3087 171.109 67.608C171.529 67.9034 171.809 68.3049 171.95 68.8125H172.04C172.219 68.3125 172.54 67.9129 173.006 67.6136C173.476 67.3106 174.031 67.1591 174.671 67.1591C175.486 67.1591 176.147 67.4186 176.654 67.9375C177.165 68.4527 177.421 69.1837 177.421 70.1307V76H175.006V70.608C175.006 70.1231 174.878 69.7595 174.62 69.517C174.362 69.2746 174.04 69.1534 173.654 69.1534C173.215 69.1534 172.872 69.2936 172.626 69.5739C172.379 69.8504 172.256 70.2159 172.256 70.6705V76H169.91V70.5568C169.91 70.1288 169.787 69.7879 169.54 69.5341C169.298 69.2803 168.978 69.1534 168.58 69.1534C168.311 69.1534 168.069 69.2216 167.853 69.358C167.641 69.4905 167.472 69.678 167.347 69.9205C167.222 70.1591 167.16 70.4394 167.16 70.7614V76H164.739ZM183.413 71.3352C183.413 72.7481 183.223 74.0473 182.844 75.233C182.469 76.4186 181.894 77.517 181.117 78.5284H178.805C179.1 78.1534 179.375 77.6951 179.629 77.1534C179.882 76.6117 180.104 76.0208 180.293 75.3807C180.483 74.7367 180.63 74.0701 180.737 73.3807C180.843 72.6913 180.896 72.0095 180.896 71.3352C180.896 70.4375 180.803 69.5322 180.617 68.6193C180.435 67.7027 180.185 66.8542 179.867 66.0739C179.553 65.2898 179.199 64.6477 178.805 64.1477H181.117C181.894 65.1591 182.469 66.2576 182.844 67.4432C183.223 68.6288 183.413 69.9261 183.413 71.3352Z" fill="black"/>
<rect x="53" y="459" width="25" height="5" fill="#F59E0B"/>
<path d="M86.9638 465V464.114L89.0348 462.196C89.2109 462.026 89.3587 461.872 89.478 461.736C89.5992 461.599 89.6911 461.466 89.7536 461.335C89.8161 461.203 89.8473 461.06 89.8473 460.906C89.8473 460.736 89.8085 460.589 89.7308 460.466C89.6532 460.341 89.5471 460.245 89.4126 460.179C89.2782 460.111 89.1257 460.077 88.9553 460.077C88.7772 460.077 88.6219 460.113 88.4893 460.185C88.3568 460.257 88.2545 460.36 88.1825 460.494C88.1106 460.629 88.0746 460.789 88.0746 460.974H86.907C86.907 460.594 86.9931 460.263 87.1655 459.983C87.3378 459.703 87.5793 459.486 87.8899 459.332C88.2005 459.179 88.5585 459.102 88.9638 459.102C89.3804 459.102 89.7431 459.176 90.0518 459.324C90.3625 459.47 90.6039 459.672 90.7763 459.932C90.9486 460.191 91.0348 460.489 91.0348 460.824C91.0348 461.044 90.9912 461.26 90.9041 461.474C90.8189 461.688 90.6664 461.926 90.4467 462.188C90.227 462.447 89.9174 462.759 89.5178 463.122L88.6683 463.955V463.994H91.1115V465H86.9638ZM91.7898 463.977V463.009L94.2188 459.182H95.054V460.523H94.5597L93.0284 462.946V462.991H96.4801V463.977H91.7898ZM94.5824 465V463.682L94.6051 463.253V459.182H95.7585V465H94.5824ZM99.7528 459.182V465H98.5227V460.349H98.4886L97.1562 461.185V460.094L98.5966 459.182H99.7528ZM103.417 465.128C102.928 465.126 102.508 465.006 102.156 464.767C101.805 464.528 101.535 464.183 101.346 463.73C101.158 463.277 101.066 462.733 101.067 462.097C101.067 461.462 101.161 460.921 101.349 460.474C101.538 460.027 101.808 459.687 102.158 459.455C102.511 459.22 102.93 459.102 103.417 459.102C103.904 459.102 104.322 459.22 104.673 459.455C105.025 459.689 105.296 460.03 105.485 460.477C105.674 460.922 105.768 461.462 105.766 462.097C105.766 462.735 105.672 463.28 105.482 463.733C105.295 464.186 105.026 464.531 104.675 464.77C104.325 465.009 103.906 465.128 103.417 465.128ZM103.417 464.108C103.75 464.108 104.016 463.94 104.215 463.605C104.414 463.27 104.513 462.767 104.511 462.097C104.511 461.655 104.465 461.288 104.374 460.994C104.285 460.701 104.158 460.48 103.994 460.332C103.831 460.185 103.638 460.111 103.417 460.111C103.085 460.111 102.82 460.277 102.621 460.608C102.423 460.939 102.322 461.436 102.32 462.097C102.32 462.544 102.365 462.917 102.454 463.216C102.545 463.513 102.673 463.737 102.837 463.886C103.002 464.034 103.195 464.108 103.417 464.108ZM106.643 465V464.114L108.714 462.196C108.891 462.026 109.038 461.872 109.158 461.736C109.279 461.599 109.371 461.466 109.433 461.335C109.496 461.203 109.527 461.06 109.527 460.906C109.527 460.736 109.488 460.589 109.411 460.466C109.333 460.341 109.227 460.245 109.092 460.179C108.958 460.111 108.805 460.077 108.635 460.077C108.457 460.077 108.302 460.113 108.169 460.185C108.036 460.257 107.934 460.36 107.862 460.494C107.79 460.629 107.754 460.789 107.754 460.974H106.587C106.587 460.594 106.673 460.263 106.845 459.983C107.018 459.703 107.259 459.486 107.57 459.332C107.88 459.179 108.238 459.102 108.643 459.102C109.06 459.102 109.423 459.176 109.732 459.324C110.042 459.47 110.284 459.672 110.456 459.932C110.628 460.191 110.714 460.489 110.714 460.824C110.714 461.044 110.671 461.26 110.584 461.474C110.499 461.688 110.346 461.926 110.126 462.188C109.907 462.447 109.597 462.759 109.197 463.122L108.348 463.955V463.994H110.791V465H106.643ZM111.469 463.977V463.009L113.898 459.182H114.734V460.523H114.239L112.708 462.946V462.991H116.16V463.977H111.469ZM114.262 465V463.682L114.285 463.253V459.182H115.438V465H114.262Z" fill="black"/>
<rect x="136" y="459" width="25" height="5" fill="#888888"/>
<path d="M169.347 465V464.114L171.418 462.196C171.594 462.026 171.741 461.872 171.861 461.736C171.982 461.599 172.074 461.466 172.136 461.335C172.199 461.203 172.23 461.06 172.23 460.906C172.23 460.736 172.191 460.589 172.114 460.466C172.036 460.341 171.93 460.245 171.795 460.179C171.661 460.111 171.509 460.077 171.338 460.077C171.16 460.077 171.005 460.113 170.872 460.185C170.74 460.257 170.637 460.36 170.565 460.494C170.493 460.629 170.457 460.789 170.457 460.974H169.29C169.29 460.594 169.376 460.263 169.548 459.983C169.721 459.703 169.962 459.486 170.273 459.332C170.583 459.179 170.941 459.102 171.347 459.102C171.763 459.102 172.126 459.176 172.435 459.324C172.745 459.47 172.987 459.672 173.159 459.932C173.331 460.191 173.418 460.489 173.418 460.824C173.418 461.044 173.374 461.26 173.287 461.474C173.202 461.688 173.049 461.926 172.83 462.188C172.61 462.447 172.3 462.759 171.901 463.122L171.051 463.955V463.994H173.494V465H169.347ZM174.173 463.977V463.009L176.602 459.182H177.437V460.523H176.942L175.411 462.946V462.991H178.863V463.977H174.173ZM176.965 465V463.682L176.988 463.253V459.182H178.141V465H176.965ZM181.964 465.128C181.475 465.126 181.055 465.006 180.702 464.767C180.352 464.528 180.082 464.183 179.893 463.73C179.705 463.277 179.612 462.733 179.614 462.097C179.614 461.462 179.708 460.921 179.896 460.474C180.085 460.027 180.355 459.687 180.705 459.455C181.058 459.22 181.477 459.102 181.964 459.102C182.451 459.102 182.869 459.22 183.219 459.455C183.572 459.689 183.843 460.03 184.032 460.477C184.221 460.922 184.315 461.462 184.313 462.097C184.313 462.735 184.219 463.28 184.029 463.733C183.842 464.186 183.573 464.531 183.222 464.77C182.872 465.009 182.452 465.128 181.964 465.128ZM181.964 464.108C182.297 464.108 182.563 463.94 182.762 463.605C182.961 463.27 183.059 462.767 183.058 462.097C183.058 461.655 183.012 461.288 182.921 460.994C182.832 460.701 182.705 460.48 182.54 460.332C182.378 460.185 182.185 460.111 181.964 460.111C181.632 460.111 181.367 460.277 181.168 460.608C180.969 460.939 180.869 461.436 180.867 462.097C180.867 462.544 180.912 462.917 181.001 463.216C181.092 463.513 181.219 463.737 181.384 463.886C181.549 464.034 181.742 464.108 181.964 464.108ZM185.264 465L187.676 460.227V460.188H184.866V459.182H188.949V460.202L186.534 465H185.264ZM191.948 465.128C191.46 465.126 191.039 465.006 190.687 464.767C190.336 464.528 190.067 464.183 189.877 463.73C189.69 463.277 189.597 462.733 189.599 462.097C189.599 461.462 189.692 460.921 189.88 460.474C190.069 460.027 190.339 459.687 190.69 459.455C191.042 459.22 191.461 459.102 191.948 459.102C192.435 459.102 192.853 459.22 193.204 459.455C193.556 459.689 193.827 460.03 194.016 460.477C194.206 460.922 194.299 461.462 194.298 462.097C194.298 462.735 194.203 463.28 194.013 463.733C193.826 464.186 193.557 464.531 193.207 464.77C192.856 465.009 192.437 465.128 191.948 465.128ZM191.948 464.108C192.281 464.108 192.548 463.94 192.746 463.605C192.945 463.27 193.044 462.767 193.042 462.097C193.042 461.655 192.996 461.288 192.906 460.994C192.817 460.701 192.69 460.48 192.525 460.332C192.362 460.185 192.17 460.111 191.948 460.111C191.617 460.111 191.352 460.277 191.153 460.608C190.954 460.939 190.853 461.436 190.852 462.097C190.852 462.544 190.896 462.917 190.985 463.216C191.076 463.513 191.204 463.737 191.369 463.886C191.533 464.034 191.727 464.108 191.948 464.108ZM195.087 463.977V463.009L197.516 459.182H198.351V460.523H197.857L196.325 462.946V462.991H199.777V463.977H195.087ZM197.879 465V463.682L197.902 463.253V459.182H199.055V465H197.879Z" fill="black"/>
<rect x="219" y="459" width="25" height="5" fill="#F15B5B"/>
<path d="M256.885 459.384H258.709V460.232H256.885V459.384ZM258.237 458.304H259.309V462.064H258.237V458.304ZM254.413 462.368H259.309V464.368H255.477V465.296H254.421V463.6H258.253V463.192H254.413V462.368ZM254.421 464.8H259.517V465.632H254.421V464.8ZM254.797 458.536H255.661V459.072C255.661 459.531 255.587 459.965 255.437 460.376C255.293 460.787 255.069 461.144 254.765 461.448C254.461 461.747 254.072 461.971 253.597 462.12L253.053 461.288C253.464 461.16 253.797 460.984 254.053 460.76C254.309 460.531 254.496 460.269 254.613 459.976C254.736 459.683 254.797 459.381 254.797 459.072V458.536ZM255.013 458.536H255.869V459.072C255.869 459.285 255.901 459.499 255.965 459.712C256.035 459.925 256.136 460.125 256.269 460.312C256.403 460.499 256.573 460.664 256.781 460.808C256.995 460.952 257.245 461.069 257.533 461.16L256.989 461.976C256.541 461.832 256.171 461.616 255.877 461.328C255.584 461.04 255.365 460.701 255.221 460.312C255.083 459.923 255.013 459.509 255.013 459.072V458.536ZM263.325 460.256H264.821V461.096H263.325V460.256ZM263.285 462.104H264.797V462.952H263.285V462.104ZM265.829 458.296H266.845V465.704H265.829V458.296ZM264.309 458.456H265.301V465.376H264.309V458.456ZM262.637 459.168H263.653C263.653 459.872 263.57 460.528 263.405 461.136C263.245 461.739 262.967 462.293 262.573 462.8C262.183 463.307 261.645 463.763 260.957 464.168L260.357 463.424C260.917 463.088 261.362 462.723 261.693 462.328C262.029 461.928 262.269 461.488 262.413 461.008C262.562 460.523 262.637 459.981 262.637 459.384V459.168ZM260.781 459.168H262.989V460.024H260.781V459.168ZM269.724 462.328H270.788V463.856H269.724V462.328ZM269.716 459.688H270.564V459.848C270.564 460.264 270.487 460.653 270.332 461.016C270.183 461.379 269.956 461.693 269.652 461.96C269.348 462.227 268.959 462.424 268.484 462.552L268.012 461.728C268.407 461.627 268.729 461.48 268.98 461.288C269.231 461.091 269.415 460.869 269.532 460.624C269.655 460.373 269.716 460.115 269.716 459.848V459.688ZM269.94 459.688H270.796V459.848C270.796 460.104 270.855 460.352 270.972 460.592C271.095 460.832 271.281 461.045 271.532 461.232C271.788 461.419 272.113 461.563 272.508 461.664L272.036 462.48C271.567 462.357 271.175 462.168 270.86 461.912C270.551 461.651 270.319 461.344 270.164 460.992C270.015 460.635 269.94 460.253 269.94 459.848V459.688ZM268.228 459.168H272.292V460.008H268.228V459.168ZM269.724 458.36H270.788V459.544H269.724V458.36ZM272.94 458.288H274.004V465.72H272.94V458.288ZM267.98 464.344L267.86 463.48C268.292 463.48 268.769 463.477 269.292 463.472C269.82 463.461 270.361 463.44 270.916 463.408C271.476 463.371 272.017 463.315 272.54 463.24L272.612 464.016C272.079 464.117 271.537 464.192 270.988 464.24C270.439 464.288 269.908 464.317 269.396 464.328C268.884 464.333 268.412 464.339 267.98 464.344ZM280.531 458.296H281.547V465.704H280.531V458.296ZM279.547 461.152H280.779V462.008H279.547V461.152ZM278.875 458.424H279.859V465.36H278.875V458.424ZM275.395 463.16H275.907C276.217 463.16 276.51 463.157 276.787 463.152C277.065 463.141 277.339 463.123 277.611 463.096C277.889 463.064 278.171 463.024 278.459 462.976L278.547 463.84C278.249 463.893 277.958 463.936 277.675 463.968C277.393 464 277.107 464.021 276.819 464.032C276.531 464.037 276.227 464.04 275.907 464.04H275.395V463.16ZM275.395 459.16H278.123V460.016H276.443V463.584H275.395V459.16Z" fill="black"/>
<path d="M86.4796 486.818V497H84.3269V488.862H84.2672L81.9355 490.323V488.414L84.4561 486.818H86.4796ZM92.6183 497.139C91.9156 497.139 91.2892 497.01 90.739 496.751C90.1921 496.493 89.7579 496.137 89.4364 495.683C89.1149 495.228 88.9476 494.708 88.9343 494.121H91.0224C91.0456 494.516 91.2113 494.836 91.5195 495.081C91.8278 495.326 92.194 495.449 92.6183 495.449C92.9563 495.449 93.2546 495.374 93.5131 495.225C93.775 495.073 93.9788 494.862 94.1246 494.594C94.2738 494.322 94.3484 494.01 94.3484 493.659C94.3484 493.301 94.2721 492.986 94.1197 492.714C93.9705 492.443 93.7634 492.231 93.4982 492.078C93.2331 491.926 92.9298 491.848 92.5884 491.844C92.2901 491.844 92.0001 491.906 91.7184 492.028C91.44 492.151 91.2229 492.318 91.0671 492.531L89.1531 492.188L89.6353 486.818H95.8597V488.578H91.4102L91.1467 491.129H91.2063C91.3853 490.877 91.6554 490.668 92.0167 490.502C92.378 490.336 92.7823 490.254 93.2298 490.254C93.8429 490.254 94.3898 490.398 94.8704 490.686C95.351 490.974 95.7305 491.371 96.0089 491.874C96.2873 492.375 96.4248 492.951 96.4215 493.604C96.4248 494.29 96.2657 494.9 95.9442 495.434C95.6261 495.964 95.1803 496.382 94.6069 496.687C94.0368 496.988 93.3739 497.139 92.6183 497.139ZM98.8526 497.129C98.5245 497.129 98.2428 497.013 98.0075 496.781C97.7754 496.546 97.6594 496.264 97.6594 495.936C97.6594 495.611 97.7754 495.333 98.0075 495.101C98.2428 494.869 98.5245 494.753 98.8526 494.753C99.1708 494.753 99.4492 494.869 99.6879 495.101C99.9265 495.333 100.046 495.611 100.046 495.936C100.046 496.155 99.9895 496.355 99.8768 496.538C99.7674 496.717 99.6232 496.861 99.4442 496.97C99.2653 497.076 99.0681 497.129 98.8526 497.129ZM105.401 497.139C104.699 497.139 104.072 497.01 103.522 496.751C102.975 496.493 102.541 496.137 102.22 495.683C101.898 495.228 101.731 494.708 101.718 494.121H103.806C103.829 494.516 103.994 494.836 104.303 495.081C104.611 495.326 104.977 495.449 105.401 495.449C105.74 495.449 106.038 495.374 106.296 495.225C106.558 495.073 106.762 494.862 106.908 494.594C107.057 494.322 107.132 494.01 107.132 493.659C107.132 493.301 107.055 492.986 106.903 492.714C106.754 492.443 106.547 492.231 106.281 492.078C106.016 491.926 105.713 491.848 105.372 491.844C105.073 491.844 104.783 491.906 104.502 492.028C104.223 492.151 104.006 492.318 103.85 492.531L101.936 492.188L102.419 486.818H108.643V488.578H104.193L103.93 491.129H103.99C104.169 490.877 104.439 490.668 104.8 490.502C105.161 490.336 105.566 490.254 106.013 490.254C106.626 490.254 107.173 490.398 107.654 490.686C108.134 490.974 108.514 491.371 108.792 491.874C109.07 492.375 109.208 492.951 109.205 493.604C109.208 494.29 109.049 494.9 108.727 495.434C108.409 495.964 107.963 496.382 107.39 496.687C106.82 496.988 106.157 497.139 105.401 497.139ZM114.504 497.139C113.739 497.139 113.058 497.015 112.461 496.766C111.868 496.514 111.402 496.171 111.064 495.737C110.726 495.303 110.557 494.811 110.557 494.261C110.557 493.836 110.653 493.447 110.845 493.092C111.041 492.734 111.306 492.438 111.641 492.202C111.976 491.964 112.35 491.811 112.764 491.745V491.675C112.221 491.566 111.78 491.303 111.442 490.885C111.104 490.464 110.935 489.975 110.935 489.418C110.935 488.891 111.089 488.422 111.397 488.011C111.705 487.597 112.128 487.272 112.665 487.037C113.205 486.798 113.818 486.679 114.504 486.679C115.191 486.679 115.802 486.798 116.339 487.037C116.879 487.276 117.303 487.602 117.612 488.016C117.92 488.427 118.076 488.895 118.079 489.418C118.076 489.978 117.903 490.467 117.562 490.885C117.221 491.303 116.783 491.566 116.249 491.675V491.745C116.657 491.811 117.027 491.964 117.358 492.202C117.693 492.438 117.958 492.734 118.154 493.092C118.352 493.447 118.454 493.836 118.457 494.261C118.454 494.811 118.283 495.303 117.945 495.737C117.607 496.171 117.139 496.514 116.543 496.766C115.95 497.015 115.27 497.139 114.504 497.139ZM114.504 495.558C114.846 495.558 115.144 495.497 115.399 495.374C115.655 495.248 115.853 495.076 115.996 494.857C116.142 494.635 116.215 494.38 116.215 494.092C116.215 493.797 116.14 493.536 115.991 493.311C115.842 493.082 115.64 492.903 115.384 492.774C115.129 492.642 114.836 492.575 114.504 492.575C114.176 492.575 113.883 492.642 113.624 492.774C113.366 492.903 113.162 493.082 113.013 493.311C112.867 493.536 112.794 493.797 112.794 494.092C112.794 494.38 112.865 494.635 113.008 494.857C113.151 495.076 113.351 495.248 113.61 495.374C113.868 495.497 114.166 495.558 114.504 495.558ZM114.504 491.009C114.789 491.009 115.043 490.951 115.265 490.835C115.487 490.719 115.661 490.558 115.787 490.353C115.913 490.147 115.976 489.911 115.976 489.642C115.976 489.377 115.913 489.145 115.787 488.946C115.661 488.744 115.489 488.586 115.27 488.474C115.051 488.358 114.796 488.3 114.504 488.3C114.216 488.3 113.961 488.358 113.739 488.474C113.517 488.586 113.343 488.744 113.217 488.946C113.094 489.145 113.033 489.377 113.033 489.642C113.033 489.911 113.096 490.147 113.222 490.353C113.348 490.558 113.522 490.719 113.744 490.835C113.966 490.951 114.219 491.009 114.504 491.009ZM125.141 494.803L125.146 492.262H125.454L127.9 489.364H130.331L127.045 493.202H126.543L125.141 494.803ZM123.222 497V486.818H125.34V497H123.222ZM127.995 497L125.748 493.674L127.16 492.178L130.476 497H127.995ZM139.927 486.818V497H138.067L133.638 490.592H133.563V497H131.41V486.818H133.3L137.694 493.222H137.784V486.818H139.927ZM142.903 493.734C142.575 493.734 142.294 493.618 142.058 493.386C141.826 493.15 141.71 492.869 141.71 492.54C141.71 492.216 141.826 491.937 142.058 491.705C142.294 491.473 142.575 491.357 142.903 491.357C143.222 491.357 143.5 491.473 143.739 491.705C143.977 491.937 144.097 492.216 144.097 492.54C144.097 492.759 144.04 492.96 143.928 493.142C143.818 493.321 143.674 493.465 143.495 493.575C143.316 493.681 143.119 493.734 142.903 493.734ZM145.835 497V489.364H147.854V490.711H147.943C148.102 490.263 148.368 489.911 148.739 489.652C149.11 489.393 149.554 489.264 150.071 489.264C150.595 489.264 151.041 489.395 151.409 489.657C151.776 489.915 152.022 490.267 152.144 490.711H152.224C152.38 490.273 152.661 489.924 153.069 489.662C153.48 489.397 153.966 489.264 154.526 489.264C155.238 489.264 155.817 489.491 156.261 489.945C156.708 490.396 156.932 491.036 156.932 491.864V497H154.819V492.282C154.819 491.858 154.706 491.54 154.481 491.327C154.256 491.115 153.974 491.009 153.636 491.009C153.251 491.009 152.951 491.132 152.736 491.377C152.521 491.619 152.413 491.939 152.413 492.337V497H150.36V492.237C150.36 491.863 150.252 491.564 150.036 491.342C149.824 491.12 149.544 491.009 149.196 491.009C148.961 491.009 148.749 491.069 148.56 491.188C148.374 491.304 148.227 491.468 148.117 491.68C148.008 491.889 147.953 492.134 147.953 492.416V497H145.835ZM166.28 486.341L162.999 498.531H161.174L164.455 486.341H166.28ZM170.521 497V495.449L174.145 492.093C174.453 491.795 174.712 491.526 174.92 491.288C175.133 491.049 175.293 490.815 175.403 490.587C175.512 490.355 175.567 490.104 175.567 489.836C175.567 489.538 175.499 489.281 175.363 489.065C175.227 488.847 175.041 488.679 174.806 488.563C174.571 488.444 174.304 488.384 174.006 488.384C173.694 488.384 173.422 488.447 173.19 488.573C172.958 488.699 172.779 488.88 172.653 489.115C172.527 489.35 172.464 489.63 172.464 489.955H170.421C170.421 489.289 170.572 488.711 170.874 488.22C171.175 487.73 171.598 487.35 172.141 487.082C172.685 486.813 173.311 486.679 174.021 486.679C174.75 486.679 175.384 486.808 175.925 487.067C176.468 487.322 176.891 487.677 177.192 488.131C177.494 488.585 177.645 489.105 177.645 489.692C177.645 490.076 177.569 490.456 177.416 490.83C177.267 491.205 177 491.621 176.616 492.078C176.231 492.532 175.689 493.077 174.99 493.714L173.504 495.17V495.24H177.779V497H170.521ZM183.331 497.224C182.476 497.22 181.74 497.01 181.124 496.592C180.511 496.175 180.038 495.57 179.707 494.778C179.379 493.986 179.216 493.033 179.22 491.919C179.22 490.809 179.384 489.862 179.712 489.08C180.043 488.298 180.516 487.703 181.129 487.295C181.745 486.884 182.479 486.679 183.331 486.679C184.183 486.679 184.915 486.884 185.529 487.295C186.145 487.706 186.619 488.303 186.95 489.085C187.282 489.864 187.446 490.809 187.443 491.919C187.443 493.036 187.277 493.991 186.945 494.783C186.617 495.575 186.147 496.18 185.534 496.597C184.92 497.015 184.186 497.224 183.331 497.224ZM183.331 495.439C183.914 495.439 184.38 495.146 184.728 494.559C185.076 493.972 185.249 493.092 185.245 491.919C185.245 491.147 185.166 490.504 185.007 489.99C184.851 489.476 184.629 489.09 184.34 488.832C184.055 488.573 183.719 488.444 183.331 488.444C182.751 488.444 182.287 488.734 181.939 489.314C181.591 489.894 181.415 490.762 181.412 491.919C181.412 492.701 181.49 493.354 181.646 493.878C181.805 494.398 182.029 494.789 182.317 495.051C182.605 495.31 182.943 495.439 183.331 495.439ZM194.157 494.803L194.162 492.262H194.47L196.916 489.364H199.347L196.061 493.202H195.559L194.157 494.803ZM192.238 497V486.818H194.356V497H192.238ZM197.01 497L194.763 493.674L196.175 492.178L199.491 497H197.01ZM208.942 486.818V497H207.083L202.653 490.592H202.579V497H200.426V486.818H202.315L206.71 493.222H206.8V486.818H208.942ZM211.919 493.734C211.591 493.734 211.309 493.618 211.074 493.386C210.842 493.15 210.726 492.869 210.726 492.54C210.726 492.216 210.842 491.937 211.074 491.705C211.309 491.473 211.591 491.357 211.919 491.357C212.237 491.357 212.516 491.473 212.754 491.705C212.993 491.937 213.112 492.216 213.112 492.54C213.112 492.759 213.056 492.96 212.943 493.142C212.834 493.321 212.69 493.465 212.511 493.575C212.332 493.681 212.134 493.734 211.919 493.734ZM214.851 497V489.364H216.869V490.711H216.959C217.118 490.263 217.383 489.911 217.754 489.652C218.126 489.393 218.57 489.264 219.087 489.264C219.61 489.264 220.056 489.395 220.424 489.657C220.792 489.915 221.037 490.267 221.16 490.711H221.24C221.395 490.273 221.677 489.924 222.085 489.662C222.496 489.397 222.981 489.264 223.541 489.264C224.254 489.264 224.832 489.491 225.276 489.945C225.724 490.396 225.948 491.036 225.948 491.864V497H223.835V492.282C223.835 491.858 223.722 491.54 223.497 491.327C223.271 491.115 222.99 491.009 222.651 491.009C222.267 491.009 221.967 491.132 221.752 491.377C221.536 491.619 221.428 491.939 221.428 492.337V497H219.375V492.237C219.375 491.863 219.267 491.564 219.052 491.342C218.84 491.12 218.56 491.009 218.212 491.009C217.977 491.009 217.764 491.069 217.575 491.188C217.39 491.304 217.242 491.468 217.133 491.68C217.024 491.889 216.969 492.134 216.969 492.416V497H214.851Z" fill="#969696"/>
</svg>
